<?xml version="1.0" encoding="utf-8"?>
<!-- Generator: Adobe Illustrator 19.2.0, SVG Export Plug-In . SVG Version: 6.00 Build 0)  -->
<!DOCTYPE svg PUBLIC "-//W3C//DTD SVG 1.1//EN" "http://www.w3.org/Graphics/SVG/1.1/DTD/svg11.dtd">
<svg version="1.1" id="Layer_1" xmlns="http://www.w3.org/2000/svg" xmlns:xlink="http://www.w3.org/1999/xlink" x="0px" y="0px"
	 width="864px" height="612px" viewBox="0 0 864 612" style="enable-background:new 0 0 864 612;" xml:space="preserve">
<style type="text/css">
	.st0{fill:#FFFFD3;}
	.st1{fill:#99FFDE;}
	.st2{fill:#FAEFFF;}
	.st3{fill:#A9FFF8;}
	.st4{fill:#FFC8CA;}
</style>
<path class="st0" d="M144.6,81c-10.3,0-9.4,16,0.8,16C155.7,97,154.9,81,144.6,81z"/>
<path class="st0" d="M213.6,162c-10.3,0-9.4,16,0.8,16C224.7,178,223.9,162,213.6,162z"/>
<path class="st0" d="M509.6,126c-10.3,0-9.4,16,0.8,16C520.7,142,519.9,126,509.6,126z"/>
<path class="st0" d="M687.6,80c-10.3,0-9.4,16,0.8,16C698.7,96,697.9,80,687.6,80z"/>
<path class="st0" d="M703.6,215c-10.3,0-9.4,16,0.8,16C714.7,231,713.9,215,703.6,215z"/>
<path class="st0" d="M494.2,258.6c-0.4-1-1-1.9-1.8-2.6c-0.8-0.8-1.7-1.3-2.8-1.6c-1-0.4-2-0.6-3-0.5c-2.1,0.2-4.2,1-5.5,2.6
	l-1.2,1.8c-0.6,1.3-0.8,2.6-0.8,4v2c0,1.1,0.3,2,0.8,3c0.4,1,1,1.9,1.8,2.6c0.8,0.8,1.7,1.3,2.8,1.6c1,0.4,2,0.6,3,0.5
	c2.1-0.2,4.2-1,5.5-2.6c0.4-0.6,0.8-1.2,1.2-1.8c0.6-1.3,0.8-2.6,0.8-4v-2C495,260.5,494.7,259.5,494.2,258.6z"/>
<path class="st0" d="M352.6,309c-10.3,0-9.4,16,0.8,16C363.7,325,362.9,309,352.6,309z"/>
<path class="st0" d="M164.6,307c-10.3,0-9.4,16,0.8,16C175.7,323,174.9,307,164.6,307z"/>
<path class="st0" d="M54,205.6c-0.1-0.7-0.2-1.3-0.4-2c-0.4-1.4-1.2-2.5-2.3-3.5l-1-1c-0.8-0.8-1.7-1.3-2.8-1.6c-1-0.4-2-0.6-3-0.5
	c-1.1,0-2,0.3-3,0.8c-1,0.4-1.9,1-2.6,1.8c-1.3,1.6-2.2,3.6-2,5.8c0.1,0.7,0.2,1.3,0.4,2c0.4,1.4,1.2,2.5,2.3,3.5
	c0.3,0.3,0.7,0.7,1,1c0.8,0.8,1.7,1.3,2.8,1.6c1,0.4,2,0.6,3,0.5c1.1,0,2-0.3,3-0.8c1-0.4,1.9-1,2.6-1.8
	C53.3,209.8,54.2,207.7,54,205.6z"/>
<path class="st0" d="M103.6,106.1c0.8-4.5-2-10.1-8-10.1c-10,0-9.5,14.9-0.2,15.9c-0.8,4.5,2,10.1,8,10.1
	C113.4,122,112.9,107.1,103.6,106.1z"/>
<path class="st0" d="M308.6,88c-10.3,0-9.4,16,0.8,16C319.7,104,318.9,88,308.6,88z"/>
<path class="st0" d="M439.6,29c-10.3,0-9.4,16,0.8,16C450.7,45,449.9,29,439.6,29z"/>
<path class="st0" d="M640.6,12c-10.3,0-9.4,16,0.8,16C651.7,28,650.9,12,640.6,12z"/>
<path class="st0" d="M354.6,20c-10.3,0-9.4,16,0.8,16C365.7,36,364.9,20,354.6,20z"/>
<path class="st0" d="M157,27.6c-0.2-2.1-1-4.2-2.6-5.5c-0.6-0.4-1.2-0.8-1.8-1.2c-1.3-0.6-2.6-0.8-4-0.8h-2c-1.1,0-2,0.3-3,0.8
	c-1,0.4-1.9,1-2.6,1.8c-0.8,0.8-1.3,1.7-1.6,2.8c-0.4,1-0.6,2-0.5,3c0.2,2.1,1,4.2,2.6,5.5c0.6,0.4,1.2,0.8,1.8,1.2
	c1.3,0.6,2.6,0.8,4,0.8h2c1.1,0,2-0.3,3-0.8c1-0.4,1.9-1,2.6-1.8c0.8-0.8,1.3-1.7,1.6-2.8C156.9,29.6,157.1,28.6,157,27.6z"/>
<path class="st0" d="M26.6,20c-10.3,0-9.4,16,0.8,16C37.7,36,36.9,20,26.6,20z"/>
<path class="st0" d="M264.6,35c-10.3,0-9.4,16,0.8,16C275.7,51,274.9,35,264.6,35z"/>
<path class="st0" d="M324.6,28c-10.3,0-9.4,16,0.8,16C335.7,44,334.9,28,324.6,28z"/>
<path class="st0" d="M404.6,16c-10.3,0-9.4,16,0.8,16C415.7,32,414.9,16,404.6,16z"/>
<path class="st0" d="M623.6,14c-10.3,0-9.4,16,0.8,16C634.7,30,633.9,14,623.6,14z"/>
<path class="st0" d="M869.6,16c-10.3,0-9.4,16,0.8,16C880.7,32,879.9,16,869.6,16z"/>
<path class="st0" d="M525.6,46c-10.3,0-9.4,16,0.8,16C536.7,62,535.9,46,525.6,46z"/>
<path class="st0" d="M532.6,25c-10.3,0-9.4,16,0.8,16C543.7,41,542.9,25,532.6,25z"/>
<path class="st0" d="M525.6,90c-10.3,0-9.4,16,0.8,16C536.7,106,535.9,90,525.6,90z"/>
<path class="st0" d="M388,86.6c-0.1-0.7-0.2-1.3-0.4-2c-0.4-1.4-1.2-2.5-2.3-3.5l-1-1c-0.8-0.8-1.7-1.3-2.8-1.6c-1-0.4-2-0.6-3-0.5
	c-1.1,0-2,0.3-3,0.8c-1,0.4-1.9,1-2.6,1.8c-1.3,1.6-2.2,3.6-2,5.8c0.1,0.7,0.2,1.3,0.4,2c0.4,1.4,1.2,2.5,2.3,3.5
	c0.3,0.3,0.7,0.7,1,1c0.8,0.8,1.7,1.3,2.8,1.6c1,0.4,2,0.6,3,0.5c1.1,0,2-0.3,3-0.8c1-0.4,1.9-1,2.6-1.8
	C387.3,90.8,388.2,88.7,388,86.6z"/>
<path class="st0" d="M357.6,79.6c-0.7-2-2.1-3.7-4-4.7c-0.7-0.3-1.3-0.7-2-1c-1.8-0.9-4.1-1.1-6-0.5c-1,0.3-1.9,0.8-2.7,1.6
	c-0.9,0.6-1.6,1.5-2,2.5c-0.8,1.9-1.2,4-0.5,6c0.7,2,2.1,3.7,4,4.7c0.7,0.3,1.3,0.7,2,1c1.8,0.9,4.1,1.1,6,0.5
	c1-0.3,1.9-0.8,2.7-1.6c0.9-0.6,1.6-1.5,2-2.5C358,83.7,358.3,81.5,357.6,79.6z"/>
<path class="st0" d="M200.6,50c-10.3,0-9.4,16,0.8,16C211.7,66,210.9,50,200.6,50z"/>
<path class="st0" d="M156.6,64c-10.3,0-9.4,16,0.8,16C167.7,80,166.9,64,156.6,64z"/>
<path class="st0" d="M69.6,148c-10.3,0-9.4,16,0.8,16C80.7,164,79.9,148,69.6,148z"/>
<path class="st0" d="M270.6,148c-10.3,0-9.4,16,0.8,16C281.7,164,280.9,148,270.6,148z"/>
<path class="st0" d="M428.6,138h-16c-4.3,0-7.8,4.3-7.6,8.4c0.2,4.5,4.1,7.6,8.4,7.6h16c4.3,0,7.8-4.3,7.6-8.4
	C436.8,141.1,432.9,138,428.6,138z"/>
<path class="st0" d="M490.6,136c-10.3,0-9.4,16,0.8,16C501.7,152,500.9,136,490.6,136z"/>
<path class="st0" d="M684.6,141c-10.3,0-9.4,16,0.8,16C695.7,157,694.9,141,684.6,141z"/>
<path class="st0" d="M581,229.6c-0.2-2.1-1-4.2-2.6-5.5c-0.6-0.4-1.2-0.8-1.8-1.2c-1.3-0.6-2.6-0.8-4-0.8h-1c-1.1,0-2,0.3-3,0.8
	c-1,0.4-1.9,1-2.6,1.8c-0.8,0.8-1.3,1.7-1.6,2.8c-0.4,1-0.6,2-0.5,3c0.2,2.1,1,4.2,2.6,5.5c0.6,0.4,1.2,0.8,1.8,1.2
	c1.3,0.6,2.6,0.8,4,0.8h1c1.1,0,2-0.3,3-0.8c1-0.4,1.9-1,2.6-1.8c0.8-0.8,1.3-1.7,1.6-2.8C580.9,231.6,581.1,230.6,581,229.6z"/>
<path class="st0" d="M448.6,213c-10.3,0-9.4,16,0.8,16C459.7,229,458.9,213,448.6,213z"/>
<path class="st0" d="M407.6,233c-10.3,0-9.4,16,0.8,16C418.7,249,417.9,233,407.6,233z"/>
<path class="st0" d="M407.6,279c-10.3,0-9.4,16,0.8,16C418.7,295,417.9,279,407.6,279z"/>
<path class="st0" d="M252.6,288c-10.3,0-9.4,16,0.8,16C263.7,304,262.9,288,252.6,288z"/>
<path class="st0" d="M237.6,385c-10.3,0-9.4,16,0.8,16C248.7,401,247.9,385,237.6,385z"/>
<path class="st0" d="M381.6,385c-10.3,0-9.4,16,0.8,16C392.7,401,391.9,385,381.6,385z"/>
<path class="st0" d="M606.6,363c-10.3,0-9.4,16,0.8,16C617.7,379,616.9,363,606.6,363z"/>
<path class="st0" d="M821.2,423.3c-1.3-1.9-3.3-3.4-5.6-3.8c-2-0.3-4.2,0-5.9,1.1c-1,0.6-1.7,1.3-2.2,2.3c-0.7,0.8-1.1,1.8-1.3,2.8
	c-0.2,1-0.2,2,0,3c-0.1,1,0,1.9,0.3,2.9c0.7,2,2.1,3.8,4,4.7c0.7,0.2,1.3,0.5,2,0.7c1.4,0.3,2.7,0.2,4.1-0.2
	c0.4-0.1,0.8-0.3,1.1-0.5c0.4-0.2,0.7-0.3,1.1-0.5c0.4-0.3,1.3-1.1,1.7-1.4c0.5-0.5,0.9-1.2,1.3-1.9c0-0.1,0.1-0.1,0.1-0.2
	c0.2-0.4,0.6-1.6,0.7-2c0-0.1,0-0.1,0-0.2c0.1-0.6,0.2-1.6,0.2-2.2C822.6,426.4,822,424.5,821.2,423.3z"/>
<path class="st0" d="M706.6,312c-10.3,0-9.4,16,0.8,16C717.7,328,716.9,312,706.6,312z"/>
<path class="st0" d="M471.6,299c-10.3,0-9.4,16,0.8,16C482.7,315,481.9,299,471.6,299z"/>
<path class="st0" d="M468.6,399c-10.3,0-9.4,16,0.8,16C479.7,415,478.9,399,468.6,399z"/>
<path class="st0" d="M582.6,421c-10.3,0-9.4,16,0.8,16C593.7,437,592.9,421,582.6,421z"/>
<path class="st0" d="M403,437.6c-0.2-2.1-1-4.2-2.6-5.5c-1.7-1.4-3.6-2-5.8-2h-4c-2,0-4.2,1.2-5.5,2.6c-1.3,1.5-2.2,3.8-2,5.8
	c0.2,2.1,1,4.2,2.6,5.5c1.7,1.4,3.6,2.1,5.8,2.1h4c2,0,4.2-1.2,5.5-2.6C402.3,441.9,403.2,439.6,403,437.6z"/>
<path class="st0" d="M240.6,433c-10.3,0-9.4,16,0.8,16C251.7,449,250.9,433,240.6,433z"/>
<path class="st0" d="M355.6,513c-10.3,0-9.4,16,0.8,16C366.7,529,365.9,513,355.6,513z"/>
<path class="st0" d="M206,532.6c-0.2-2.1-1-4.2-2.6-5.5c-0.6-0.4-1.2-0.8-1.8-1.2c-1.3-0.6-2.6-0.8-4-0.8h-1c-1.1,0-2,0.3-3,0.8
	c-1,0.4-1.9,1-2.6,1.8c-0.8,0.8-1.3,1.7-1.6,2.8c-0.4,1-0.6,2-0.5,3c0.2,2.1,1,4.2,2.6,5.5c0.6,0.4,1.2,0.8,1.8,1.2
	c1.3,0.6,2.6,0.8,4,0.8h1c1.1,0,2-0.3,3-0.8c1-0.4,1.9-1,2.6-1.8c0.8-0.8,1.3-1.7,1.6-2.8C205.9,534.6,206.1,533.6,206,532.6z"/>
<path class="st1" d="M603.6,21c-10.3,0-9.4,16,0.8,16C614.7,37,613.9,21,603.6,21z"/>
<path class="st1" d="M463.6,17c-10.3,0-9.4,16,0.8,16C474.7,33,473.9,17,463.6,17z"/>
<path class="st1" d="M294.6,20c-10.3,0-9.4,16,0.8,16C305.7,36,304.9,20,294.6,20z"/>
<path class="st1" d="M293.6,82c-10.3,0-9.4,16,0.8,16C304.7,98,303.9,82,293.6,82z"/>
<path class="st1" d="M450.6,45c-10.3,0-9.4,16,0.8,16C461.7,61,460.9,45,450.6,45z"/>
<path class="st1" d="M248.6,47c-10.3,0-9.4,16,0.8,16C259.7,63,258.9,47,248.6,47z"/>
<path class="st1" d="M92.6,23c-10.3,0-9.4,16,0.8,16C103.7,39,102.9,23,92.6,23z"/>
<path class="st1" d="M27.6,20c-10.3,0-9.4,16,0.8,16C38.7,36,37.9,20,27.6,20z"/>
<path class="st1" d="M146.6,20c-4.9,0-7.3,3.7-7.3,7.5c-1.3-2-3.6-3.5-6.7-3.5c-10.3,0-9.4,16,0.8,16c4.9,0,7.3-3.7,7.3-7.5
	c1.3,2,3.6,3.5,6.7,3.5C157.7,36,156.9,20,146.6,20z"/>
<path class="st1" d="M127.6,49c-10.3,0-9.4,16,0.8,16C138.7,65,137.9,49,127.6,49z"/>
<path class="st1" d="M68.6,53c-10.3,0-9.4,16,0.8,16C79.7,69,78.9,53,68.6,53z"/>
<path class="st1" d="M88.6,93c-10.3,0-9.4,16,0.8,16C99.7,109,98.9,93,88.6,93z"/>
<path class="st1" d="M214.7,102.1c0.3-4.3-2.5-9.1-8.1-9.1c-8.7,0-9.4,11.4-3.3,14.9c-0.3,4.3,2.5,9.1,8.1,9.1
	C220.1,117,220.9,105.6,214.7,102.1z"/>
<path class="st1" d="M215.6,37c-10.3,0-9.4,16,0.8,16C226.7,53,225.9,37,215.6,37z"/>
<path class="st1" d="M192.6,60c-10.3,0-9.4,16,0.8,16C203.7,76,202.9,60,192.6,60z"/>
<path class="st1" d="M387.2,80.6c-0.4-1-1-1.9-1.8-2.6c-0.8-0.8-1.7-1.3-2.8-1.6c-1-0.4-2-0.6-3-0.5c-2.1,0.2-4.2,1-5.5,2.6
	l-1.2,1.8c-0.6,1.3-0.8,2.6-0.8,4v1c0,1.1,0.3,2,0.8,3c0.4,1,1,1.9,1.8,2.6c0.8,0.8,1.7,1.3,2.8,1.6c1,0.4,2,0.6,3,0.5
	c2.1-0.2,4.2-1,5.5-2.6c0.4-0.6,0.8-1.2,1.2-1.8c0.6-1.3,0.8-2.6,0.8-4v-1C388,82.5,387.7,81.5,387.2,80.6z"/>
<path class="st1" d="M450.6,149c-10.3,0-9.4,16,0.8,16C461.7,165,460.9,149,450.6,149z"/>
<path class="st1" d="M603.6,150c-10.3,0-9.4,16,0.8,16C614.7,166,613.9,150,603.6,150z"/>
<path class="st1" d="M305.6,146c-10.3,0-9.4,16,0.8,16C316.7,162,315.9,146,305.6,146z"/>
<path class="st1" d="M445.6,108c-10.3,0-9.4,16,0.8,16C456.7,124,455.9,108,445.6,108z"/>
<path class="st1" d="M545.6,118c-10.3,0-9.4,16,0.8,16C556.7,134,555.9,118,545.6,118z"/>
<path class="st1" d="M430.6,118c-10.3,0-9.4,16,0.8,16C441.7,134,440.9,118,430.6,118z"/>
<path class="st1" d="M356.6,53c-10.3,0-9.4,16,0.8,16C367.7,69,366.9,53,356.6,53z"/>
<path class="st1" d="M419.6,30c-10.3,0-9.4,16,0.8,16C430.7,46,429.9,30,419.6,30z"/>
<path class="st1" d="M340.6,19c-10.3,0-9.4,16,0.8,16C351.7,35,350.9,19,340.6,19z"/>
<path class="st1" d="M275.6,30c-10.3,0-9.4,16,0.8,16C286.7,46,285.9,30,275.6,30z"/>
<path class="st1" d="M103.6,5c-10.3,0-9.4,16,0.8,16C114.7,21,113.9,5,103.6,5z"/>
<path class="st1" d="M255.6,21c-10.3,0-9.4,16,0.8,16C266.7,37,265.9,21,255.6,21z"/>
<path class="st1" d="M390.6,13c-10.3,0-9.4,16,0.8,16C401.7,29,400.9,13,390.6,13z"/>
<path class="st1" d="M532.6,13c-10.3,0-9.4,16,0.8,16C543.7,29,542.9,13,532.6,13z"/>
<path class="st1" d="M659.6,19c-2.7,0-4.7,1.1-5.8,2.7c0.1-4.2-2.7-8.7-8.2-8.7c-10.3,0-9.4,16,0.8,16c2.7,0,4.7-1.1,5.8-2.7
	c-0.1,4.2,2.7,8.7,8.2,8.7C670.7,35,669.9,19,659.6,19z"/>
<path class="st1" d="M720.6,12c-10.3,0-9.4,16,0.8,16C731.7,28,730.9,12,720.6,12z"/>
<path class="st1" d="M835.6,4c-10.3,0-9.4,16,0.8,16C846.7,20,845.9,4,835.6,4z"/>
<path class="st1" d="M846.6,42c-10.3,0-9.4,16,0.8,16C857.7,58,856.9,42,846.6,42z"/>
<path class="st1" d="M782.6,23c-10.3,0-9.4,16,0.8,16C793.7,39,792.9,23,782.6,23z"/>
<path class="st1" d="M738.6,49c-10.3,0-9.4,16,0.8,16C749.7,65,748.9,49,738.6,49z"/>
<path class="st1" d="M668.6,62c-10.3,0-9.4,16,0.8,16C679.7,78,678.9,62,668.6,62z"/>
<path class="st1" d="M595.6,57c-10.3,0-9.4,16,0.8,16C606.7,73,605.9,57,595.6,57z"/>
<path class="st1" d="M542.6,76c-10.3,0-9.4,16,0.8,16C553.7,92,552.9,76,542.6,76z"/>
<path class="st1" d="M446.6,88c-10.3,0-9.4,16,0.8,16C457.7,104,456.9,88,446.6,88z"/>
<path class="st1" d="M320.6,73c-10.3,0-9.4,16,0.8,16C331.7,89,330.9,73,320.6,73z"/>
<path class="st1" d="M155.6,112c-10.3,0-9.4,16,0.8,16C166.7,128,165.9,112,155.6,112z"/>
<path class="st1" d="M96.6,119c-10.3,0-9.4,16,0.8,16C107.7,135,106.9,119,96.6,119z"/>
<path class="st1" d="M35.6,84c-10.3,0-9.4,16,0.8,16C46.7,100,45.9,84,35.6,84z"/>
<path class="st1" d="M45.6,156c-10.3,0-9.4,16,0.8,16C56.7,172,55.9,156,45.6,156z"/>
<path class="st1" d="M176.6,154c-10.3,0-9.4,16,0.8,16C187.7,170,186.9,154,176.6,154z"/>
<path class="st1" d="M131.6,225c-10.3,0-9.4,16,0.8,16C142.7,241,141.9,225,131.6,225z"/>
<path class="st1" d="M129.6,286c-10.3,0-9.4,16,0.8,16C140.7,302,139.9,286,129.6,286z"/>
<path class="st1" d="M77.2,228.6c-0.4-1-1-1.9-1.8-2.6c-0.8-0.8-1.7-1.3-2.8-1.6c-1-0.4-2-0.6-3-0.5c-2.1,0.2-4.2,1-5.5,2.6
	l-1.2,1.8c-0.6,1.3-0.8,2.6-0.8,4v2c0,1.1,0.3,2,0.8,3c0.4,1,1,1.9,1.8,2.6c0.8,0.8,1.7,1.3,2.8,1.6c1,0.4,2,0.6,3,0.5
	c2.1-0.2,4.2-1,5.5-2.6c0.4-0.6,0.8-1.2,1.2-1.8c0.6-1.3,0.8-2.6,0.8-4v-2C78,230.5,77.7,229.5,77.2,228.6z"/>
<path class="st1" d="M120.6,469c-10.3,0-9.4,16,0.8,16C131.7,485,130.9,469,120.6,469z"/>
<path class="st1" d="M400.6,297c-10.3,0-9.4,16,0.8,16C411.7,313,410.9,297,400.6,297z"/>
<path class="st1" d="M311.7,266.2c-4.5-0.7-8.3,1.9-9.5,6.2c-0.7,2.6-1.5,5.3-2.2,7.9c-1.1,4,2.1,8.8,6.2,9.5
	c4.5,0.7,8.3-1.9,9.5-6.2c0.7-2.6,1.5-5.3,2.2-7.9C319.1,271.6,315.8,266.8,311.7,266.2z"/>
<path class="st1" d="M339.6,180c-10.3,0-9.4,16,0.8,16C350.7,196,349.9,180,339.6,180z"/>
<path class="st1" d="M212.6,186c-10.3,0-9.4,16,0.8,16C223.7,202,222.9,186,212.6,186z"/>
<path class="st1" d="M256.6,274c-10.3,0-9.4,16,0.8,16C267.7,290,266.9,274,256.6,274z"/>
<path class="st1" d="M346.6,335c-10.3,0-9.4,16,0.8,16C357.7,351,356.9,335,346.6,335z"/>
<path class="st1" d="M202.6,238c-10.3,0-9.4,16,0.8,16C213.7,254,212.9,238,202.6,238z"/>
<path class="st1" d="M258.6,349c-10.3,0-9.4,16,0.8,16C269.7,365,268.9,349,258.6,349z"/>
<path class="st1" d="M109.6,402c-10.3,0-9.4,16,0.8,16C120.7,418,119.9,402,109.6,402z"/>
<path class="st1" d="M47.6,325c-10.3,0-9.4,16,0.8,16C58.7,341,57.9,325,47.6,325z"/>
<path class="st1" d="M33.6,428c-10.3,0-9.4,16,0.8,16C44.7,444,43.9,428,33.6,428z"/>
<path class="st1" d="M70.6,346c-10.3,0-9.4,16,0.8,16C81.7,362,80.9,346,70.6,346z"/>
<path class="st1" d="M37.6,260c-10.3,0-9.4,16,0.8,16C48.7,276,47.9,260,37.6,260z"/>
<path class="st1" d="M74.6,366c-10.3,0-9.4,16,0.8,16C85.7,382,84.9,366,74.6,366z"/>
<path class="st1" d="M146,476.6c0-1.1-0.3-2-0.8-3c-0.4-1-1-1.9-1.8-2.6c-1.6-1.3-3.6-2.2-5.8-2c-0.7,0.1-1.3,0.2-2,0.4
	c-1.4,0.4-2.5,1.2-3.5,2.3l-1,1c-0.8,0.8-1.3,1.7-1.6,2.8c-0.4,1-0.6,2-0.5,3c0,1.1,0.3,2,0.8,3c0.4,1,1,1.9,1.8,2.6
	c1.6,1.3,3.6,2.2,5.8,2c0.7-0.1,1.3-0.2,2-0.4c1.4-0.4,2.5-1.2,3.5-2.3c0.3-0.3,0.7-0.7,1-1c0.8-0.8,1.3-1.7,1.6-2.8
	C145.9,478.6,146.1,477.6,146,476.6z"/>
<path class="st1" d="M271.6,372c-10.3,0-9.4,16,0.8,16C282.7,388,281.9,372,271.6,372z"/>
<path class="st1" d="M343.6,491.1c4.4-4.2,2.1-14.1-6-14.1c-10,0-9.5,14.9-0.1,15.9c-4.4,4.2-2.1,14.1,6,14.1
	C353.4,507,352.9,492,343.6,491.1z"/>
<path class="st1" d="M547.6,409c-10.3,0-9.4,16,0.8,16C558.7,425,557.9,409,547.6,409z"/>
<path class="st1" d="M584,279.6c-0.2-2.1-1-4.2-2.6-5.5c-0.6-0.4-1.2-0.8-1.8-1.2c-1.3-0.6-2.6-0.8-4-0.8h-1c-1.1,0-2,0.3-3,0.8
	c-1,0.4-1.9,1-2.6,1.8c-0.8,0.8-1.3,1.7-1.6,2.8c-0.4,1-0.6,2-0.5,3c0.2,2.1,1,4.2,2.6,5.5c0.6,0.4,1.2,0.8,1.8,1.2
	c1.3,0.6,2.6,0.8,4,0.8h1c1.1,0,2-0.3,3-0.8c1-0.4,1.9-1,2.6-1.8c0.8-0.8,1.3-1.7,1.6-2.8C583.9,281.6,584.1,280.6,584,279.6z"/>
<path class="st1" d="M469.6,207c-10.3,0-9.4,16,0.8,16C480.7,223,479.9,207,469.6,207z"/>
<path class="st1" d="M309.6,186c-10.3,0-9.4,16,0.8,16C320.7,202,319.9,186,309.6,186z"/>
<path class="st1" d="M580.6,213c-10.3,0-9.4,16,0.8,16C591.7,229,590.9,213,580.6,213z"/>
<path class="st1" d="M414.6,245c-10.3,0-9.4,16,0.8,16C425.7,261,424.9,245,414.6,245z"/>
<path class="st1" d="M605.6,200c-10.3,0-9.4,16,0.8,16C616.7,216,615.9,200,605.6,200z"/>
<path class="st1" d="M443.6,183c-10.3,0-9.4,16,0.8,16C454.7,199,453.9,183,443.6,183z"/>
<path class="st1" d="M623.6,175c-4,0-6.3,2.4-7.1,5.4c-0.3-0.5-0.7-0.9-1.2-1.3l-1-1c-0.8-0.8-1.7-1.3-2.8-1.6c-1-0.4-2-0.6-3-0.5
	c-1.1,0-2,0.3-3,0.8c-1,0.4-1.9,1-2.6,1.8c-1.3,1.6-2.2,3.6-2,5.8c0.1,0.7,0.2,1.3,0.4,2c0.4,1.4,1.2,2.5,2.3,3.5
	c0.3,0.3,0.7,0.7,1,1c0.8,0.8,1.7,1.3,2.8,1.6c1,0.4,2,0.6,3,0.5c1.1,0,2-0.3,3-0.8c1-0.4,1.9-1,2.6-1.8c0.7-0.9,1.3-1.9,1.7-3
	c1.3,2.1,3.6,3.6,6.8,3.6C634.7,191,633.9,175,623.6,175z"/>
<path class="st1" d="M562.6,252c-10.3,0-9.4,16,0.8,16C573.7,268,572.9,252,562.6,252z"/>
<path class="st1" d="M828,246.6c-0.2-2.1-1-4.2-2.6-5.5c-0.6-0.4-1.2-0.8-1.8-1.2c-1.3-0.6-2.6-0.8-4-0.8h-1c-1.1,0-2,0.3-3,0.8
	c-1,0.4-1.9,1-2.6,1.8c-0.8,0.8-1.3,1.7-1.6,2.8c-0.4,1-0.6,2-0.5,3c0.2,2.1,1,4.2,2.6,5.5c0.6,0.4,1.2,0.8,1.8,1.2
	c1.3,0.6,2.6,0.8,4,0.8h1c1.1,0,2-0.3,3-0.8c1-0.4,1.9-1,2.6-1.8c0.8-0.8,1.3-1.7,1.6-2.8C827.9,248.6,828.1,247.6,828,246.6z"/>
<path class="st1" d="M606.6,350c-10.3,0-9.4,16,0.8,16C617.7,366,616.9,350,606.6,350z"/>
<path class="st1" d="M703.6,432c-10.3,0-9.4,16,0.8,16C714.7,448,713.9,432,703.6,432z"/>
<path class="st1" d="M774.6,502c-10.3,0-9.4,16,0.8,16C785.7,518,784.9,502,774.6,502z"/>
<path class="st1" d="M638.6,507.5c-0.6-1.9-2.2-3.9-4-4.7c-1.9-0.8-4-1.2-6-0.5l-1.9,0.9c-1.2,0.8-2.2,1.9-2.8,3.2
	c-0.9,1.3-1.4,3-1.7,4.5c-0.4,2.3-0.2,4.2,0.3,6.5c0.4,1.9,2.4,3.9,4,4.7c1.7,0.9,4.2,1.1,6,0.5c2-0.7,3.8-2.1,4.7-4
	c0.7-1.6,0.9-3,0.7-4.6c0,0,0,0,0,0c0,0.1,0,0.2,0.1,0.3c0-0.1,0-0.2,0-0.4c0.1-0.1,0.1-0.2,0.2-0.3
	C639.1,512,639.1,509.3,638.6,507.5z"/>
<path class="st1" d="M702.6,375c-10.3,0-9.4,16,0.8,16C713.7,391,712.9,375,702.6,375z"/>
<path class="st1" d="M709.6,223c-10.3,0-9.4,16,0.8,16C720.7,239,719.9,223,709.6,223z"/>
<path class="st1" d="M779.6,121c-10.3,0-9.4,16,0.8,16C790.7,137,789.9,121,779.6,121z"/>
<path class="st1" d="M721.6,240c-10.3,0-9.4,16,0.8,16C732.7,256,731.9,240,721.6,240z"/>
<path class="st1" d="M768.2,306.6c-0.4-1-1-1.9-1.8-2.6c-0.8-0.8-1.7-1.3-2.8-1.6c-1-0.4-2-0.6-3-0.5c-2.1,0.2-4.2,1-5.5,2.6
	l-1.2,1.8c-0.6,1.3-0.8,2.6-0.8,4v1c0,1.1,0.3,2,0.8,3c0.4,1,1,1.9,1.8,2.6c0.8,0.8,1.7,1.3,2.8,1.6c1,0.4,2,0.6,3,0.5
	c2.1-0.2,4.2-1,5.5-2.6c0.4-0.6,0.8-1.2,1.2-1.8c0.6-1.3,0.8-2.6,0.8-4v-1C769,308.5,768.7,307.5,768.2,306.6z"/>
<path class="st1" d="M634,311.6c-0.2-2.1-1-4.2-2.6-5.5c-0.6-0.4-1.2-0.8-1.8-1.2c-1.3-0.6-2.6-0.8-4-0.8h-1c-1.1,0-2,0.3-3,0.8
	c-1,0.4-1.9,1-2.6,1.8c-0.8,0.8-1.3,1.7-1.6,2.8c-0.4,1-0.6,2-0.5,3c0.2,2.1,1,4.2,2.6,5.5c0.6,0.4,1.2,0.8,1.8,1.2
	c1.3,0.6,2.6,0.8,4,0.8h1c1.1,0,2-0.3,3-0.8c1-0.4,1.9-1,2.6-1.8c0.8-0.8,1.3-1.7,1.6-2.8C633.9,313.6,634.1,312.6,634,311.6z"/>
<path class="st1" d="M678.6,176c-10.3,0-9.4,16,0.8,16C689.7,192,688.9,176,678.6,176z"/>
<path class="st1" d="M841.6,160c-10.3,0-9.4,16,0.8,16C852.7,176,851.9,160,841.6,160z"/>
<path class="st1" d="M465.6,178c-10.3,0-9.4,16,0.8,16C476.7,194,475.9,178,465.6,178z"/>
<path class="st1" d="M653.7,277.7c-0.7-2-2.1-3.8-4-4.7c-1.9-0.8-4-1.1-6-0.5c-1,0.3-2,0.6-3,1c-2,0.6-3.8,2.2-4.7,4
	c-0.9,1.7-1.1,4.2-0.5,6c0.7,2,2.1,3.8,4,4.7c1.9,0.8,4,1.1,6,0.5c1-0.3,2-0.6,3-1c2-0.6,3.8-2.2,4.7-4
	C654.1,282,654.4,279.6,653.7,277.7z"/>
<path class="st1" d="M489.6,409c-10.3,0-9.4,16,0.8,16C500.7,425,499.9,409,489.6,409z"/>
<path class="st1" d="M532.6,245c-10.3,0-9.4,16,0.8,16C543.7,261,542.9,245,532.6,245z"/>
<path class="st1" d="M485.6,566c-10.3,0-9.4,16,0.8,16C496.7,582,495.9,566,485.6,566z"/>
<path class="st1" d="M658.6,447c-10.3,0-9.4,16,0.8,16C669.7,463,668.9,447,658.6,447z"/>
<path class="st1" d="M463.6,521c-10.3,0-9.4,16,0.8,16C474.7,537,473.9,521,463.6,521z"/>
<path class="st1" d="M412.6,411c-10.3,0-9.4,16,0.8,16C423.7,427,422.9,411,412.6,411z"/>
<path class="st1" d="M469.6,376c-10.3,0-9.4,16,0.8,16C480.7,392,479.9,376,469.6,376z"/>
<path class="st1" d="M227.6,526c-10.3,0-9.4,16,0.8,16C238.7,542,237.9,526,227.6,526z"/>
<path class="st1" d="M194.6,322c-10.3,0-9.4,16,0.8,16C205.7,338,204.9,322,194.6,322z"/>
<path class="st1" d="M495.6,254c-10.3,0-9.4,16,0.8,16C506.7,270,505.9,254,495.6,254z"/>
<path class="st2" d="M694.6,218c-10.3,0-9.4,16,0.8,16C705.7,234,704.9,218,694.6,218z"/>
<path class="st2" d="M655.6,329c-10.3,0-9.4,16,0.8,16C666.7,345,665.9,329,655.6,329z"/>
<path class="st2" d="M373.6,257c-10.3,0-9.4,16,0.8,16C384.7,273,383.9,257,373.6,257z"/>
<path class="st2" d="M357.6,127c-10.3,0-9.4,16,0.8,16C368.7,143,367.9,127,357.6,127z"/>
<path class="st2" d="M229.4,221.8c1.3-4.7-1.5-10.8-7.9-10.8c-7.1,0-8.9,7.5-6,12.2c-1.3,4.7,1.5,10.8,7.9,10.8
	C230.5,234,232.3,226.5,229.4,221.8z"/>
<path class="st2" d="M143.6,110c-10.3,0-9.4,16,0.8,16C154.7,126,153.9,110,143.6,110z"/>
<path class="st2" d="M183.6,237c-1.7,0-3.1,0.4-4.2,1.2c-0.6-0.1-1.2-0.2-1.8-0.2c-5.6,0-7.9,4.7-7.2,9c-0.9-3.2-3.5-6-7.8-6
	c-10.3,0-9.4,16,0.8,16c5.6,0,7.9-4.7,7.2-9c0.9,3.2,3.5,6,7.8,6c1.7,0,3.1-0.4,4.2-1.2c0.6,0.1,1.2,0.2,1.8,0.2
	C194.7,253,193.9,237,183.6,237z"/>
<path class="st2" d="M449.6,246c-10.3,0-9.4,16,0.8,16C460.7,262,459.9,246,449.6,246z"/>
<path class="st2" d="M302.6,301c-10.3,0-9.4,16,0.8,16C313.7,317,312.9,301,302.6,301z"/>
<path class="st2" d="M466.6,325c-10.3,0-9.4,16,0.8,16C477.7,341,476.9,325,466.6,325z"/>
<path class="st2" d="M668.6,342c-10.3,0-9.4,16,0.8,16C679.7,358,678.9,342,668.6,342z"/>
<path class="st2" d="M609.6,180c-10.3,0-9.4,16,0.8,16C620.7,196,619.9,180,609.6,180z"/>
<path class="st2" d="M479.6,231c-10.3,0-9.4,16,0.8,16C490.7,247,489.9,231,479.6,231z"/>
<path class="st2" d="M364.6,166c-10.3,0-9.4,16,0.8,16C375.7,182,374.9,166,364.6,166z"/>
<path class="st2" d="M350.6,214c-10.3,0-9.4,16,0.8,16C361.7,230,360.9,214,350.6,214z"/>
<path class="st2" d="M151.6,137c-10.3,0-9.4,16,0.8,16C162.7,153,161.9,137,151.6,137z"/>
<path class="st2" d="M239.6,268c-10.3,0-9.4,16,0.8,16C250.7,284,249.9,268,239.6,268z"/>
<path class="st2" d="M528.6,195c-10.3,0-9.4,16,0.8,16C539.7,211,538.9,195,528.6,195z"/>
<path class="st2" d="M429.6,136c-10.3,0-9.4,16,0.8,16C440.7,152,439.9,136,429.6,136z"/>
<path class="st2" d="M313.6,225c-10.3,0-9.4,16,0.8,16C324.7,241,323.9,225,313.6,225z"/>
<path class="st2" d="M219.6,392c-10.3,0-9.4,16,0.8,16C230.7,408,229.9,392,219.6,392z"/>
<path class="st2" d="M630.2,524.6c-0.4-1-1-1.9-1.8-2.6c-0.8-0.8-1.7-1.3-2.8-1.6c-1-0.4-2-0.6-3-0.5c-2.1,0.2-4.2,1-5.5,2.6
	l-1.2,1.8c-0.6,1.3-0.8,2.6-0.8,4v1c0,1.1,0.3,2,0.8,3c0.4,1,1,1.9,1.8,2.6c0.8,0.8,1.7,1.3,2.8,1.6c1,0.4,2,0.6,3,0.5
	c2.1-0.2,4.2-1,5.5-2.6c0.4-0.6,0.8-1.2,1.2-1.8c0.6-1.3,0.8-2.6,0.8-4v-1C631,526.5,630.7,525.5,630.2,524.6z"/>
<path class="st2" d="M399.2,496.6c-0.4-1-1-1.9-1.8-2.6c-0.8-0.8-1.7-1.3-2.8-1.6c-1-0.4-2-0.6-3-0.5c-2.1,0.2-4.2,1-5.5,2.6
	l-1.2,1.8c-0.6,1.3-0.8,2.6-0.8,4v1c0,1.1,0.3,2,0.8,3c0.4,1,1,1.9,1.8,2.6c0.8,0.8,1.7,1.3,2.8,1.6c1,0.4,2,0.6,3,0.5
	c2.1-0.2,4.2-1,5.5-2.6c0.4-0.6,0.8-1.2,1.2-1.8c0.6-1.3,0.8-2.6,0.8-4v-1C400,498.5,399.7,497.5,399.2,496.6z"/>
<path class="st2" d="M269.6,537c-10.3,0-9.4,16,0.8,16C280.7,553,279.9,537,269.6,537z"/>
<path class="st2" d="M51.6,534c-10.3,0-9.4,16,0.8,16C62.7,550,61.9,534,51.6,534z"/>
<path class="st2" d="M372.6,489c-10.3,0-9.4,16,0.8,16C383.7,505,382.9,489,372.6,489z"/>
<path class="st2" d="M662.6,456c-10.3,0-9.4,16,0.8,16C673.7,472,672.9,456,662.6,456z"/>
<path class="st2" d="M584.6,421c-10.3,0-9.4,16,0.8,16C595.7,437,594.9,421,584.6,421z"/>
<path class="st2" d="M353.6,423c-10.3,0-9.4,16,0.8,16C364.7,439,363.9,423,353.6,423z"/>
<path class="st2" d="M229.6,417c-10.3,0-9.4,16,0.8,16C240.7,433,239.9,417,229.6,417z"/>
<path class="st2" d="M625.6,101c-10.3,0-9.4,16,0.8,16C636.7,117,635.9,101,625.6,101z"/>
<path class="st2" d="M821.6,65c-10.3,0-9.4,16,0.8,16C832.7,81,831.9,65,821.6,65z"/>
<path class="st2" d="M543.6,44c-10.3,0-9.4,16,0.8,16C554.7,60,553.9,44,543.6,44z"/>
<path class="st2" d="M502.6,34c-10.3,0-9.4,16,0.8,16C513.7,50,512.9,34,502.6,34z"/>
<path class="st2" d="M271.6,37c-10.3,0-9.4,16,0.8,16C282.7,53,281.9,37,271.6,37z"/>
<path class="st2" d="M564.6,30c-10.3,0-9.4,16,0.8,16C575.7,46,574.9,30,564.6,30z"/>
<path class="st2" d="M217.6,43c-10.3,0-9.4,16,0.8,16C228.7,59,227.9,43,217.6,43z"/>
<path class="st2" d="M678.6,43c-10.3,0-9.4,16,0.8,16C689.7,59,688.9,43,678.6,43z"/>
<path class="st2" d="M283,112.6c-0.2-2.1-1-4.2-2.6-5.5c-1.5-1.3-3.7-2.4-5.8-2c-2,0.3-4,0.7-6,1c-2.2,0.4-4,0.9-5.5,2.6
	c-1.3,1.5-2.2,3.8-2,5.8c0.2,2.1,1,4.2,2.6,5.5c1.5,1.3,3.7,2.4,5.8,2c2-0.3,4-0.7,6-1c2.2-0.4,4-0.9,5.5-2.6
	C282.3,116.9,283.2,114.6,283,112.6z"/>
<path class="st2" d="M601.6,142c-10.3,0-9.4,16,0.8,16C612.7,158,611.9,142,601.6,142z"/>
<path class="st2" d="M223.8,162.6c-0.1-1-0.5-2-1.1-2.9c-1.2-1.7-3-3.2-5.1-3.5c-0.7-0.1-1.4-0.1-2-0.2c-1.4,0.1-2.7,0.5-3.9,1.2
	c-0.7,0.3-1.3,0.7-2,1c-1,0.6-1.7,1.3-2.2,2.3c-0.7,0.8-1.1,1.8-1.3,2.8c-0.3,1-0.2,2,0,3c0.1,1,0.5,2,1.1,2.9
	c1.2,1.7,3,3.2,5.1,3.5c0.7,0.1,1.4,0.1,2,0.2c1.4-0.1,2.7-0.5,3.9-1.2c0.7-0.3,1.3-0.7,2-1c1-0.6,1.7-1.3,2.2-2.3
	c0.7-0.8,1.1-1.8,1.3-2.8C224.1,164.6,224.1,163.6,223.8,162.6z"/>
<path class="st2" d="M714.6,159c-10.3,0-9.4,16,0.8,16C725.7,175,724.9,159,714.6,159z"/>
<path class="st2" d="M63.6,166.7c-0.7-2-2.1-3.7-4-4.7c-0.7-0.3-1.3-0.7-2-1c-1.8-0.9-4.1-1.1-6-0.5c-1,0.3-1.9,0.8-2.7,1.6
	c-0.9,0.6-1.6,1.5-2,2.5c-0.8,1.9-1.2,4-0.5,6c0.7,2,2.1,3.7,4,4.7c0.7,0.3,1.3,0.7,2,1c1.8,0.9,4.1,1.1,6,0.5
	c1-0.3,1.9-0.8,2.7-1.6c0.9-0.6,1.6-1.5,2-2.5C63.9,170.8,64.3,168.6,63.6,166.7z"/>
<path class="st2" d="M597.6,195c-10.3,0-9.4,16,0.8,16C608.7,211,607.9,195,597.6,195z"/>
<path class="st2" d="M308.6,249c-10.3,0-9.4,16,0.8,16C319.7,265,318.9,249,308.6,249z"/>
<path class="st2" d="M653.6,248c-10.3,0-9.4,16,0.8,16C664.7,264,663.9,248,653.6,248z"/>
<path class="st2" d="M533.6,253c-10.3,0-9.4,16,0.8,16C544.7,269,543.9,253,533.6,253z"/>
<path class="st2" d="M141.6,175c-10.3,0-9.4,16,0.8,16C152.7,191,151.9,175,141.6,175z"/>
<path class="st2" d="M558.6,183c-10.3,0-9.4,16,0.8,16C569.7,199,568.9,183,558.6,183z"/>
<path class="st2" d="M704.6,277c-10.3,0-9.4,16,0.8,16C715.7,293,714.9,277,704.6,277z"/>
<path class="st2" d="M743.6,131c-10.3,0-9.4,16,0.8,16C754.7,147,753.9,131,743.6,131z"/>
<path class="st2" d="M562.6,108c-10.3,0-9.4,16,0.8,16C573.7,124,572.9,108,562.6,108z"/>
<path class="st2" d="M417.6,156c-10.3,0-9.4,16,0.8,16C428.7,172,427.9,156,417.6,156z"/>
<path class="st2" d="M725.6,125c-10.3,0-9.4,16,0.8,16C736.7,141,735.9,125,725.6,125z"/>
<path class="st2" d="M750.7,241.7c-0.3-0.7-0.7-1.3-1-2c-0.6-1-1.3-1.7-2.3-2.2c-0.8-0.7-1.8-1.1-2.8-1.3c-1-0.3-2-0.2-3,0
	c-1,0.1-2,0.5-2.9,1.1c-1.7,1.2-3.2,3-3.5,5.1c-0.1,0.7-0.1,1.4-0.2,2c0.1,1.4,0.5,2.7,1.2,3.9c0.3,0.7,0.7,1.3,1,2
	c0.6,1,1.3,1.7,2.3,2.2c0.8,0.7,1.8,1.1,2.8,1.3c1,0.3,2,0.2,3,0c1-0.1,2-0.5,2.9-1.1c1.7-1.2,3.2-3,3.5-5.1c0.1-0.7,0.1-1.4,0.2-2
	C751.9,244.2,751.5,242.9,750.7,241.7z"/>
<path class="st2" d="M866.3,272.9c-1.1-0.5-2.3-0.8-3.7-0.8c-10.3,0-9.4,16,0.8,16c1.8,0,3.2-0.5,4.4-1.3
	C867.2,281.8,866.7,277,866.3,272.9z"/>
<path class="st1" d="M528.6,296c-10.3,0-9.4,16,0.8,16C539.7,312,538.9,296,528.6,296z"/>
<path class="st1" d="M709.6,260c-10.3,0-9.4,16,0.8,16C720.7,276,719.9,260,709.6,260z"/>
<path class="st1" d="M453.6,368c-10.3,0-9.4,16,0.8,16C464.7,384,463.9,368,453.6,368z"/>
<path class="st3" d="M346.6,250c-10.3,0-9.4,16,0.8,16C357.7,266,356.9,250,346.6,250z"/>
<path class="st3" d="M71.6,248c-10.3,0-9.4,16,0.8,16C82.7,264,81.9,248,71.6,248z"/>
<path class="st3" d="M358.6,186c-10.3,0-9.4,16,0.8,16C369.7,202,368.9,186,358.6,186z"/>
<path class="st3" d="M294.6,224c-10.3,0-9.4,16,0.8,16C305.7,240,304.9,224,294.6,224z"/>
<path class="st3" d="M230.6,174c-10.3,0-9.4,16,0.8,16C241.7,190,240.9,174,230.6,174z"/>
<path class="st3" d="M577.6,267c-10.3,0-9.4,16,0.8,16C588.7,283,587.9,267,577.6,267z"/>
<path class="st4" d="M655.6,244c-10.3,0-9.4,16,0.8,16C666.7,260,665.9,244,655.6,244z"/>
<path class="st4" d="M377.6,137c-10.3,0-9.4,16,0.8,16C388.7,153,387.9,137,377.6,137z"/>
<path class="st4" d="M135.6,150c-10.3,0-9.4,16,0.8,16C146.7,166,145.9,150,135.6,150z"/>
<path class="st4" d="M338.6,241c-10.3,0-9.4,16,0.8,16C349.7,257,348.9,241,338.6,241z"/>
<path class="st4" d="M589.6,130c-10.3,0-9.4,16,0.8,16C600.7,146,599.9,130,589.6,130z"/>
<path class="st4" d="M256.6,92c-10.3,0-9.4,16,0.8,16C267.7,108,266.9,92,256.6,92z"/>
<path class="st4" d="M554.6,60c-10.3,0-9.4,16,0.8,16C565.7,76,564.9,60,554.6,60z"/>
<path class="st4" d="M316.6,64c-10.3,0-9.4,16,0.8,16C327.7,80,326.9,64,316.6,64z"/>
<path class="st4" d="M187.6,69c-10.3,0-9.4,16,0.8,16C198.7,85,197.9,69,187.6,69z"/>
<path class="st4" d="M577.6,69c-10.3,0-9.4,16,0.8,16C588.7,85,587.9,69,577.6,69z"/>
<path class="st4" d="M455.6,103c-10.3,0-9.4,16,0.8,16C466.7,119,465.9,103,455.6,103z"/>
<path class="st4" d="M627.6,128c-10.3,0-9.4,16,0.8,16C638.7,144,637.9,128,627.6,128z"/>
<path class="st4" d="M446.6,157c-10.3,0-9.4,16,0.8,16C457.7,173,456.9,157,446.6,157z"/>
<path class="st4" d="M695.6,177c-10.3,0-9.4,16,0.8,16C706.7,193,705.9,177,695.6,177z"/>
<path class="st4" d="M471.6,183c-10.3,0-9.4,16,0.8,16C482.7,199,481.9,183,471.6,183z"/>
<path class="st4" d="M335.6,273c-10.3,0-9.4,16,0.8,16C346.7,289,345.9,273,335.6,273z"/>
<path class="st4" d="M618.6,301c-10.3,0-9.4,16,0.8,16C629.7,317,628.9,301,618.6,301z"/>
<path class="st4" d="M364.6,358c-10.3,0-9.4,16,0.8,16C375.7,374,374.9,358,364.6,358z"/>
<path class="st4" d="M581.6,416c-10.3,0-9.4,16,0.8,16C592.7,432,591.9,416,581.6,416z"/>
<path class="st4" d="M395.6,425c-10.3,0-9.4,16,0.8,16C406.7,441,405.9,425,395.6,425z"/>
<path class="st4" d="M522.6,443c-10.3,0-9.4,16,0.8,16C533.7,459,532.9,443,522.6,443z"/>
<path class="st4" d="M208.6,437c-10.3,0-9.4,16,0.8,16C219.7,453,218.9,437,208.6,437z"/>
<path class="st4" d="M157.6,364c-10.3,0-9.4,16,0.8,16C168.7,380,167.9,364,157.6,364z"/>
<path class="st4" d="M160.6,480c-10.3,0-9.4,16,0.8,16C171.7,496,170.9,480,160.6,480z"/>
<path class="st4" d="M541.6,477c-10.3,0-9.4,16,0.8,16C552.7,493,551.9,477,541.6,477z"/>
<path class="st4" d="M742.6,449c-10.3,0-9.4,16,0.8,16C753.7,465,752.9,449,742.6,449z"/>
<path class="st4" d="M450.2,546.6c-0.4-1-1-1.9-1.8-2.6c-0.8-0.8-1.7-1.3-2.8-1.6c-1-0.4-2-0.6-3-0.5c-2.1,0.2-4.2,1-5.5,2.6
	l-1.2,1.8c-0.6,1.3-0.8,2.6-0.8,4v1c0,1.1,0.3,2,0.8,3c0.4,1,1,1.9,1.8,2.6c0.8,0.8,1.7,1.3,2.8,1.6c1,0.4,2,0.6,3,0.5
	c2.1-0.2,4.2-1,5.5-2.6c0.4-0.6,0.8-1.2,1.2-1.8c0.6-1.3,0.8-2.6,0.8-4v-1C451,548.5,450.7,547.5,450.2,546.6z"/>
<path class="st4" d="M213.6,462c-10.3,0-9.4,16,0.8,16C224.7,478,223.9,462,213.6,462z"/>
<path class="st4" d="M118.6,530c-10.3,0-9.4,16,0.8,16C129.7,546,128.9,530,118.6,530z"/>
<path class="st4" d="M69.6,411c-10.3,0-9.4,16,0.8,16C80.7,427,79.9,411,69.6,411z"/>
<path class="st4" d="M171.6,224c-1.1,0-2.1,0.2-3,0.5c-0.9-0.3-1.9-0.5-3-0.5c-10.3,0-9.4,16,0.8,16c1.1,0,2.1-0.2,3-0.5
	c0.9,0.3,1.9,0.5,3,0.5C182.7,240,181.9,224,171.6,224z"/>
<path class="st4" d="M488.6,185c-10.3,0-9.4,16,0.8,16C499.7,201,498.9,185,488.6,185z"/>
<path class="st4" d="M264.6,181c-10.3,0-9.4,16,0.8,16C275.7,197,274.9,181,264.6,181z"/>
<path class="st4" d="M608.6,108c-10.3,0-9.4,16,0.8,16C619.7,124,618.9,108,608.6,108z"/>
<path class="st4" d="M287.6,106c-5.3,0-7.6,4.2-7.3,8.3c-7.8,2.2-6.3,15.7,3.1,15.7c5.3,0,7.6-4.2,7.3-8.3
	C298.5,119.5,297,106,287.6,106z"/>
<path class="st4" d="M529.6,70c-10.3,0-9.4,16,0.8,16C540.7,86,539.9,70,529.6,70z"/>
<path class="st4" d="M261.6,63c-10.3,0-9.4,16,0.8,16C272.7,79,271.9,63,261.6,63z"/>
<path class="st4" d="M397.6,81c-10.3,0-9.4,16,0.8,16C408.7,97,407.9,81,397.6,81z"/>
<path class="st4" d="M240.6,180c-10.3,0-9.4,16,0.8,16C251.7,196,250.9,180,240.6,180z"/>
<path class="st4" d="M192.6,139c-2.2,0-3.9,0.7-5.1,1.9c-1.3-2.2-3.6-3.9-6.9-3.9c-10.3,0-9.4,16,0.8,16c2.2,0,3.9-0.7,5.1-1.9
	c1.3,2.2,3.6,3.9,6.9,3.9C203.7,155,202.9,139,192.6,139z"/>
<path class="st4" d="M107.6,65c-10.3,0-9.4,16,0.8,16C118.7,81,117.9,65,107.6,65z"/>
<path class="st4" d="M44.6,40c-10.3,0-9.4,16,0.8,16C55.7,56,54.9,40,44.6,40z"/>
<path class="st4" d="M27.6,85c-10.3,0-9.4,16,0.8,16C38.7,101,37.9,85,27.6,85z"/>
<path class="st4" d="M87.2,158.6c-0.4-1-1-1.9-1.8-2.6c-0.8-0.8-1.7-1.3-2.8-1.6c-1-0.4-2-0.6-3-0.5c-2.1,0.2-4.2,1-5.5,2.6
	l-1.2,1.8c-0.6,1.3-0.8,2.6-0.8,4v1c0,1.1,0.3,2,0.8,3c0.4,1,1,1.9,1.8,2.6c0.8,0.8,1.7,1.3,2.8,1.6c1,0.4,2,0.6,3,0.5
	c2.1-0.2,4.2-1,5.5-2.6c0.4-0.6,0.8-1.2,1.2-1.8c0.6-1.3,0.8-2.6,0.8-4v-1C88,160.5,87.7,159.5,87.2,158.6z"/>
<path class="st4" d="M119.7,238.7c-1.3-1.7-2.6-3.4-4-5c-1.4-1.7-2.9-3.1-5.1-3.5c-1.9-0.4-4.3,0-5.9,1.1c-1.7,1.2-3.2,3-3.5,5.1
	c-0.3,1.9-0.2,4.3,1.1,5.9c1.3,1.7,2.6,3.4,4,5c1.4,1.7,2.9,3.1,5.1,3.5c1.9,0.4,4.3,0,5.9-1.1c1.7-1.2,3.2-3,3.5-5.1
	C121.1,242.7,120.9,240.4,119.7,238.7z"/>
<path class="st4" d="M244.6,56c-0.6,0-1.1,0.1-1.7,0.2c2.3-4.7-0.3-12.2-7.3-12.2c-10.3,0-9.4,16,0.8,16c0.6,0,1.1-0.1,1.7-0.2
	c-2.3,4.7,0.3,12.2,7.3,12.2C255.7,72,254.9,56,244.6,56z"/>
<path class="st4" d="M114,48.6c-0.2-2.1-1-4.2-2.6-5.5c-0.6-0.4-1.2-0.8-1.8-1.2c-1.3-0.6-2.6-0.8-4-0.8h-1c-1.1,0-2,0.3-3,0.8
	c-1,0.4-1.9,1-2.6,1.8c-0.8,0.8-1.3,1.7-1.6,2.8c-0.4,1-0.6,2-0.5,3c0.2,2.1,1,4.2,2.6,5.5c0.6,0.4,1.2,0.8,1.8,1.2
	c1.3,0.6,2.6,0.8,4,0.8h1c1.1,0,2-0.3,3-0.8c1-0.4,1.9-1,2.6-1.8c0.8-0.8,1.3-1.7,1.6-2.8C113.9,50.6,114.1,49.6,114,48.6z"/>
<path class="st4" d="M535.6,24c-10.3,0-9.4,16,0.8,16C546.7,40,545.9,24,535.6,24z"/>
<path class="st4" d="M646.6,117c-10.3,0-9.4,16,0.8,16C657.7,133,656.9,117,646.6,117z"/>
<path class="st4" d="M773.6,2c-10.3,0-9.4,16,0.8,16C784.7,18,783.9,2,773.6,2z"/>
<path class="st4" d="M790.6,94c-10.3,0-9.4,16,0.8,16C801.7,110,800.9,94,790.6,94z"/>
<path class="st4" d="M803.6,191c-10.3,0-9.4,16,0.8,16C814.7,207,813.9,191,803.6,191z"/>
<path class="st4" d="M719,111.6c-0.1-0.7-0.2-1.3-0.4-2c-0.4-1.4-1.2-2.5-2.3-3.5l-1-1c-0.8-0.8-1.7-1.3-2.8-1.6c-1-0.4-2-0.6-3-0.5
	c-1.1,0-2,0.3-3,0.8c-1,0.4-1.9,1-2.6,1.8c-1.3,1.6-2.2,3.6-2,5.8c0.1,0.7,0.2,1.3,0.4,2c0.4,1.4,1.2,2.5,2.3,3.5
	c0.3,0.3,0.7,0.7,1,1c0.8,0.8,1.7,1.3,2.8,1.6c1,0.4,2,0.6,3,0.5c1.1,0,2-0.3,3-0.8c1-0.4,1.9-1,2.6-1.8
	C718.3,115.8,719.2,113.7,719,111.6z"/>
<path class="st4" d="M645.6,57.6c-0.3-1-0.8-1.9-1.6-2.7c-0.6-0.9-1.5-1.6-2.5-2c-1.9-0.8-4-1.2-6-0.5c-2,0.7-3.7,2.1-4.7,4
	c-0.3,0.7-0.7,1.3-1,2c-0.9,1.8-1.1,4.1-0.5,6c0.3,1,0.8,1.9,1.6,2.7c0.6,0.9,1.5,1.6,2.5,2c1.9,0.8,4,1.2,6,0.5
	c2-0.7,3.7-2.1,4.7-4c0.3-0.7,0.7-1.3,1-2C646.1,61.8,646.2,59.5,645.6,57.6z"/>
<path class="st4" d="M504.6,154c-10.3,0-9.4,16,0.8,16C515.7,170,514.9,154,504.6,154z"/>
<path class="st4" d="M530.6,206c-10.3,0-9.4,16,0.8,16C541.7,222,540.9,206,530.6,206z"/>
<path class="st4" d="M381.6,223c-10.3,0-9.4,16,0.8,16C392.7,239,391.9,223,381.6,223z"/>
<path class="st4" d="M302,240.6c-0.2-2.1-1-4.2-2.6-5.5c-0.6-0.4-1.2-0.8-1.8-1.2c-1.3-0.6-2.6-0.8-4-0.8h-2c-1.1,0-2,0.3-3,0.8
	c-1,0.4-1.9,1-2.6,1.8c-0.8,0.8-1.3,1.7-1.6,2.8c-0.4,1-0.6,2-0.5,3c0.2,2.1,1,4.2,2.6,5.5c0.6,0.4,1.2,0.8,1.8,1.2
	c1.3,0.6,2.6,0.8,4,0.8h2c1.1,0,2-0.3,3-0.8c1-0.4,1.9-1,2.6-1.8c0.8-0.8,1.3-1.7,1.6-2.8C301.9,242.6,302.1,241.6,302,240.6z"/>
<path class="st4" d="M123.6,309c-10.3,0-9.4,16,0.8,16C134.7,325,133.9,309,123.6,309z"/>
<path class="st4" d="M335.6,311c-10.3,0-9.4,16,0.8,16C346.7,327,345.9,311,335.6,311z"/>
<path class="st4" d="M543,314.6c-0.4-4.5-3.9-7.6-8.4-7.6h-5c-4.2,0-8,4.3-7.6,8.4c0.4,4.5,3.9,7.6,8.4,7.6h5
	C539.6,323,543.4,318.7,543,314.6z"/>
<path class="st4" d="M790,294.6c-0.2-2.1-1-4.2-2.6-5.5c-0.6-0.4-1.2-0.8-1.8-1.2c-1.3-0.6-2.6-0.8-4-0.8h-1c-1.1,0-2,0.3-3,0.8
	c-1,0.4-1.9,1-2.6,1.8c-0.8,0.8-1.3,1.7-1.6,2.8c-0.4,1-0.6,2-0.5,3c0.2,2.1,1,4.2,2.6,5.5c0.6,0.4,1.2,0.8,1.8,1.2
	c1.3,0.6,2.6,0.8,4,0.8h1c1.1,0,2-0.3,3-0.8c1-0.4,1.9-1,2.6-1.8c0.8-0.8,1.3-1.7,1.6-2.8C789.9,296.6,790.1,295.6,790,294.6z"/>
<path class="st4" d="M577.6,335c-4.5,0.4-7.6,3.9-7.6,8.4v5c0,4.2,4.3,8,8.4,7.6c4.5-0.4,7.6-3.9,7.6-8.4v-5
	C586,338.4,581.7,334.6,577.6,335z"/>
<path class="st4" d="M635,376.5c-0.1-2-1.1-4.3-2.6-5.5c-1.6-1.3-3.6-2.2-5.8-2c-2.1,0.2-4.1,1-5.5,2.6c-2.9,3.3-3.7,7.6-2.6,11.8
	c0.5,2,2.3,3.8,4,4.7c1.7,0.9,4.2,1.1,6,0.5c3.5-1.3,5.6-4.4,5.5-7.9C634.7,379.4,635,378,635,376.5z"/>
<path class="st4" d="M456.6,372c-10.3,0-9.4,16,0.8,16C467.7,388,466.9,372,456.6,372z"/>
<path class="st4" d="M372.7,416.6c-0.3-1-0.8-1.9-1.6-2.7c-0.6-0.9-1.5-1.6-2.5-2c-1.9-0.8-4-1.2-6-0.5c-2,0.7-3.7,2.1-4.7,4
	c-0.3,0.7-0.7,1.3-1,2c-0.9,1.8-1.1,4.1-0.5,6c0.3,1,0.8,1.9,1.6,2.7c0.6,0.9,1.5,1.6,2.5,2c1.9,0.8,4,1.2,6,0.5
	c2-0.7,3.7-2.1,4.7-4c0.3-0.7,0.7-1.3,1-2C373.2,420.9,373.3,418.5,372.7,416.6z"/>
<path class="st4" d="M772,377.8c-1.1-1.7-3.1-3.2-5.1-3.5c-2-0.3-4.2-0.1-5.9,1.1c-0.5,0.5-1.1,0.9-1.6,1.4c-1,1.1-1.6,2.3-1.9,3.7
	c-0.7,2-1.4,4-2,6c-0.6,1.8,0.1,4.4,1.1,5.9c1.1,1.7,3.1,3.2,5.1,3.5c2,0.3,4.2,0.1,5.9-1.1c0.5-0.5,1.1-0.9,1.6-1.4
	c1-1.1,1.6-2.3,1.9-3.7c0.7-2,1.4-4,2-6C773.7,381.9,772.9,379.3,772,377.8z"/>
<path class="st4" d="M514.6,106c-10.3,0-9.4,16,0.8,16C525.7,122,524.9,106,514.6,106z"/>
<path class="st4" d="M332.6,74c-10.3,0-9.4,16,0.8,16C343.7,90,342.9,74,332.6,74z"/>
<path class="st4" d="M253.7,144.9c-0.9-2.6-2.7-4.8-5.2-6c-1.8-0.9-4.1-1.1-6-0.5c-1,0.3-1.9,0.8-2.7,1.6c-0.9,0.6-1.6,1.5-2,2.5
	c-0.8,1.9-1.2,4-0.5,6c0.2,0.6,0.5,1.2,0.8,1.7c0.1,0.4,0.1,0.8,0.3,1.2c0.3,1,0.8,1.9,1.6,2.7c0.6,0.9,1.5,1.6,2.5,2
	c1.9,0.8,4,1.2,6,0.5c1.9-0.7,4-2.1,4.7-4c0.7-1.7,1-2.9,1-4.7C254.2,146.9,254,145.9,253.7,144.9z"/>
<path class="st0" d="M155.9-6.1c1.1,2.8,3.6,5.1,7.5,5.1c3.9,0,6.2-2.3,7-5.1C165.6-6.1,160.7-6.1,155.9-6.1z"/>
<path class="st0" d="M652.6,36c-10.3,0-9.4,16,0.8,16C663.7,52,662.9,36,652.6,36z"/>
<path class="st0" d="M443.2,79.6c-0.4-1-1-1.9-1.8-2.6c-0.8-0.8-1.7-1.3-2.8-1.6c-1-0.4-2-0.6-3-0.5c-2.1,0.2-4.2,1-5.5,2.6
	l-1.2,1.8c-0.6,1.3-0.8,2.6-0.8,4v2c0,1.1,0.3,2,0.8,3c0.4,1,1,1.9,1.8,2.6c0.8,0.8,1.7,1.3,2.8,1.6c1,0.4,2,0.6,3,0.5
	c2.1-0.2,4.2-1,5.5-2.6c0.4-0.6,0.8-1.2,1.2-1.8c0.6-1.3,0.8-2.6,0.8-4v-2C444,81.5,443.7,80.5,443.2,79.6z"/>
<path class="st0" d="M301.6,130c-10.3,0-9.4,16,0.8,16C312.7,146,311.9,130,301.6,130z"/>
<path class="st0" d="M113.6,128c-10.3,0-9.4,16,0.8,16C124.7,144,123.9,128,113.6,128z"/>
<path class="st0" d="M-6.4,18c-0.4,0-0.7,0-1,0.1c2.3,5.3,4.3,10.6,6.1,15.9c0.9-0.4,1.6-0.9,2.3-1.7c1.3-1.6,2.2-3.6,2-5.8
	c-0.1-0.7-0.2-1.3-0.4-2c-0.4-1.4-1.2-2.5-2.3-3.5l-1-1c-0.8-0.8-1.7-1.3-2.8-1.6C-4.4,18.1-5.4,17.9-6.4,18z"/>
<path class="st0" d="M530,50.6c-0.2-2.1-1-4.2-2.6-5.5c-0.6-0.4-1.2-0.8-1.8-1.2c-1.3-0.6-2.6-0.8-4-0.8h-1c-1.1,0-2,0.3-3,0.8
	c-1,0.4-1.9,1-2.6,1.8c-0.8,0.8-1.3,1.7-1.6,2.8c-0.4,1-0.6,2-0.5,3c0.2,2.1,1,4.2,2.6,5.5c0.6,0.4,1.2,0.8,1.8,1.2
	c1.3,0.6,2.6,0.8,4,0.8h1c1.1,0,2-0.3,3-0.8c1-0.4,1.9-1,2.6-1.8c0.8-0.8,1.3-1.7,1.6-2.8C529.9,52.6,530.1,51.6,530,50.6z"/>
<path class="st0" d="M397.6,34c-10.3,0-9.4,16,0.8,16C408.7,50,407.9,34,397.6,34z"/>
<path class="st0" d="M356.6,54c-10.3,0-9.4,16,0.8,16C367.7,70,366.9,54,356.6,54z"/>
<path class="st0" d="M356.6,100c-10.3,0-9.4,16,0.8,16C367.7,116,366.9,100,356.6,100z"/>
<path class="st0" d="M201.6,109c-10.3,0-9.4,16,0.8,16C212.7,125,211.9,109,201.6,109z"/>
<path class="st0" d="M655.6,133c-10.3,0-9.4,16,0.8,16C666.7,149,665.9,133,655.6,133z"/>
<path class="st0" d="M420.6,120c-10.3,0-9.4,16,0.8,16C431.7,136,430.9,120,420.6,120z"/>
<path class="st1" d="M80.6,46c-10.3,0-9.4,16,0.8,16C91.7,62,90.9,46,80.6,46z"/>
<path class="st1" d="M78.6,107c-10.3,0-9.4,16,0.8,16C89.7,123,88.9,107,78.6,107z"/>
<path class="st1" d="M26.2,49.6c-0.4-1-1-1.9-1.8-2.6c-0.8-0.8-1.7-1.3-2.8-1.6c-1-0.4-2-0.6-3-0.5c-2.1,0.2-4.2,1-5.5,2.6l-1.2,1.8
	c-0.6,1.3-0.8,2.6-0.8,4v2c0,1.1,0.3,2,0.8,3c0.4,1,1,1.9,1.8,2.6c0.8,0.8,1.7,1.3,2.8,1.6c1,0.4,2,0.6,3,0.5c2.1-0.2,4.2-1,5.5-2.6
	c0.4-0.6,0.8-1.2,1.2-1.8c0.6-1.3,0.8-2.6,0.8-4v-2C27,51.5,26.7,50.5,26.2,49.6z"/>
<path class="st1" d="M349.6,118c-10.3,0-9.4,16,0.8,16C360.7,134,359.9,118,349.6,118z"/>
<path class="st1" d="M260.7,87.2c-4.5-0.7-8.3,1.9-9.5,6.2c-0.7,2.6-1.5,5.3-2.2,7.9c-1.1,4,2.1,8.8,6.2,9.5
	c4.5,0.7,8.3-1.9,9.5-6.2c0.7-2.6,1.5-5.3,2.2-7.9C268.1,92.6,264.8,87.8,260.7,87.2z"/>
<path class="st1" d="M288.6,1c-10.3,0-9.4,16,0.8,16C299.7,17,298.9,1,288.6,1z"/>
<path class="st1" d="M161.6,7c-10.3,0-9.4,16,0.8,16C172.7,23,171.9,7,161.6,7z"/>
<path class="st1" d="M205.6,95c-10.3,0-9.4,16,0.8,16C216.7,111,215.9,95,205.6,95z"/>
<path class="st1" d="M295.6,156c-10.3,0-9.4,16,0.8,16C306.7,172,305.9,156,295.6,156z"/>
<path class="st1" d="M151.6,59c-10.3,0-9.4,16,0.8,16C162.7,75,161.9,59,151.6,59z"/>
<path class="st1" d="M533,100.6c-0.2-2.1-1-4.2-2.6-5.5c-0.6-0.4-1.2-0.8-1.8-1.2c-1.3-0.6-2.6-0.8-4-0.8h-1c-1.1,0-2,0.3-3,0.8
	c-1,0.4-1.9,1-2.6,1.8c-0.8,0.8-1.3,1.7-1.6,2.8c-0.4,1-0.6,2-0.5,3c0.2,2.1,1,4.2,2.6,5.5c0.6,0.4,1.2,0.8,1.8,1.2
	c1.3,0.6,2.6,0.8,4,0.8h1c1.1,0,2-0.3,3-0.8c1-0.4,1.9-1,2.6-1.8c0.8-0.8,1.3-1.7,1.6-2.8C532.9,102.6,533.1,101.6,533,100.6z"/>
<path class="st1" d="M418.6,28c-10.3,0-9.4,16,0.8,16C429.7,44,428.9,28,418.6,28z"/>
<path class="st1" d="M258.6,7c-10.3,0-9.4,16,0.8,16C269.7,23,268.9,7,258.6,7z"/>
<path class="st1" d="M529.6,34c-10.3,0-9.4,16,0.8,16C540.7,50,539.9,34,529.6,34z"/>
<path class="st1" d="M363.6,66c-10.3,0-9.4,16,0.8,16C374.7,82,373.9,66,363.6,66z"/>
<path class="st1" d="M554.6,21c-10.3,0-9.4,16,0.8,16C565.7,37,564.9,21,554.6,21z"/>
<path class="st1" d="M392.6,4c-10.3,0-9.4,16,0.8,16C403.7,20,402.9,4,392.6,4z"/>
<path class="st1" d="M572.6-4c-4,0-6.3,2.4-7.1,5.4c-0.3-0.5-0.7-0.9-1.2-1.3l-1-1c-0.8-0.8-1.7-1.3-2.8-1.6c-1-0.4-2-0.6-3-0.5
	c-1.1,0-2,0.3-3,0.8c-1,0.4-1.9,1-2.6,1.8c-1.3,1.6-2.2,3.6-2,5.8c0.1,0.7,0.2,1.3,0.4,2c0.4,1.4,1.2,2.5,2.3,3.5
	c0.3,0.3,0.7,0.7,1,1c0.8,0.8,1.7,1.3,2.8,1.6c1,0.4,2,0.6,3,0.5c1.1,0,2-0.3,3-0.8c1-0.4,1.9-1,2.6-1.8c0.7-0.9,1.3-1.9,1.7-3
	c1.3,2.1,3.6,3.6,6.8,3.6C583.7,12,582.9-4,572.6-4z"/>
<path class="st1" d="M511.6,73c-10.3,0-9.4,16,0.8,16C522.7,89,521.9,73,511.6,73z"/>
<path class="st1" d="M777,67.6c-0.2-2.1-1-4.2-2.6-5.5c-0.6-0.4-1.2-0.8-1.8-1.2c-1.3-0.6-2.6-0.8-4-0.8h-1c-1.1,0-2,0.3-3,0.8
	c-1,0.4-1.9,1-2.6,1.8c-0.8,0.8-1.3,1.7-1.6,2.8c-0.4,1-0.6,2-0.5,3c0.2,2.1,1,4.2,2.6,5.5c0.6,0.4,1.2,0.8,1.8,1.2
	c1.3,0.6,2.6,0.8,4,0.8h1c1.1,0,2-0.3,3-0.8c1-0.4,1.9-1,2.6-1.8c0.8-0.8,1.3-1.7,1.6-2.8C776.9,69.6,777.1,68.6,777,67.6z"/>
<path class="st1" d="M658.6,44c-10.3,0-9.4,16,0.8,16C669.7,60,668.9,44,658.6,44z"/>
<path class="st1" d="M670.6,61c-10.3,0-9.4,16,0.8,16C681.7,77,680.9,61,670.6,61z"/>
<path class="st1" d="M717.2,127.6c-0.4-1-1-1.9-1.8-2.6c-0.8-0.8-1.7-1.3-2.8-1.6c-1-0.4-2-0.6-3-0.5c-2.1,0.2-4.2,1-5.5,2.6
	l-1.2,1.8c-0.6,1.3-0.8,2.6-0.8,4v1c0,1.1,0.3,2,0.8,3c0.4,1,1,1.9,1.8,2.6c0.8,0.8,1.7,1.3,2.8,1.6c1,0.4,2,0.6,3,0.5
	c2.1-0.2,4.2-1,5.5-2.6c0.4-0.6,0.8-1.2,1.2-1.8c0.6-1.3,0.8-2.6,0.8-4v-1C718,129.5,717.7,128.5,717.2,127.6z"/>
<path class="st1" d="M583,132.6c-0.2-2.1-1-4.2-2.6-5.5c-0.6-0.4-1.2-0.8-1.8-1.2c-1.3-0.6-2.6-0.8-4-0.8h-1c-1.1,0-2,0.3-3,0.8
	c-1,0.4-1.9,1-2.6,1.8c-0.8,0.8-1.3,1.7-1.6,2.8c-0.4,1-0.6,2-0.5,3c0.2,2.1,1,4.2,2.6,5.5c0.6,0.4,1.2,0.8,1.8,1.2
	c1.3,0.6,2.6,0.8,4,0.8h1c1.1,0,2-0.3,3-0.8c1-0.4,1.9-1,2.6-1.8c0.8-0.8,1.3-1.7,1.6-2.8C582.9,134.6,583.1,133.6,583,132.6z"/>
<path class="st1" d="M627.6-3c-10.3,0-9.4,16,0.8,16C638.7,13,637.9-3,627.6-3z"/>
<path class="st1" d="M783.8-8.5c1,3,3.6,5.5,7.6,5.5c4.1,0,6.4-2.5,7.1-5.5H783.8z"/>
<path class="st1" d="M414.6-1c-10.3,0-9.4,16,0.8,16C425.7,15,424.9-1,414.6-1z"/>
<path class="st1" d="M602.7,98.7c-0.7-2-2.1-3.8-4-4.7c-1.9-0.8-4-1.1-6-0.5c-1,0.3-2,0.6-3,1c-2,0.6-3.8,2.2-4.7,4
	c-0.9,1.7-1.1,4.2-0.5,6c0.7,2,2.1,3.8,4,4.7c1.9,0.8,4,1.1,6,0.5c1-0.3,2-0.6,3-1c2-0.6,3.8-2.2,4.7-4
	C603.1,103,603.4,100.6,602.7,98.7z"/>
<path class="st1" d="M481.6,66c-10.3,0-9.4,16,0.8,16C492.7,82,491.9,66,481.6,66z"/>
<path class="st1" d="M143.6,143c-10.3,0-9.4,16,0.8,16C154.7,159,153.9,143,143.6,143z"/>
<path class="st1" d="M444.6,75c-10.3,0-9.4,16,0.8,16C455.7,91,454.9,75,444.6,75z"/>
<path class="st2" d="M643.6,39c-10.3,0-9.4,16,0.8,16C654.7,55,653.9,39,643.6,39z"/>
<path class="st2" d="M604.6,150c-10.3,0-9.4,16,0.8,16C615.7,166,614.9,150,604.6,150z"/>
<path class="st2" d="M322.6,78c-10.3,0-9.4,16,0.8,16C333.7,94,332.9,78,322.6,78z"/>
<path class="st2" d="M178.4,42.8c1.3-4.7-1.5-10.8-7.9-10.8c-7.1,0-8.9,7.5-6,12.2c-1.3,4.7,1.5,10.8,7.9,10.8
	C179.5,55,181.3,47.5,178.4,42.8z"/>
<path class="st2" d="M132.6,58c-1.7,0-3.1,0.4-4.2,1.2c-0.6-0.1-1.2-0.2-1.8-0.2c-5.6,0-7.9,4.7-7.2,9c-0.9-3.2-3.5-6-7.8-6
	c-10.3,0-9.4,16,0.8,16c5.6,0,7.9-4.7,7.2-9c0.9,3.2,3.5,6,7.8,6c1.7,0,3.1-0.4,4.2-1.2c0.6,0.1,1.2,0.2,1.8,0.2
	C143.7,74,142.9,58,132.6,58z"/>
<path class="st2" d="M398.6,67c-10.3,0-9.4,16,0.8,16C409.7,83,408.9,67,398.6,67z"/>
<path class="st2" d="M251.6,122c-10.3,0-9.4,16,0.8,16C262.7,138,261.9,122,251.6,122z"/>
<path class="st2" d="M415.6,146c-10.3,0-9.4,16,0.8,16C426.7,162,425.9,146,415.6,146z"/>
<path class="st2" d="M558.6,1c-10.3,0-9.4,16,0.8,16C569.7,17,568.9,1,558.6,1z"/>
<path class="st2" d="M428.6,52c-10.3,0-9.4,16,0.8,16C439.7,68,438.9,52,428.6,52z"/>
<path class="st2" d="M306.4-6.7c-0.6,4.5,2.2,9.7,8.1,9.7c5.9,0,8.2-5.3,7-9.8C316.4-6.8,311.4-6.8,306.4-6.7z"/>
<path class="st2" d="M299.6,35c-10.3,0-9.4,16,0.8,16C310.7,51,309.9,35,299.6,35z"/>
<path class="st2" d="M188.6,89c-10.3,0-9.4,16,0.8,16C199.7,105,198.9,89,188.6,89z"/>
<path class="st2" d="M477.6,16c-10.3,0-9.4,16,0.8,16C488.7,32,487.9,16,477.6,16z"/>
<path class="st2" d="M262.6,46c-10.3,0-9.4,16,0.8,16C273.7,62,272.9,46,262.6,46z"/>
<path class="st2" d="M657.3-8.3c1.3,2.4,3.7,4.3,7.2,4.3c3.5,0,5.7-1.9,6.7-4.3C666.5-8.3,661.9-8.3,657.3-8.3z"/>
<path class="st2" d="M6.3-3.9C4.4-3.6,2.6-3.4,0.7-3.1C0.9-3,1.1-2.9,1.4-2.7c1.8,0.9,4.1,1.1,6,0.5c1-0.3,1.9-0.8,2.7-1.6
	c0.4-0.3,0.8-0.6,1.1-1C9.5-4.5,7.9-4.2,6.3-3.9z"/>
<path class="st2" d="M546.6,16c-10.3,0-9.4,16,0.8,16C557.7,32,556.9,16,546.6,16z"/>
<path class="st2" d="M257.6,70c-10.3,0-9.4,16,0.8,16C268.7,86,267.9,70,257.6,70z"/>
<path class="st2" d="M602.6,69c-10.3,0-9.4,16,0.8,16C613.7,85,612.9,69,602.6,69z"/>
<path class="st2" d="M482.6,74c-10.3,0-9.4,16,0.8,16C493.7,90,492.9,74,482.6,74z"/>
<path class="st2" d="M90.6-4c-10.3,0-9.4,16,0.8,16C101.7,12,100.9-4,90.6-4z"/>
<path class="st2" d="M507.6,4c-10.3,0-9.4,16,0.8,16C518.7,20,517.9,4,507.6,4z"/>
<path class="st2" d="M653.6,98c-10.3,0-9.4,16,0.8,16C664.7,114,663.9,98,653.6,98z"/>
<path class="st2" d="M699.7,62.7c-0.3-0.7-0.7-1.3-1-2c-0.6-1-1.3-1.7-2.3-2.2c-0.8-0.7-1.8-1.1-2.8-1.3c-1-0.3-2-0.2-3,0
	c-1,0.1-2,0.5-2.9,1.1c-1.7,1.2-3.2,3-3.5,5.1c-0.1,0.7-0.1,1.4-0.2,2c0.1,1.4,0.5,2.7,1.2,3.9c0.3,0.7,0.7,1.3,1,2
	c0.6,1,1.3,1.7,2.3,2.2c0.8,0.7,1.8,1.1,2.8,1.3c1,0.3,2,0.2,3,0c1-0.1,2-0.5,2.9-1.1c1.7-1.2,3.2-3,3.5-5.1c0.1-0.7,0.1-1.4,0.2-2
	C700.9,65.2,700.5,63.9,699.7,62.7z"/>
<path class="st2" d="M811.6,93c-10.3,0-9.4,16,0.8,16C822.7,109,821.9,93,811.6,93z"/>
<path class="st1" d="M477.6,117c-10.3,0-9.4,16,0.8,16C488.7,133,487.9,117,477.6,117z"/>
<path class="st1" d="M658.6,81c-10.3,0-9.4,16,0.8,16C669.7,97,668.9,81,658.6,81z"/>
<path class="st3" d="M295.6,71c-10.3,0-9.4,16,0.8,16C306.7,87,305.9,71,295.6,71z"/>
<path class="st3" d="M20.6,69c-10.3,0-9.4,16,0.8,16C31.7,85,30.9,69,20.6,69z"/>
<path class="st3" d="M307.6,7c-10.3,0-9.4,16,0.8,16C318.7,23,317.9,7,307.6,7z"/>
<path class="st3" d="M243.6,45c-10.3,0-9.4,16,0.8,16C254.7,61,253.9,45,243.6,45z"/>
<path class="st3" d="M179.6-5c-10.3,0-9.4,16,0.8,16C190.7,11,189.9-5,179.6-5z"/>
<path class="st3" d="M526.6,88c-10.3,0-9.4,16,0.8,16C537.7,104,536.9,88,526.6,88z"/>
<path class="st4" d="M604.6,65c-10.3,0-9.4,16,0.8,16C615.7,81,614.9,65,604.6,65z"/>
<path class="st4" d="M287.6,62c-10.3,0-9.4,16,0.8,16C298.7,78,297.9,62,287.6,62z"/>
<path class="st4" d="M392.1-7.2c1.2,0.7,2.6,1.2,4.3,1.2c1.7,0,3.2-0.5,4.3-1.2C397.8-7.2,395-7.2,392.1-7.2z"/>
<path class="st4" d="M644.6-2c-10.3,0-9.4,16,0.8,16C655.7,14,654.9-2,644.6-2z"/>
<path class="st4" d="M420.6,4c-10.3,0-9.4,16,0.8,16C431.7,20,430.9,4,420.6,4z"/>
<path class="st4" d="M284.6,94c-10.3,0-9.4,16,0.8,16C295.7,110,294.9,94,284.6,94z"/>
<path class="st4" d="M567.6,122c-10.3,0-9.4,16,0.8,16C578.7,138,577.9,122,567.6,122z"/>
<path class="st4" d="M120.6,45c-1.1,0-2.1,0.2-3,0.5c-0.9-0.3-1.9-0.5-3-0.5c-10.3,0-9.4,16,0.8,16c1.1,0,2.1-0.2,3-0.5
	c0.9,0.3,1.9,0.5,3,0.5C131.7,61,130.9,45,120.6,45z"/>
<path class="st4" d="M437.6,6c-10.3,0-9.4,16,0.8,16C448.7,22,447.9,6,437.6,6z"/>
<path class="st4" d="M213.6,2c-10.3,0-9.4,16,0.8,16C224.7,18,223.9,2,213.6,2z"/>
<path class="st4" d="M189.6,1c-10.3,0-9.4,16,0.8,16C200.7,17,199.9,1,189.6,1z"/>
<path class="st4" d="M68.7,59.7c-1.3-1.7-2.6-3.4-4-5c-1.4-1.7-2.9-3.1-5.1-3.5c-1.9-0.4-4.3,0-5.9,1.1c-1.7,1.2-3.2,3-3.5,5.1
	c-0.3,1.9-0.2,4.3,1.1,5.9c1.3,1.7,2.6,3.4,4,5c1.4,1.7,2.9,3.1,5.1,3.5c1.9,0.4,4.3,0,5.9-1.1c1.7-1.2,3.2-3,3.5-5.1
	C70.1,63.7,69.9,61.4,68.7,59.7z"/>
<path class="st4" d="M752.6,12c-10.3,0-9.4,16,0.8,16C763.7,28,762.9,12,752.6,12z"/>
<path class="st4" d="M479.6,27c-10.3,0-9.4,16,0.8,16C490.7,43,489.9,27,479.6,27z"/>
<path class="st4" d="M330.6,44c-10.3,0-9.4,16,0.8,16C341.7,60,340.9,44,330.6,44z"/>
<path class="st4" d="M251,61.6c-0.2-2.1-1-4.2-2.6-5.5c-0.6-0.4-1.2-0.8-1.8-1.2c-1.3-0.6-2.6-0.8-4-0.8h-2c-1.1,0-2,0.3-3,0.8
	c-1,0.4-1.9,1-2.6,1.8c-0.8,0.8-1.3,1.7-1.6,2.8c-0.4,1-0.6,2-0.5,3c0.2,2.1,1,4.2,2.6,5.5c0.6,0.4,1.2,0.8,1.8,1.2
	c1.3,0.6,2.6,0.8,4,0.8h2c1.1,0,2-0.3,3-0.8c1-0.4,1.9-1,2.6-1.8c0.8-0.8,1.3-1.7,1.6-2.8C250.9,63.6,251.1,62.6,251,61.6z"/>
<path class="st4" d="M72.6,130c-10.3,0-9.4,16,0.8,16C83.7,146,82.9,130,72.6,130z"/>
<path class="st4" d="M284.6,132c-10.3,0-9.4,16,0.8,16C295.7,148,294.9,132,284.6,132z"/>
<path class="st4" d="M492,135.6c-0.4-4.5-3.9-7.6-8.4-7.6h-5c-4.2,0-8,4.3-7.6,8.4c0.4,4.5,3.9,7.6,8.4,7.6h5
	C488.6,144,492.4,139.7,492,135.6z"/>
<path class="st4" d="M739,115.6c-0.2-2.1-1-4.2-2.6-5.5c-0.6-0.4-1.2-0.8-1.8-1.2c-1.3-0.6-2.6-0.8-4-0.8h-1c-1.1,0-2,0.3-3,0.8
	c-1,0.4-1.9,1-2.6,1.8c-0.8,0.8-1.3,1.7-1.6,2.8c-0.4,1-0.6,2-0.5,3c0.2,2.1,1,4.2,2.6,5.5c0.6,0.4,1.2,0.8,1.8,1.2
	c1.3,0.6,2.6,0.8,4,0.8h1c1.1,0,2-0.3,3-0.8c1-0.4,1.9-1,2.6-1.8c0.8-0.8,1.3-1.7,1.6-2.8C738.9,117.6,739.1,116.6,739,115.6z"/>
<path class="st4" d="M526.6,156c-4.5,0.4-7.6,3.9-7.6,8.4v5c0,4.2,4.3,8,8.4,7.6c4.5-0.4,7.6-3.9,7.6-8.4v-5
	C535,159.4,530.7,155.6,526.6,156z"/>
<path class="st0" d="M223.6,29c-10.3,0-9.4,16,0.8,16C234.7,45,233.9,29,223.6,29z"/>
<path class="st0" d="M713.6,82c-10.3,0-9.4,16,0.8,16C724.7,98,723.9,82,713.6,82z"/>
<path class="st0" d="M504.2,125.6c-0.4-1-1-1.9-1.8-2.6c-0.8-0.8-1.7-1.3-2.8-1.6c-1-0.4-2-0.6-3-0.5c-2.1,0.2-4.2,1-5.5,2.6
	l-1.2,1.8c-0.6,1.3-0.8,2.6-0.8,4v2c0,1.1,0.3,2,0.8,3c0.4,1,1,1.9,1.8,2.6c0.8,0.8,1.7,1.3,2.8,1.6c1,0.4,2,0.6,3,0.5
	c2.1-0.2,4.2-1,5.5-2.6c0.4-0.6,0.8-1.2,1.2-1.8c0.6-1.3,0.8-2.6,0.8-4v-2C505,127.5,504.7,126.5,504.2,125.6z"/>
<path class="st0" d="M362.6,176c-10.3,0-9.4,16,0.8,16C373.7,192,372.9,176,362.6,176z"/>
<path class="st0" d="M174.6,174c-10.3,0-9.4,16,0.8,16C185.7,190,184.9,174,174.6,174z"/>
<path class="st0" d="M64,72.6c-0.1-0.7-0.2-1.3-0.4-2c-0.4-1.4-1.2-2.5-2.3-3.5l-1-1c-0.8-0.8-1.7-1.3-2.8-1.6c-1-0.4-2-0.6-3-0.5
	c-1.1,0-2,0.3-3,0.8c-1,0.4-1.9,1-2.6,1.8c-1.3,1.6-2.2,3.6-2,5.8c0.1,0.7,0.2,1.3,0.4,2c0.4,1.4,1.2,2.5,2.3,3.5
	c0.3,0.3,0.7,0.7,1,1c0.8,0.8,1.7,1.3,2.8,1.6c1,0.4,2,0.6,3,0.5c1.1,0,2-0.3,3-0.8c1-0.4,1.9-1,2.6-1.8
	C63.3,76.8,64.2,74.7,64,72.6z"/>
<path class="st0" d="M79.6,15c-10.3,0-9.4,16,0.8,16C90.7,31,89.9,15,79.6,15z"/>
<path class="st0" d="M280.6,15c-10.3,0-9.4,16,0.8,16C291.7,31,290.9,15,280.6,15z"/>
<path class="st0" d="M438.6,5h-16c-4.3,0-7.8,4.3-7.6,8.4c0.2,4.5,4.1,7.6,8.4,7.6h16c4.3,0,7.8-4.3,7.6-8.4
	C446.8,8.1,442.9,5,438.6,5z"/>
<path class="st0" d="M500.6,3c-10.3,0-9.4,16,0.8,16C511.7,19,510.9,3,500.6,3z"/>
<path class="st0" d="M694.6,8c-10.3,0-9.4,16,0.8,16C705.7,24,704.9,8,694.6,8z"/>
<path class="st0" d="M591,96.6c-0.2-2.1-1-4.2-2.6-5.5c-0.6-0.4-1.2-0.8-1.8-1.2c-1.3-0.6-2.6-0.8-4-0.8h-1c-1.1,0-2,0.3-3,0.8
	c-1,0.4-1.9,1-2.6,1.8c-0.8,0.8-1.3,1.7-1.6,2.8c-0.4,1-0.6,2-0.5,3c0.2,2.1,1,4.2,2.6,5.5c0.6,0.4,1.2,0.8,1.8,1.2
	c1.3,0.6,2.6,0.8,4,0.8h1c1.1,0,2-0.3,3-0.8c1-0.4,1.9-1,2.6-1.8c0.8-0.8,1.3-1.7,1.6-2.8C590.9,98.6,591.1,97.6,591,96.6z"/>
<path class="st0" d="M458.6,80c-10.3,0-9.4,16,0.8,16C469.7,96,468.9,80,458.6,80z"/>
<path class="st0" d="M417.6,100c-10.3,0-9.4,16,0.8,16C428.7,116,427.9,100,417.6,100z"/>
<path class="st0" d="M417.6,146c-10.3,0-9.4,16,0.8,16C428.7,162,427.9,146,417.6,146z"/>
<path class="st0" d="M262.6,155c-10.3,0-9.4,16,0.8,16C273.7,171,272.9,155,262.6,155z"/>
<path class="st0" d="M247.6,252c-10.3,0-9.4,16,0.8,16C258.7,268,257.9,252,247.6,252z"/>
<path class="st0" d="M391.6,252c-10.3,0-9.4,16,0.8,16C402.7,268,401.9,252,391.6,252z"/>
<path class="st0" d="M616.6,230c-10.3,0-9.4,16,0.8,16C627.7,246,626.9,230,616.6,230z"/>
<path class="st0" d="M831.2,290.3c-1.3-1.9-3.3-3.4-5.6-3.8c-2-0.3-4.2,0-5.9,1.1c-1,0.6-1.7,1.3-2.2,2.3c-0.7,0.8-1.1,1.8-1.3,2.8
	c-0.2,1-0.2,2,0,3c-0.1,1,0,1.9,0.3,2.9c0.7,2,2.1,3.8,4,4.7c0.7,0.2,1.3,0.5,2,0.7c1.4,0.3,2.7,0.2,4.1-0.2
	c0.4-0.1,0.8-0.3,1.1-0.5c0.4-0.2,0.7-0.3,1.1-0.5c0.4-0.3,1.3-1.1,1.7-1.4c0.5-0.5,0.9-1.2,1.3-1.9c0-0.1,0.1-0.1,0.1-0.2
	c0.2-0.4,0.6-1.6,0.7-2c0-0.1,0-0.1,0-0.2c0.1-0.6,0.2-1.6,0.2-2.2C832.6,293.4,832,291.5,831.2,290.3z"/>
<path class="st0" d="M716.6,179c-10.3,0-9.4,16,0.8,16C727.7,195,726.9,179,716.6,179z"/>
<path class="st0" d="M481.6,166c-10.3,0-9.4,16,0.8,16C492.7,182,491.9,166,481.6,166z"/>
<path class="st0" d="M478.6,266c-10.3,0-9.4,16,0.8,16C489.7,282,488.9,266,478.6,266z"/>
<path class="st0" d="M592.6,288c-10.3,0-9.4,16,0.8,16C603.7,304,602.9,288,592.6,288z"/>
<path class="st1" d="M460.6,16c-10.3,0-9.4,16,0.8,16C471.7,32,470.9,16,460.6,16z"/>
<path class="st1" d="M613.6,17c-10.3,0-9.4,16,0.8,16C624.7,33,623.9,17,613.6,17z"/>
<path class="st1" d="M315.6,13c-10.3,0-9.4,16,0.8,16C326.7,29,325.9,13,315.6,13z"/>
<path class="st1" d="M55.6,23c-10.3,0-9.4,16,0.8,16C66.7,39,65.9,23,55.6,23z"/>
<path class="st1" d="M186.6,21c-10.3,0-9.4,16,0.8,16C197.7,37,196.9,21,186.6,21z"/>
<path class="st1" d="M141.6,92c-10.3,0-9.4,16,0.8,16C152.7,108,151.9,92,141.6,92z"/>
<path class="st1" d="M139.6,153c-10.3,0-9.4,16,0.8,16C150.7,169,149.9,153,139.6,153z"/>
<path class="st1" d="M87.2,95.6c-0.4-1-1-1.9-1.8-2.6c-0.8-0.8-1.7-1.3-2.8-1.6c-1-0.4-2-0.6-3-0.5c-2.1,0.2-4.2,1-5.5,2.6l-1.2,1.8
	c-0.6,1.3-0.8,2.6-0.8,4v2c0,1.1,0.3,2,0.8,3c0.4,1,1,1.9,1.8,2.6c0.8,0.8,1.7,1.3,2.8,1.6c1,0.4,2,0.6,3,0.5c2.1-0.2,4.2-1,5.5-2.6
	c0.4-0.6,0.8-1.2,1.2-1.8c0.6-1.3,0.8-2.6,0.8-4v-2C88,97.5,87.7,96.5,87.2,95.6z"/>
<path class="st1" d="M410.6,164c-10.3,0-9.4,16,0.8,16C421.7,180,420.9,164,410.6,164z"/>
<path class="st1" d="M321.7,133.2c-4.5-0.7-8.3,1.9-9.5,6.2c-0.7,2.6-1.5,5.3-2.2,7.9c-1.1,4,2.1,8.8,6.2,9.5
	c4.5,0.7,8.3-1.9,9.5-6.2c0.7-2.6,1.5-5.3,2.2-7.9C329.1,138.6,325.8,133.8,321.7,133.2z"/>
<path class="st1" d="M349.6,47c-10.3,0-9.4,16,0.8,16C360.7,63,359.9,47,349.6,47z"/>
<path class="st1" d="M222.6,53c-10.3,0-9.4,16,0.8,16C233.7,69,232.9,53,222.6,53z"/>
<path class="st1" d="M266.6,141c-10.3,0-9.4,16,0.8,16C277.7,157,276.9,141,266.6,141z"/>
<path class="st1" d="M356.6,202c-10.3,0-9.4,16,0.8,16C367.7,218,366.9,202,356.6,202z"/>
<path class="st1" d="M212.6,105c-10.3,0-9.4,16,0.8,16C223.7,121,222.9,105,212.6,105z"/>
<path class="st1" d="M268.6,216c-10.3,0-9.4,16,0.8,16C279.7,232,278.9,216,268.6,216z"/>
<path class="st1" d="M119.6,269c-10.3,0-9.4,16,0.8,16C130.7,285,129.9,269,119.6,269z"/>
<path class="st1" d="M57.6,192c-10.3,0-9.4,16,0.8,16C68.7,208,67.9,192,57.6,192z"/>
<path class="st1" d="M80.6,213c-10.3,0-9.4,16,0.8,16C91.7,229,90.9,213,80.6,213z"/>
<path class="st1" d="M47.6,127c-10.3,0-9.4,16,0.8,16C58.7,143,57.9,127,47.6,127z"/>
<path class="st1" d="M84.6,233c-10.3,0-9.4,16,0.8,16C95.7,249,94.9,233,84.6,233z"/>
<path class="st1" d="M281.6,239c-10.3,0-9.4,16,0.8,16C292.7,255,291.9,239,281.6,239z"/>
<path class="st1" d="M557.6,276c-10.3,0-9.4,16,0.8,16C568.7,292,567.9,276,557.6,276z"/>
<path class="st1" d="M594,146.6c-0.2-2.1-1-4.2-2.6-5.5c-0.6-0.4-1.2-0.8-1.8-1.2c-1.3-0.6-2.6-0.8-4-0.8h-1c-1.1,0-2,0.3-3,0.8
	c-1,0.4-1.9,1-2.6,1.8c-0.8,0.8-1.3,1.7-1.6,2.8c-0.4,1-0.6,2-0.5,3c0.2,2.1,1,4.2,2.6,5.5c0.6,0.4,1.2,0.8,1.8,1.2
	c1.3,0.6,2.6,0.8,4,0.8h1c1.1,0,2-0.3,3-0.8c1-0.4,1.9-1,2.6-1.8c0.8-0.8,1.3-1.7,1.6-2.8C593.9,148.6,594.1,147.6,594,146.6z"/>
<path class="st1" d="M479.6,74c-10.3,0-9.4,16,0.8,16C490.7,90,489.9,74,479.6,74z"/>
<path class="st1" d="M319.6,53c-10.3,0-9.4,16,0.8,16C330.7,69,329.9,53,319.6,53z"/>
<path class="st1" d="M590.6,80c-10.3,0-9.4,16,0.8,16C601.7,96,600.9,80,590.6,80z"/>
<path class="st1" d="M424.6,112c-10.3,0-9.4,16,0.8,16C435.7,128,434.9,112,424.6,112z"/>
<path class="st1" d="M615.6,67c-10.3,0-9.4,16,0.8,16C626.7,83,625.9,67,615.6,67z"/>
<path class="st1" d="M453.6,50c-10.3,0-9.4,16,0.8,16C464.7,66,463.9,50,453.6,50z"/>
<path class="st1" d="M633.6,42c-4,0-6.3,2.4-7.1,5.4c-0.3-0.5-0.7-0.9-1.2-1.3l-1-1c-0.8-0.8-1.7-1.3-2.8-1.6c-1-0.4-2-0.6-3-0.5
	c-1.1,0-2,0.3-3,0.8c-1,0.4-1.9,1-2.6,1.8c-1.3,1.6-2.2,3.6-2,5.8c0.1,0.7,0.2,1.3,0.4,2c0.4,1.4,1.2,2.5,2.3,3.5
	c0.3,0.3,0.7,0.7,1,1c0.8,0.8,1.7,1.3,2.8,1.6c1,0.4,2,0.6,3,0.5c1.1,0,2-0.3,3-0.8c1-0.4,1.9-1,2.6-1.8c0.7-0.9,1.3-1.9,1.7-3
	c1.3,2.1,3.6,3.6,6.8,3.6C644.7,58,643.9,42,633.6,42z"/>
<path class="st1" d="M572.6,119c-10.3,0-9.4,16,0.8,16C583.7,135,582.9,119,572.6,119z"/>
<path class="st1" d="M838,113.6c-0.2-2.1-1-4.2-2.6-5.5c-0.6-0.4-1.2-0.8-1.8-1.2c-1.3-0.6-2.6-0.8-4-0.8h-1c-1.1,0-2,0.3-3,0.8
	c-1,0.4-1.9,1-2.6,1.8c-0.8,0.8-1.3,1.7-1.6,2.8c-0.4,1-0.6,2-0.5,3c0.2,2.1,1,4.2,2.6,5.5c0.6,0.4,1.2,0.8,1.8,1.2
	c1.3,0.6,2.6,0.8,4,0.8h1c1.1,0,2-0.3,3-0.8c1-0.4,1.9-1,2.6-1.8c0.8-0.8,1.3-1.7,1.6-2.8C837.9,115.6,838.1,114.6,838,113.6z"/>
<path class="st1" d="M616.6,217c-10.3,0-9.4,16,0.8,16C627.7,233,626.9,217,616.6,217z"/>
<path class="st1" d="M712.6,242c-10.3,0-9.4,16,0.8,16C723.7,258,722.9,242,712.6,242z"/>
<path class="st1" d="M719.6,90c-10.3,0-9.4,16,0.8,16C730.7,106,729.9,90,719.6,90z"/>
<path class="st1" d="M731.6,107c-10.3,0-9.4,16,0.8,16C742.7,123,741.9,107,731.6,107z"/>
<path class="st1" d="M778.2,173.6c-0.4-1-1-1.9-1.8-2.6c-0.8-0.8-1.7-1.3-2.8-1.6c-1-0.4-2-0.6-3-0.5c-2.1,0.2-4.2,1-5.5,2.6
	l-1.2,1.8c-0.6,1.3-0.8,2.6-0.8,4v1c0,1.1,0.3,2,0.8,3c0.4,1,1,1.9,1.8,2.6c0.8,0.8,1.7,1.3,2.8,1.6c1,0.4,2,0.6,3,0.5
	c2.1-0.2,4.2-1,5.5-2.6c0.4-0.6,0.8-1.2,1.2-1.8c0.6-1.3,0.8-2.6,0.8-4v-1C779,175.5,778.7,174.5,778.2,173.6z"/>
<path class="st1" d="M644,178.6c-0.2-2.1-1-4.2-2.6-5.5c-0.6-0.4-1.2-0.8-1.8-1.2c-1.3-0.6-2.6-0.8-4-0.8h-1c-1.1,0-2,0.3-3,0.8
	c-1,0.4-1.9,1-2.6,1.8c-0.8,0.8-1.3,1.7-1.6,2.8c-0.4,1-0.6,2-0.5,3c0.2,2.1,1,4.2,2.6,5.5c0.6,0.4,1.2,0.8,1.8,1.2
	c1.3,0.6,2.6,0.8,4,0.8h1c1.1,0,2-0.3,3-0.8c1-0.4,1.9-1,2.6-1.8c0.8-0.8,1.3-1.7,1.6-2.8C643.9,180.6,644.1,179.6,644,178.6z"/>
<path class="st1" d="M688.6,43c-10.3,0-9.4,16,0.8,16C699.7,59,698.9,43,688.6,43z"/>
<path class="st1" d="M851.6,27c-10.3,0-9.4,16,0.8,16C862.7,43,861.9,27,851.6,27z"/>
<path class="st1" d="M475.6,45c-10.3,0-9.4,16,0.8,16C486.7,61,485.9,45,475.6,45z"/>
<path class="st1" d="M663.7,144.7c-0.7-2-2.1-3.8-4-4.7c-1.9-0.8-4-1.1-6-0.5c-1,0.3-2,0.6-3,1c-2,0.6-3.8,2.2-4.7,4
	c-0.9,1.7-1.1,4.2-0.5,6c0.7,2,2.1,3.8,4,4.7c1.9,0.8,4,1.1,6,0.5c1-0.3,2-0.6,3-1c2-0.6,3.8-2.2,4.7-4
	C664.1,149,664.4,146.6,663.7,144.7z"/>
<path class="st1" d="M499.6,276c-10.3,0-9.4,16,0.8,16C510.7,292,509.9,276,499.6,276z"/>
<path class="st1" d="M542.6,112c-10.3,0-9.4,16,0.8,16C553.7,128,552.9,112,542.6,112z"/>
<path class="st1" d="M422.6,278c-10.3,0-9.4,16,0.8,16C433.7,294,432.9,278,422.6,278z"/>
<path class="st1" d="M479.6,243c-10.3,0-9.4,16,0.8,16C490.7,259,489.9,243,479.6,243z"/>
<path class="st1" d="M204.6,189c-10.3,0-9.4,16,0.8,16C215.7,205,214.9,189,204.6,189z"/>
<path class="st1" d="M505.6,121c-10.3,0-9.4,16,0.8,16C516.7,137,515.9,121,505.6,121z"/>
<path class="st2" d="M704.6,85c-10.3,0-9.4,16,0.8,16C715.7,101,714.9,85,704.6,85z"/>
<path class="st2" d="M665.6,196c-10.3,0-9.4,16,0.8,16C676.7,212,675.9,196,665.6,196z"/>
<path class="st2" d="M383.6,124c-10.3,0-9.4,16,0.8,16C394.7,140,393.9,124,383.6,124z"/>
<path class="st2" d="M239.4,88.8c1.3-4.7-1.5-10.8-7.9-10.8c-7.1,0-8.9,7.5-6,12.2c-1.3,4.7,1.5,10.8,7.9,10.8
	C240.5,101,242.3,93.5,239.4,88.8z"/>
<path class="st2" d="M193.6,104c-1.7,0-3.1,0.4-4.2,1.2c-0.6-0.1-1.2-0.2-1.8-0.2c-5.6,0-7.9,4.7-7.2,9c-0.9-3.2-3.5-6-7.8-6
	c-10.3,0-9.4,16,0.8,16c5.6,0,7.9-4.7,7.2-9c0.9,3.2,3.5,6,7.8,6c1.7,0,3.1-0.4,4.2-1.2c0.6,0.1,1.2,0.2,1.8,0.2
	C204.7,120,203.9,104,193.6,104z"/>
<path class="st2" d="M459.6,113c-10.3,0-9.4,16,0.8,16C470.7,129,469.9,113,459.6,113z"/>
<path class="st2" d="M312.6,168c-10.3,0-9.4,16,0.8,16C323.7,184,322.9,168,312.6,168z"/>
<path class="st2" d="M476.6,192c-10.3,0-9.4,16,0.8,16C487.7,208,486.9,192,476.6,192z"/>
<path class="st2" d="M678.6,209c-10.3,0-9.4,16,0.8,16C689.7,225,688.9,209,678.6,209z"/>
<path class="st2" d="M619.6,47c-10.3,0-9.4,16,0.8,16C630.7,63,629.9,47,619.6,47z"/>
<path class="st2" d="M489.6,98c-10.3,0-9.4,16,0.8,16C500.7,114,499.9,98,489.6,98z"/>
<path class="st2" d="M374.6,33c-10.3,0-9.4,16,0.8,16C385.7,49,384.9,33,374.6,33z"/>
<path class="st2" d="M360.6,81c-10.3,0-9.4,16,0.8,16C371.7,97,370.9,81,360.6,81z"/>
<path class="st2" d="M161.6,4c-10.3,0-9.4,16,0.8,16C172.7,20,171.9,4,161.6,4z"/>
<path class="st2" d="M249.6,135c-10.3,0-9.4,16,0.8,16C260.7,151,259.9,135,249.6,135z"/>
<path class="st2" d="M538.6,62c-10.3,0-9.4,16,0.8,16C549.7,78,548.9,62,538.6,62z"/>
<path class="st2" d="M439.6,3c-10.3,0-9.4,16,0.8,16C450.7,19,449.9,3,439.6,3z"/>
<path class="st2" d="M323.6,92c-10.3,0-9.4,16,0.8,16C334.7,108,333.9,92,323.6,92z"/>
<path class="st2" d="M229.6,259c-10.3,0-9.4,16,0.8,16C240.7,275,239.9,259,229.6,259z"/>
<path class="st2" d="M594.6,288c-10.3,0-9.4,16,0.8,16C605.7,304,604.9,288,594.6,288z"/>
<path class="st2" d="M363.6,290c-10.3,0-9.4,16,0.8,16C374.7,306,373.9,290,363.6,290z"/>
<path class="st2" d="M239.6,284c-10.3,0-9.4,16,0.8,16C250.7,300,249.9,284,239.6,284z"/>
<path class="st2" d="M611.6,9c-10.3,0-9.4,16,0.8,16C622.7,25,621.9,9,611.6,9z"/>
<path class="st2" d="M233.8,29.6c-0.1-1-0.5-2-1.1-2.9c-1.2-1.7-3-3.2-5.1-3.5c-0.7-0.1-1.4-0.1-2-0.2c-1.4,0.1-2.7,0.5-3.9,1.2
	c-0.7,0.3-1.3,0.7-2,1c-1,0.6-1.7,1.3-2.2,2.3c-0.7,0.8-1.1,1.8-1.3,2.8c-0.3,1-0.2,2,0,3c0.1,1,0.5,2,1.1,2.9
	c1.2,1.7,3,3.2,5.1,3.5c0.7,0.1,1.4,0.1,2,0.2c1.4-0.1,2.7-0.5,3.9-1.2c0.7-0.3,1.3-0.7,2-1c1-0.6,1.7-1.3,2.2-2.3
	c0.7-0.8,1.1-1.8,1.3-2.8C234.1,31.6,234.1,30.6,233.8,29.6z"/>
<path class="st2" d="M724.6,26c-10.3,0-9.4,16,0.8,16C735.7,42,734.9,26,724.6,26z"/>
<path class="st2" d="M73.6,33.7c-0.7-2-2.1-3.7-4-4.7c-0.7-0.3-1.3-0.7-2-1c-1.8-0.9-4.1-1.1-6-0.5c-1,0.3-1.9,0.8-2.7,1.6
	c-0.9,0.6-1.6,1.5-2,2.5c-0.8,1.9-1.2,4-0.5,6c0.7,2,2.1,3.7,4,4.7c0.7,0.3,1.3,0.7,2,1c1.8,0.9,4.1,1.1,6,0.5
	c1-0.3,1.9-0.8,2.7-1.6c0.9-0.6,1.6-1.5,2-2.5C73.9,37.8,74.3,35.6,73.6,33.7z"/>
<path class="st2" d="M607.6,62c-10.3,0-9.4,16,0.8,16C618.7,78,617.9,62,607.6,62z"/>
<path class="st2" d="M318.6,116c-10.3,0-9.4,16,0.8,16C329.7,132,328.9,116,318.6,116z"/>
<path class="st2" d="M663.6,115c-10.3,0-9.4,16,0.8,16C674.7,131,673.9,115,663.6,115z"/>
<path class="st2" d="M543.6,120c-10.3,0-9.4,16,0.8,16C554.7,136,553.9,120,543.6,120z"/>
<path class="st2" d="M151.6,42c-10.3,0-9.4,16,0.8,16C162.7,58,161.9,42,151.6,42z"/>
<path class="st2" d="M568.6,50c-10.3,0-9.4,16,0.8,16C579.7,66,578.9,50,568.6,50z"/>
<path class="st2" d="M714.6,144c-10.3,0-9.4,16,0.8,16C725.7,160,724.9,144,714.6,144z"/>
<path class="st2" d="M427.6,23c-10.3,0-9.4,16,0.8,16C438.7,39,437.9,23,427.6,23z"/>
<path class="st2" d="M760.7,108.7c-0.3-0.7-0.7-1.3-1-2c-0.6-1-1.3-1.7-2.3-2.2c-0.8-0.7-1.8-1.1-2.8-1.3c-1-0.3-2-0.2-3,0
	c-1,0.1-2,0.5-2.9,1.1c-1.7,1.2-3.2,3-3.5,5.1c-0.1,0.7-0.1,1.4-0.2,2c0.1,1.4,0.5,2.7,1.2,3.9c0.3,0.7,0.7,1.3,1,2
	c0.6,1,1.3,1.7,2.3,2.2c0.8,0.7,1.8,1.1,2.8,1.3c1,0.3,2,0.2,3,0c1-0.1,2-0.5,2.9-1.1c1.7-1.2,3.2-3,3.5-5.1c0.1-0.7,0.1-1.4,0.2-2
	C761.9,111.2,761.5,109.9,760.7,108.7z"/>
<path class="st2" d="M872.5,154.9c-0.8-5.2-1.5-10.4-2.1-15.6C862.7,141.4,863.9,154.1,872.5,154.9z"/>
<path class="st1" d="M538.6,163c-10.3,0-9.4,16,0.8,16C549.7,179,548.9,163,538.6,163z"/>
<path class="st1" d="M719.6,127c-10.3,0-9.4,16,0.8,16C730.7,143,729.9,127,719.6,127z"/>
<path class="st1" d="M463.6,235c-10.3,0-9.4,16,0.8,16C474.7,251,473.9,235,463.6,235z"/>
<path class="st3" d="M356.6,117c-10.3,0-9.4,16,0.8,16C367.7,133,366.9,117,356.6,117z"/>
<path class="st3" d="M81.6,115c-10.3,0-9.4,16,0.8,16C92.7,131,91.9,115,81.6,115z"/>
<path class="st3" d="M368.6,53c-10.3,0-9.4,16,0.8,16C379.7,69,378.9,53,368.6,53z"/>
<path class="st3" d="M304.6,91c-10.3,0-9.4,16,0.8,16C315.7,107,314.9,91,304.6,91z"/>
<path class="st3" d="M240.6,41c-10.3,0-9.4,16,0.8,16C251.7,57,250.9,41,240.6,41z"/>
<path class="st3" d="M587.6,134c-10.3,0-9.4,16,0.8,16C598.7,150,597.9,134,587.6,134z"/>
<path class="st4" d="M665.6,111c-10.3,0-9.4,16,0.8,16C676.7,127,675.9,111,665.6,111z"/>
<path class="st4" d="M387.6,4c-10.3,0-9.4,16,0.8,16C398.7,20,397.9,4,387.6,4z"/>
<path class="st4" d="M145.6,17c-10.3,0-9.4,16,0.8,16C156.7,33,155.9,17,145.6,17z"/>
<path class="st4" d="M348.6,108c-10.3,0-9.4,16,0.8,16C359.7,124,358.9,108,348.6,108z"/>
<path class="st4" d="M456.6,24c-10.3,0-9.4,16,0.8,16C467.7,40,466.9,24,456.6,24z"/>
<path class="st4" d="M705.6,44c-10.3,0-9.4,16,0.8,16C716.7,60,715.9,44,705.6,44z"/>
<path class="st4" d="M481.6,50c-10.3,0-9.4,16,0.8,16C492.7,66,491.9,50,481.6,50z"/>
<path class="st4" d="M345.6,140c-10.3,0-9.4,16,0.8,16C356.7,156,355.9,140,345.6,140z"/>
<path class="st4" d="M628.6,168c-10.3,0-9.4,16,0.8,16C639.7,184,638.9,168,628.6,168z"/>
<path class="st4" d="M374.6,225c-10.3,0-9.4,16,0.8,16C385.7,241,384.9,225,374.6,225z"/>
<path class="st4" d="M591.6,283c-10.3,0-9.4,16,0.8,16C602.7,299,601.9,283,591.6,283z"/>
<path class="st4" d="M167.6,231c-10.3,0-9.4,16,0.8,16C178.7,247,177.9,231,167.6,231z"/>
<path class="st4" d="M79.6,278c-10.3,0-9.4,16,0.8,16C90.7,294,89.9,278,79.6,278z"/>
<path class="st4" d="M181.6,91c-1.1,0-2.1,0.2-3,0.5c-0.9-0.3-1.9-0.5-3-0.5c-10.3,0-9.4,16,0.8,16c1.1,0,2.1-0.2,3-0.5
	c0.9,0.3,1.9,0.5,3,0.5C192.7,107,191.9,91,181.6,91z"/>
<path class="st4" d="M498.6,52c-10.3,0-9.4,16,0.8,16C509.7,68,508.9,52,498.6,52z"/>
<path class="st4" d="M274.6,48c-10.3,0-9.4,16,0.8,16C285.7,64,284.9,48,274.6,48z"/>
<path class="st4" d="M250.6,47c-10.3,0-9.4,16,0.8,16C261.7,63,260.9,47,250.6,47z"/>
<path class="st4" d="M202.6,6c-2.2,0-3.9,0.7-5.1,1.9c-1.3-2.2-3.6-3.9-6.9-3.9c-10.3,0-9.4,16,0.8,16c2.2,0,3.9-0.7,5.1-1.9
	c1.3,2.2,3.6,3.9,6.9,3.9C213.7,22,212.9,6,202.6,6z"/>
<path class="st4" d="M97.2,25.6c-0.4-1-1-1.9-1.8-2.6c-0.8-0.8-1.7-1.3-2.8-1.6c-1-0.4-2-0.6-3-0.5c-2.1,0.2-4.2,1-5.5,2.6l-1.2,1.8
	c-0.6,1.3-0.8,2.6-0.8,4v1c0,1.1,0.3,2,0.8,3c0.4,1,1,1.9,1.8,2.6c0.8,0.8,1.7,1.3,2.8,1.6c1,0.4,2,0.6,3,0.5c2.1-0.2,4.2-1,5.5-2.6
	c0.4-0.6,0.8-1.2,1.2-1.8c0.6-1.3,0.8-2.6,0.8-4v-1C98,27.5,97.7,26.5,97.2,25.6z"/>
<path class="st4" d="M129.7,105.7c-1.3-1.7-2.6-3.4-4-5c-1.4-1.7-2.9-3.1-5.1-3.5c-1.9-0.4-4.3,0-5.9,1.1c-1.7,1.2-3.2,3-3.5,5.1
	c-0.3,1.9-0.2,4.3,1.1,5.9c1.3,1.7,2.6,3.4,4,5c1.4,1.7,2.9,3.1,5.1,3.5c1.9,0.4,4.3,0,5.9-1.1c1.7-1.2,3.2-3,3.5-5.1
	C131.1,109.7,130.9,107.4,129.7,105.7z"/>
<path class="st4" d="M813.6,58c-10.3,0-9.4,16,0.8,16C824.7,74,823.9,58,813.6,58z"/>
<path class="st4" d="M514.6,21c-10.3,0-9.4,16,0.8,16C525.7,37,524.9,21,514.6,21z"/>
<path class="st4" d="M540.6,73c-10.3,0-9.4,16,0.8,16C551.7,89,550.9,73,540.6,73z"/>
<path class="st4" d="M391.6,90c-10.3,0-9.4,16,0.8,16C402.7,106,401.9,90,391.6,90z"/>
<path class="st4" d="M312,107.6c-0.2-2.1-1-4.2-2.6-5.5c-0.6-0.4-1.2-0.8-1.8-1.2c-1.3-0.6-2.6-0.8-4-0.8h-2c-1.1,0-2,0.3-3,0.8
	c-1,0.4-1.9,1-2.6,1.8c-0.8,0.8-1.3,1.7-1.6,2.8c-0.4,1-0.6,2-0.5,3c0.2,2.1,1,4.2,2.6,5.5c0.6,0.4,1.2,0.8,1.8,1.2
	c1.3,0.6,2.6,0.8,4,0.8h2c1.1,0,2-0.3,3-0.8c1-0.4,1.9-1,2.6-1.8c0.8-0.8,1.3-1.7,1.6-2.8C311.9,109.6,312.1,108.6,312,107.6z"/>
<path class="st4" d="M133.6,176c-10.3,0-9.4,16,0.8,16C144.7,192,143.9,176,133.6,176z"/>
<path class="st4" d="M345.6,178c-10.3,0-9.4,16,0.8,16C356.7,194,355.9,178,345.6,178z"/>
<path class="st4" d="M553,181.6c-0.4-4.5-3.9-7.6-8.4-7.6h-5c-4.2,0-8,4.3-7.6,8.4c0.4,4.5,3.9,7.6,8.4,7.6h5
	C549.6,190,553.4,185.7,553,181.6z"/>
<path class="st4" d="M800,161.6c-0.2-2.1-1-4.2-2.6-5.5c-0.6-0.4-1.2-0.8-1.8-1.2c-1.3-0.6-2.6-0.8-4-0.8h-1c-1.1,0-2,0.3-3,0.8
	c-1,0.4-1.9,1-2.6,1.8c-0.8,0.8-1.3,1.7-1.6,2.8c-0.4,1-0.6,2-0.5,3c0.2,2.1,1,4.2,2.6,5.5c0.6,0.4,1.2,0.8,1.8,1.2
	c1.3,0.6,2.6,0.8,4,0.8h1c1.1,0,2-0.3,3-0.8c1-0.4,1.9-1,2.6-1.8c0.8-0.8,1.3-1.7,1.6-2.8C799.9,163.6,800.1,162.6,800,161.6z"/>
<path class="st4" d="M587.6,202c-4.5,0.4-7.6,3.9-7.6,8.4v5c0,4.2,4.3,8,8.4,7.6c4.5-0.4,7.6-3.9,7.6-8.4v-5
	C596,205.4,591.7,201.6,587.6,202z"/>
<path class="st4" d="M645,243.5c-0.1-2-1.1-4.3-2.6-5.5c-1.6-1.3-3.6-2.2-5.8-2c-2.1,0.2-4.1,1-5.5,2.6c-2.9,3.3-3.7,7.6-2.6,11.8
	c0.5,2,2.3,3.8,4,4.7c1.7,0.9,4.2,1.1,6,0.5c3.5-1.3,5.6-4.4,5.5-7.9C644.7,246.4,645,245,645,243.5z"/>
<path class="st4" d="M466.6,239c-10.3,0-9.4,16,0.8,16C477.7,255,476.9,239,466.6,239z"/>
<path class="st4" d="M382.7,283.6c-0.3-1-0.8-1.9-1.6-2.7c-0.6-0.9-1.5-1.6-2.5-2c-1.9-0.8-4-1.2-6-0.5c-2,0.7-3.7,2.1-4.7,4
	c-0.3,0.7-0.7,1.3-1,2c-0.9,1.8-1.1,4.1-0.5,6c0.3,1,0.8,1.9,1.6,2.7c0.6,0.9,1.5,1.6,2.5,2c1.9,0.8,4,1.2,6,0.5
	c2-0.7,3.7-2.1,4.7-4c0.3-0.7,0.7-1.3,1-2C383.2,287.9,383.3,285.5,382.7,283.6z"/>
<path class="st4" d="M782,244.8c-1.1-1.7-3.1-3.2-5.1-3.5c-2-0.3-4.2-0.1-5.9,1.1c-0.5,0.5-1.1,0.9-1.6,1.4c-1,1.1-1.6,2.3-1.9,3.7
	c-0.7,2-1.4,4-2,6c-0.6,1.8,0.1,4.4,1.1,5.9c1.1,1.7,3.1,3.2,5.1,3.5c2,0.3,4.2,0.1,5.9-1.1c0.5-0.5,1.1-0.9,1.6-1.4
	c1-1.1,1.6-2.3,1.9-3.7c0.7-2,1.4-4,2-6C783.7,248.9,782.9,246.3,782,244.8z"/>
<path class="st0" d="M639.6,121c-10.3,0-9.4,16,0.8,16C650.7,137,649.9,121,639.6,121z"/>
<path class="st0" d="M430.2,164.6c-0.4-1-1-1.9-1.8-2.6c-0.8-0.8-1.7-1.3-2.8-1.6c-1-0.4-2-0.6-3-0.5c-2.1,0.2-4.2,1-5.5,2.6
	l-1.2,1.8c-0.6,1.3-0.8,2.6-0.8,4v2c0,1.1,0.3,2,0.8,3c0.4,1,1,1.9,1.8,2.6c0.8,0.8,1.7,1.3,2.8,1.6c1,0.4,2,0.6,3,0.5
	c2.1-0.2,4.2-1,5.5-2.6c0.4-0.6,0.8-1.2,1.2-1.8c0.6-1.3,0.8-2.6,0.8-4v-2C431,166.5,430.7,165.5,430.2,164.6z"/>
<path class="st0" d="M288.6,215c-10.3,0-9.4,16,0.8,16C299.7,231,298.9,215,288.6,215z"/>
<path class="st0" d="M100.6,213c-10.3,0-9.4,16,0.8,16C111.7,229,110.9,213,100.6,213z"/>
<path class="st0" d="M517,135.6c-0.2-2.1-1-4.2-2.6-5.5c-0.6-0.4-1.2-0.8-1.8-1.2c-1.3-0.6-2.6-0.8-4-0.8h-1c-1.1,0-2,0.3-3,0.8
	c-1,0.4-1.9,1-2.6,1.8c-0.8,0.8-1.3,1.7-1.6,2.8c-0.4,1-0.6,2-0.5,3c0.2,2.1,1,4.2,2.6,5.5c0.6,0.4,1.2,0.8,1.8,1.2
	c1.3,0.6,2.6,0.8,4,0.8h1c1.1,0,2-0.3,3-0.8c1-0.4,1.9-1,2.6-1.8c0.8-0.8,1.3-1.7,1.6-2.8C516.9,137.6,517.1,136.6,517,135.6z"/>
<path class="st0" d="M384.6,119c-10.3,0-9.4,16,0.8,16C395.7,135,394.9,119,384.6,119z"/>
<path class="st0" d="M343.6,139c-10.3,0-9.4,16,0.8,16C354.7,155,353.9,139,343.6,139z"/>
<path class="st0" d="M343.6,185c-10.3,0-9.4,16,0.8,16C354.7,201,353.9,185,343.6,185z"/>
<path class="st0" d="M188.6,194c-10.3,0-9.4,16,0.8,16C199.7,210,198.9,194,188.6,194z"/>
<path class="st0" d="M173.6,291c-10.3,0-9.4,16,0.8,16C184.7,307,183.9,291,173.6,291z"/>
<path class="st0" d="M317.6,291c-10.3,0-9.4,16,0.8,16C328.7,307,327.9,291,317.6,291z"/>
<path class="st0" d="M542.6,269c-10.3,0-9.4,16,0.8,16C553.7,285,552.9,269,542.6,269z"/>
<path class="st0" d="M642.6,218c-10.3,0-9.4,16,0.8,16C653.7,234,652.9,218,642.6,218z"/>
<path class="st0" d="M407.6,205c-10.3,0-9.4,16,0.8,16C418.7,221,417.9,205,407.6,205z"/>
<path class="st0" d="M404.6,305c-10.3,0-9.4,16,0.8,16C415.7,321,414.9,305,404.6,305z"/>
<path class="st1" d="M67.6,131c-10.3,0-9.4,16,0.8,16C78.7,147,77.9,131,67.6,131z"/>
<path class="st1" d="M65.6,192c-10.3,0-9.4,16,0.8,16C76.7,208,75.9,192,65.6,192z"/>
<path class="st1" d="M13.2,134.6c-0.4-1-1-1.9-1.8-2.6c-0.6-0.6-1.3-1-2.1-1.3c-0.1,1.3-0.3,2.5-0.5,3.7c-0.6,4.3-1.2,8.8-1.8,13.4
	c1.9-0.3,3.7-1.1,4.9-2.6c0.4-0.6,0.8-1.2,1.2-1.8c0.6-1.3,0.8-2.6,0.8-4v-2C14,136.5,13.7,135.5,13.2,134.6z"/>
<path class="st1" d="M336.6,203c-10.3,0-9.4,16,0.8,16C347.7,219,346.9,203,336.6,203z"/>
<path class="st1" d="M247.7,172.2c-4.5-0.7-8.3,1.9-9.5,6.2c-0.7,2.6-1.5,5.3-2.2,7.9c-1.1,4,2.1,8.8,6.2,9.5
	c4.5,0.7,8.3-1.9,9.5-6.2c0.7-2.6,1.5-5.3,2.2-7.9C255.1,177.6,251.8,172.8,247.7,172.2z"/>
<path class="st1" d="M148.6,92c-10.3,0-9.4,16,0.8,16C159.7,108,158.9,92,148.6,92z"/>
<path class="st1" d="M192.6,180c-10.3,0-9.4,16,0.8,16C203.7,196,202.9,180,192.6,180z"/>
<path class="st1" d="M282.6,241c-10.3,0-9.4,16,0.8,16C293.7,257,292.9,241,282.6,241z"/>
<path class="st1" d="M138.6,144c-10.3,0-9.4,16,0.8,16C149.7,160,148.9,144,138.6,144z"/>
<path class="st1" d="M194.6,255c-10.3,0-9.4,16,0.8,16C205.7,271,204.9,255,194.6,255z"/>
<path class="st1" d="M45.6,308c-10.3,0-9.4,16,0.8,16C56.7,324,55.9,308,45.6,308z"/>
<path class="st0" d="M464.6,101c-10.3,0-9.4,16,0.8,16C475.7,117,474.9,101,464.6,101z"/>
<path class="st0" d="M276.6,99c-10.3,0-9.4,16,0.8,16C287.7,115,286.9,99,276.6,99z"/>
<path class="st0" d="M349.6,177c-10.3,0-9.4,16,0.8,16C360.7,193,359.9,177,349.6,177z"/>
<path class="st0" d="M493.6,177c-10.3,0-9.4,16,0.8,16C504.7,193,503.9,177,493.6,177z"/>
<path class="st0" d="M718.6,155c-10.3,0-9.4,16,0.8,16C729.7,171,728.9,155,718.6,155z"/>
<path class="st0" d="M818.6,104c-10.3,0-9.4,16,0.8,16C829.7,120,828.9,104,818.6,104z"/>
<path class="st0" d="M580.6,191c-10.3,0-9.4,16,0.8,16C591.7,207,590.9,191,580.6,191z"/>
<path class="st0" d="M694.6,213c-10.3,0-9.4,16,0.8,16C705.7,229,704.9,213,694.6,213z"/>
<path class="st0" d="M515,229.6c-0.2-2.1-1-4.2-2.6-5.5c-1.7-1.4-3.6-2-5.8-2h-4c-2,0-4.2,1.2-5.5,2.6c-1.3,1.5-2.2,3.8-2,5.8
	c0.2,2.1,1,4.2,2.6,5.5c1.7,1.4,3.6,2.1,5.8,2.1h4c2,0,4.2-1.2,5.5-2.6C514.3,233.9,515.2,231.6,515,229.6z"/>
<path class="st0" d="M352.6,225c-10.3,0-9.4,16,0.8,16C363.7,241,362.9,225,352.6,225z"/>
<path class="st0" d="M467.6,305c-10.3,0-9.4,16,0.8,16C478.7,321,477.9,305,467.6,305z"/>
<path class="st0" d="M318,324.6c-0.2-2.1-1-4.2-2.6-5.5c-0.6-0.4-1.2-0.8-1.8-1.2c-1.3-0.6-2.6-0.8-4-0.8h-1c-1.1,0-2,0.3-3,0.8
	c-1,0.4-1.9,1-2.6,1.8c-0.8,0.8-1.3,1.7-1.6,2.8c-0.4,1-0.6,2-0.5,3c0.2,2.1,1,4.2,2.6,5.5c0.6,0.4,1.2,0.8,1.8,1.2
	c1.3,0.6,2.6,0.8,4,0.8h1c1.1,0,2-0.3,3-0.8c1-0.4,1.9-1,2.6-1.8c0.8-0.8,1.3-1.7,1.6-2.8C317.9,326.6,318.1,325.6,318,324.6z"/>
<path class="st1" d="M232.6,261c-10.3,0-9.4,16,0.8,16C243.7,277,242.9,261,232.6,261z"/>
<path class="st1" d="M458.6,127c-10.3,0-9.4,16,0.8,16C469.7,143,468.9,127,458.6,127z"/>
<path class="st1" d="M370.6,141c-10.3,0-9.4,16,0.8,16C381.7,157,380.9,141,370.6,141z"/>
<path class="st1" d="M221.6,194c-10.3,0-9.4,16,0.8,16C232.7,210,231.9,194,221.6,194z"/>
<path class="st1" d="M159.6,117c-10.3,0-9.4,16,0.8,16C170.7,133,169.9,117,159.6,117z"/>
<path class="st1" d="M145.6,220c-10.3,0-9.4,16,0.8,16C156.7,236,155.9,220,145.6,220z"/>
<path class="st1" d="M182.6,138c-10.3,0-9.4,16,0.8,16C193.7,154,192.9,138,182.6,138z"/>
<path class="st1" d="M186.6,158c-10.3,0-9.4,16,0.8,16C197.7,174,196.9,158,186.6,158z"/>
<path class="st1" d="M258,268.6c0-1.1-0.3-2-0.8-3c-0.4-1-1-1.9-1.8-2.6c-1.6-1.3-3.6-2.2-5.8-2c-0.7,0.1-1.3,0.2-2,0.4
	c-1.4,0.4-2.5,1.2-3.5,2.3l-1,1c-0.8,0.8-1.3,1.7-1.6,2.8c-0.4,1-0.6,2-0.5,3c0,1.1,0.3,2,0.8,3c0.4,1,1,1.9,1.8,2.6
	c1.6,1.3,3.6,2.2,5.8,2c0.7-0.1,1.3-0.2,2-0.4c1.4-0.4,2.5-1.2,3.5-2.3c0.3-0.3,0.7-0.7,1-1c0.8-0.8,1.3-1.7,1.6-2.8
	C257.9,270.6,258.1,269.6,258,268.6z"/>
<path class="st1" d="M383.6,164c-10.3,0-9.4,16,0.8,16C394.7,180,393.9,164,383.6,164z"/>
<path class="st1" d="M455.6,283.1c4.4-4.2,2.1-14.1-6-14.1c-10,0-9.5,14.9-0.1,15.9c-4.4,4.2-2.1,14.1,6,14.1
	C465.4,299,464.9,284,455.6,283.1z"/>
<path class="st1" d="M659.6,201c-10.3,0-9.4,16,0.8,16C670.7,217,669.9,201,659.6,201z"/>
<path class="st1" d="M718.6,142c-10.3,0-9.4,16,0.8,16C729.7,158,728.9,142,718.6,142z"/>
<path class="st1" d="M815.6,224c-10.3,0-9.4,16,0.8,16C826.7,240,825.9,224,815.6,224z"/>
<path class="st1" d="M750.6,299.5c-0.6-1.9-2.2-3.9-4-4.7c-1.9-0.8-4-1.2-6-0.5l-1.9,0.9c-1.2,0.8-2.2,1.9-2.8,3.2
	c-0.9,1.3-1.4,3-1.7,4.5c-0.4,2.3-0.2,4.2,0.3,6.5c0.4,1.9,2.4,3.9,4,4.7c1.7,0.9,4.2,1.1,6,0.5c2-0.7,3.8-2.1,4.7-4
	c0.7-1.6,0.9-3,0.7-4.6c0,0,0,0,0,0c0,0.1,0,0.2,0.1,0.3c0-0.1,0-0.2,0-0.4c0.1-0.1,0.1-0.2,0.2-0.3
	C751.1,304,751.1,301.3,750.6,299.5z"/>
<path class="st1" d="M814.6,167c-10.3,0-9.4,16,0.8,16C825.7,183,824.9,167,814.6,167z"/>
<path class="st1" d="M867.6,108.9c0.2,0.2,0.4,0.4,0.6,0.5c0-2.3,0-4.6,0.1-6.9c0.1-2.4,0.2-4.9,0.3-7.3c-0.6,0.4-1.1,0.8-1.6,1.4
	l-1.2,1.8c-0.6,1.3-0.8,2.6-0.8,4v1c0,1.1,0.3,2,0.8,3C866.2,107.4,866.8,108.2,867.6,108.9z"/>
<path class="st1" d="M746,103.6c-0.2-2.1-1-4.2-2.6-5.5c-0.6-0.4-1.2-0.8-1.8-1.2c-1.3-0.6-2.6-0.8-4-0.8h-1c-1.1,0-2,0.3-3,0.8
	c-1,0.4-1.9,1-2.6,1.8c-0.8,0.8-1.3,1.7-1.6,2.8c-0.4,1-0.6,2-0.5,3c0.2,2.1,1,4.2,2.6,5.5c0.6,0.4,1.2,0.8,1.8,1.2
	c1.3,0.6,2.6,0.8,4,0.8h1c1.1,0,2-0.3,3-0.8c1-0.4,1.9-1,2.6-1.8c0.8-0.8,1.3-1.7,1.6-2.8C745.9,105.6,746.1,104.6,746,103.6z"/>
<path class="st1" d="M601.6,201c-10.3,0-9.4,16,0.8,16C612.7,217,611.9,201,601.6,201z"/>
<path class="st1" d="M597.6,358c-10.3,0-9.4,16,0.8,16C608.7,374,607.9,358,597.6,358z"/>
<path class="st1" d="M770.6,239c-10.3,0-9.4,16,0.8,16C781.7,255,780.9,239,770.6,239z"/>
<path class="st1" d="M575.6,313c-10.3,0-9.4,16,0.8,16C586.7,329,585.9,313,575.6,313z"/>
<path class="st1" d="M524.6,203c-10.3,0-9.4,16,0.8,16C535.7,219,534.9,203,524.6,203z"/>
<path class="st1" d="M581.6,168c-10.3,0-9.4,16,0.8,16C592.7,184,591.9,168,581.6,168z"/>
<path class="st1" d="M339.6,318c-10.3,0-9.4,16,0.8,16C350.7,334,349.9,318,339.6,318z"/>
<path class="st1" d="M306.6,114c-10.3,0-9.4,16,0.8,16C317.7,130,316.9,114,306.6,114z"/>
<path class="st2" d="M767.6,121c-10.3,0-9.4,16,0.8,16C778.7,137,777.9,121,767.6,121z"/>
<path class="st2" d="M414.6,93c-10.3,0-9.4,16,0.8,16C425.7,109,424.9,93,414.6,93z"/>
<path class="st2" d="M578.6,117c-10.3,0-9.4,16,0.8,16C589.7,133,588.9,117,578.6,117z"/>
<path class="st2" d="M780.6,134c-10.3,0-9.4,16,0.8,16C791.7,150,790.9,134,780.6,134z"/>
<path class="st2" d="M331.6,184c-10.3,0-9.4,16,0.8,16C342.7,200,341.9,184,331.6,184z"/>
<path class="st2" d="M742.2,316.6c-0.4-1-1-1.9-1.8-2.6c-0.8-0.8-1.7-1.3-2.8-1.6c-1-0.4-2-0.6-3-0.5c-2.1,0.2-4.2,1-5.5,2.6
	l-1.2,1.8c-0.6,1.3-0.8,2.6-0.8,4v1c0,1.1,0.3,2,0.8,3c0.4,1,1,1.9,1.8,2.6c0.8,0.8,1.7,1.3,2.8,1.6c1,0.4,2,0.6,3,0.5
	c2.1-0.2,4.2-1,5.5-2.6c0.4-0.6,0.8-1.2,1.2-1.8c0.6-1.3,0.8-2.6,0.8-4v-1C743,318.5,742.7,317.5,742.2,316.6z"/>
<path class="st2" d="M511.2,288.6c-0.4-1-1-1.9-1.8-2.6c-0.8-0.8-1.7-1.3-2.8-1.6c-1-0.4-2-0.6-3-0.5c-2.1,0.2-4.2,1-5.5,2.6
	l-1.2,1.8c-0.6,1.3-0.8,2.6-0.8,4v1c0,1.1,0.3,2,0.8,3c0.4,1,1,1.9,1.8,2.6c0.8,0.8,1.7,1.3,2.8,1.6c1,0.4,2,0.6,3,0.5
	c2.1-0.2,4.2-1,5.5-2.6c0.4-0.6,0.8-1.2,1.2-1.8c0.6-1.3,0.8-2.6,0.8-4v-1C512,290.5,511.7,289.5,511.2,288.6z"/>
<path class="st2" d="M381.6,329c-10.3,0-9.4,16,0.8,16C392.7,345,391.9,329,381.6,329z"/>
<path class="st2" d="M163.6,326c-10.3,0-9.4,16,0.8,16C174.7,342,173.9,326,163.6,326z"/>
<path class="st2" d="M484.6,281c-10.3,0-9.4,16,0.8,16C495.7,297,494.9,281,484.6,281z"/>
<path class="st2" d="M774.6,248c-10.3,0-9.4,16,0.8,16C785.7,264,784.9,248,774.6,248z"/>
<path class="st2" d="M696.6,213c-10.3,0-9.4,16,0.8,16C707.7,229,706.9,213,696.6,213z"/>
<path class="st2" d="M465.6,215c-10.3,0-9.4,16,0.8,16C476.7,231,475.9,215,465.6,215z"/>
<path class="st2" d="M341.6,209c-10.3,0-9.4,16,0.8,16C352.7,225,351.9,209,341.6,209z"/>
<path class="st1" d="M565.6,160c-10.3,0-9.4,16,0.8,16C576.7,176,575.9,160,565.6,160z"/>
<path class="st4" d="M730.6,93c-10.3,0-9.4,16,0.8,16C741.7,109,740.9,93,730.6,93z"/>
<path class="st4" d="M476.6,150c-10.3,0-9.4,16,0.8,16C487.7,166,486.9,150,476.6,150z"/>
<path class="st4" d="M693.6,208c-10.3,0-9.4,16,0.8,16C704.7,224,703.9,208,693.6,208z"/>
<path class="st4" d="M507.6,217c-10.3,0-9.4,16,0.8,16C518.7,233,517.9,217,507.6,217z"/>
<path class="st4" d="M634.6,235c-10.3,0-9.4,16,0.8,16C645.7,251,644.9,235,634.6,235z"/>
<path class="st4" d="M320.6,229c-10.3,0-9.4,16,0.8,16C331.7,245,330.9,229,320.6,229z"/>
<path class="st4" d="M269.6,156c-10.3,0-9.4,16,0.8,16C280.7,172,279.9,156,269.6,156z"/>
<path class="st4" d="M272.6,272c-10.3,0-9.4,16,0.8,16C283.7,288,282.9,272,272.6,272z"/>
<path class="st4" d="M653.6,269c-10.3,0-9.4,16,0.8,16C664.7,285,663.9,269,653.6,269z"/>
<path class="st4" d="M854.6,241c-10.3,0-9.4,16,0.8,16C865.7,257,864.9,241,854.6,241z"/>
<path class="st4" d="M562.2,338.6c-0.4-1-1-1.9-1.8-2.6c-0.8-0.8-1.7-1.3-2.8-1.6c-1-0.4-2-0.6-3-0.5c-2.1,0.2-4.2,1-5.5,2.6
	l-1.2,1.8c-0.6,1.3-0.8,2.6-0.8,4v1c0,1.1,0.3,2,0.8,3c0.4,1,1,1.9,1.8,2.6c0.8,0.8,1.7,1.3,2.8,1.6c1,0.4,2,0.6,3,0.5
	c2.1-0.2,4.2-1,5.5-2.6c0.4-0.6,0.8-1.2,1.2-1.8c0.6-1.3,0.8-2.6,0.8-4v-1C563,340.5,562.7,339.5,562.2,338.6z"/>
<path class="st4" d="M325.6,254c-10.3,0-9.4,16,0.8,16C336.7,270,335.9,254,325.6,254z"/>
<path class="st4" d="M230.6,322c-10.3,0-9.4,16,0.8,16C241.7,338,240.9,322,230.6,322z"/>
<path class="st4" d="M181.6,203c-10.3,0-9.4,16,0.8,16C192.7,219,191.9,203,181.6,203z"/>
<path class="st4" d="M235.6,101c-10.3,0-9.4,16,0.8,16C246.7,117,245.9,101,235.6,101z"/>
<path class="st4" d="M447.6,103c-10.3,0-9.4,16,0.8,16C458.7,119,457.9,103,447.6,103z"/>
<path class="st4" d="M655,106.6c-0.4-4.5-3.9-7.6-8.4-7.6h-5c-4.2,0-8,4.3-7.6,8.4c0.4,4.5,3.9,7.6,8.4,7.6h5
	C651.6,115,655.4,110.7,655,106.6z"/>
<path class="st4" d="M689.6,127c-4.5,0.4-7.6,3.9-7.6,8.4v5c0,4.2,4.3,8,8.4,7.6c4.5-0.4,7.6-3.9,7.6-8.4v-5
	C698,130.4,693.7,126.6,689.6,127z"/>
<path class="st4" d="M747,168.5c-0.1-2-1.1-4.3-2.6-5.5c-1.6-1.3-3.6-2.2-5.8-2c-2.1,0.2-4.1,1-5.5,2.6c-2.9,3.3-3.7,7.6-2.6,11.8
	c0.5,2,2.3,3.8,4,4.7c1.7,0.9,4.2,1.1,6,0.5c3.5-1.3,5.6-4.4,5.5-7.9C746.7,171.4,747,170,747,168.5z"/>
<path class="st4" d="M568.6,164c-10.3,0-9.4,16,0.8,16C579.7,180,578.9,164,568.6,164z"/>
<path class="st4" d="M484.7,208.6c-0.3-1-0.8-1.9-1.6-2.7c-0.6-0.9-1.5-1.6-2.5-2c-1.9-0.8-4-1.2-6-0.5c-2,0.7-3.7,2.1-4.7,4
	c-0.3,0.7-0.7,1.3-1,2c-0.9,1.8-1.1,4.1-0.5,6c0.3,1,0.8,1.9,1.6,2.7c0.6,0.9,1.5,1.6,2.5,2c1.9,0.8,4,1.2,6,0.5
	c2-0.7,3.7-2.1,4.7-4c0.3-0.7,0.7-1.3,1-2C485.2,212.9,485.3,210.5,484.7,208.6z"/>
<path class="st4" d="M869.9,186c0.4-5.8,0.9-11.6,1.5-17.4c0,0-0.1,0.1-0.1,0.1c-1,1.1-1.6,2.3-1.9,3.7c-0.7,2-1.4,4-2,6
	c-0.6,1.8,0.1,4.4,1.1,5.9C868.8,185,869.3,185.5,869.9,186z"/>
<path class="st0" d="M516.6,97c-10.3,0-9.4,16,0.8,16C527.7,113,526.9,97,516.6,97z"/>
<path class="st1" d="M157.6,100c-10.3,0-9.4,16,0.8,16C168.7,116,167.9,100,157.6,100z"/>
<path class="st1" d="M-11.6,239.5c-0.2,2.3-0.4,4.5-0.6,6.8c4.4-2,5.1-8,2.5-11.9C-10.4,236.1-11,237.8-11.6,239.5z"/>
<path class="st1" d="M6.6,252c-10.3,0-9.4,16,0.8,16C17.7,268,16.9,252,6.6,252z"/>
<path class="st1" d="M10.6,272c-10.3,0-9.4,16,0.8,16C21.7,288,20.9,272,10.6,272z"/>
<path class="st1" d="M207.6,278c-10.3,0-9.4,16,0.8,16C218.7,294,217.9,278,207.6,278z"/>
<path class="st1" d="M520,185.6c-0.2-2.1-1-4.2-2.6-5.5c-0.6-0.4-1.2-0.8-1.8-1.2c-1.3-0.6-2.6-0.8-4-0.8h-1c-1.1,0-2,0.3-3,0.8
	c-1,0.4-1.9,1-2.6,1.8c-0.8,0.8-1.3,1.7-1.6,2.8c-0.4,1-0.6,2-0.5,3c0.2,2.1,1,4.2,2.6,5.5c0.6,0.4,1.2,0.8,1.8,1.2
	c1.3,0.6,2.6,0.8,4,0.8h1c1.1,0,2-0.3,3-0.8c1-0.4,1.9-1,2.6-1.8c0.8-0.8,1.3-1.7,1.6-2.8C519.9,187.6,520.1,186.6,520,185.6z"/>
<path class="st1" d="M405.6,113c-10.3,0-9.4,16,0.8,16C416.7,129,415.9,113,405.6,113z"/>
<path class="st1" d="M245.6,92c-10.3,0-9.4,16,0.8,16C256.7,108,255.9,92,245.6,92z"/>
<path class="st1" d="M516.6,119c-10.3,0-9.4,16,0.8,16C527.7,135,526.9,119,516.6,119z"/>
<path class="st1" d="M350.6,151c-10.3,0-9.4,16,0.8,16C361.7,167,360.9,151,350.6,151z"/>
<path class="st1" d="M541.6,106c-10.3,0-9.4,16,0.8,16C552.7,122,551.9,106,541.6,106z"/>
<path class="st1" d="M379.6,89c-10.3,0-9.4,16,0.8,16C390.7,105,389.9,89,379.6,89z"/>
<path class="st1" d="M498.6,158c-10.3,0-9.4,16,0.8,16C509.7,174,508.9,158,498.6,158z"/>
<path class="st1" d="M764,152.6c-0.2-2.1-1-4.2-2.6-5.5c-0.6-0.4-1.2-0.8-1.8-1.2c-1.3-0.6-2.6-0.8-4-0.8h-1c-1.1,0-2,0.3-3,0.8
	c-1,0.4-1.9,1-2.6,1.8c-0.8,0.8-1.3,1.7-1.6,2.8c-0.4,1-0.6,2-0.5,3c0.2,2.1,1,4.2,2.6,5.5c0.6,0.4,1.2,0.8,1.8,1.2
	c1.3,0.6,2.6,0.8,4,0.8h1c1.1,0,2-0.3,3-0.8c1-0.4,1.9-1,2.6-1.8c0.8-0.8,1.3-1.7,1.6-2.8C763.9,154.6,764.1,153.6,764,152.6z"/>
<path class="st1" d="M542.6,256c-10.3,0-9.4,16,0.8,16C553.7,272,552.9,256,542.6,256z"/>
<path class="st1" d="M638.6,281c-10.3,0-9.4,16,0.8,16C649.7,297,648.9,281,638.6,281z"/>
<path class="st1" d="M645.6,129c-10.3,0-9.4,16,0.8,16C656.7,145,655.9,129,645.6,129z"/>
<path class="st1" d="M657.6,146c-10.3,0-9.4,16,0.8,16C668.7,162,667.9,146,657.6,146z"/>
<path class="st1" d="M704.2,212.6c-0.4-1-1-1.9-1.8-2.6c-0.8-0.8-1.7-1.3-2.8-1.6c-1-0.4-2-0.6-3-0.5c-2.1,0.2-4.2,1-5.5,2.6
	l-1.2,1.8c-0.6,1.3-0.8,2.6-0.8,4v1c0,1.1,0.3,2,0.8,3c0.4,1,1,1.9,1.8,2.6c0.8,0.8,1.7,1.3,2.8,1.6c1,0.4,2,0.6,3,0.5
	c2.1-0.2,4.2-1,5.5-2.6c0.4-0.6,0.8-1.2,1.2-1.8c0.6-1.3,0.8-2.6,0.8-4v-1C705,214.5,704.7,213.5,704.2,212.6z"/>
<path class="st1" d="M570,217.6c-0.2-2.1-1-4.2-2.6-5.5c-0.6-0.4-1.2-0.8-1.8-1.2c-1.3-0.6-2.6-0.8-4-0.8h-1c-1.1,0-2,0.3-3,0.8
	c-1,0.4-1.9,1-2.6,1.8c-0.8,0.8-1.3,1.7-1.6,2.8c-0.4,1-0.6,2-0.5,3c0.2,2.1,1,4.2,2.6,5.5c0.6,0.4,1.2,0.8,1.8,1.2
	c1.3,0.6,2.6,0.8,4,0.8h1c1.1,0,2-0.3,3-0.8c1-0.4,1.9-1,2.6-1.8c0.8-0.8,1.3-1.7,1.6-2.8C569.9,219.6,570.1,218.6,570,217.6z"/>
<path class="st1" d="M589.7,183.7c-0.7-2-2.1-3.8-4-4.7c-1.9-0.8-4-1.1-6-0.5c-1,0.3-2,0.6-3,1c-2,0.6-3.8,2.2-4.7,4
	c-0.9,1.7-1.1,4.2-0.5,6c0.7,2,2.1,3.8,4,4.7c1.9,0.8,4,1.1,6,0.5c1-0.3,2-0.6,3-1c2-0.6,3.8-2.2,4.7-4
	C590.1,188,590.4,185.6,589.7,183.7z"/>
<path class="st1" d="M468.6,151c-10.3,0-9.4,16,0.8,16C479.7,167,478.9,151,468.6,151z"/>
<path class="st1" d="M405.6,282c-10.3,0-9.4,16,0.8,16C416.7,298,415.9,282,405.6,282z"/>
<path class="st1" d="M130.6,228c-10.3,0-9.4,16,0.8,16C141.7,244,140.9,228,130.6,228z"/>
<path class="st1" d="M431.6,160c-10.3,0-9.4,16,0.8,16C442.7,176,441.9,160,431.6,160z"/>
<path class="st2" d="M630.6,124c-10.3,0-9.4,16,0.8,16C641.7,140,640.9,124,630.6,124z"/>
<path class="st2" d="M591.6,235c-10.3,0-9.4,16,0.8,16C602.7,251,601.9,235,591.6,235z"/>
<path class="st2" d="M309.6,163c-10.3,0-9.4,16,0.8,16C320.7,179,319.9,163,309.6,163z"/>
<path class="st2" d="M165.4,127.8c1.3-4.7-1.5-10.8-7.9-10.8c-7.1,0-8.9,7.5-6,12.2c-1.3,4.7,1.5,10.8,7.9,10.8
	C166.5,140,168.3,132.5,165.4,127.8z"/>
<path class="st2" d="M119.6,143c-1.7,0-3.1,0.4-4.2,1.2c-0.6-0.1-1.2-0.2-1.8-0.2c-5.6,0-7.9,4.7-7.2,9c-0.9-3.2-3.5-6-7.8-6
	c-10.3,0-9.4,16,0.8,16c5.6,0,7.9-4.7,7.2-9c0.9,3.2,3.5,6,7.8,6c1.7,0,3.1-0.4,4.2-1.2c0.6,0.1,1.2,0.2,1.8,0.2
	C130.7,159,129.9,143,119.6,143z"/>
<path class="st2" d="M385.6,152c-10.3,0-9.4,16,0.8,16C396.7,168,395.9,152,385.6,152z"/>
<path class="st2" d="M238.6,207c-10.3,0-9.4,16,0.8,16C249.7,223,248.9,207,238.6,207z"/>
<path class="st2" d="M402.6,231c-10.3,0-9.4,16,0.8,16C413.7,247,412.9,231,402.6,231z"/>
<path class="st2" d="M604.6,248c-10.3,0-9.4,16,0.8,16C615.7,264,614.9,248,604.6,248z"/>
<path class="st2" d="M415.6,137c-10.3,0-9.4,16,0.8,16C426.7,153,425.9,137,415.6,137z"/>
<path class="st2" d="M286.6,120c-10.3,0-9.4,16,0.8,16C297.7,136,296.9,120,286.6,120z"/>
<path class="st2" d="M175.6,174c-10.3,0-9.4,16,0.8,16C186.7,190,185.9,174,175.6,174z"/>
<path class="st2" d="M464.6,101c-10.3,0-9.4,16,0.8,16C475.7,117,474.9,101,464.6,101z"/>
<path class="st2" d="M249.6,131c-10.3,0-9.4,16,0.8,16C260.7,147,259.9,131,249.6,131z"/>
<path class="st2" d="M155.6,298c-10.3,0-9.4,16,0.8,16C166.7,314,165.9,298,155.6,298z"/>
<path class="st2" d="M533.6,101c-10.3,0-9.4,16,0.8,16C544.7,117,543.9,101,533.6,101z"/>
<path class="st2" d="M244.6,155c-10.3,0-9.4,16,0.8,16C255.7,171,254.9,155,244.6,155z"/>
<path class="st2" d="M589.6,154c-10.3,0-9.4,16,0.8,16C600.7,170,599.9,154,589.6,154z"/>
<path class="st2" d="M469.6,159c-10.3,0-9.4,16,0.8,16C480.7,175,479.9,159,469.6,159z"/>
<path class="st2" d="M494.6,89c-10.3,0-9.4,16,0.8,16C505.7,105,504.9,89,494.6,89z"/>
<path class="st2" d="M640.6,183c-10.3,0-9.4,16,0.8,16C651.7,199,650.9,183,640.6,183z"/>
<path class="st2" d="M686.7,147.7c-0.3-0.7-0.7-1.3-1-2c-0.6-1-1.3-1.7-2.3-2.2c-0.8-0.7-1.8-1.1-2.8-1.3c-1-0.3-2-0.2-3,0
	c-1,0.1-2,0.5-2.9,1.1c-1.7,1.2-3.2,3-3.5,5.1c-0.1,0.7-0.1,1.4-0.2,2c0.1,1.4,0.5,2.7,1.2,3.9c0.3,0.7,0.7,1.3,1,2
	c0.6,1,1.3,1.7,2.3,2.2c0.8,0.7,1.8,1.1,2.8,1.3c1,0.3,2,0.2,3,0c1-0.1,2-0.5,2.9-1.1c1.7-1.2,3.2-3,3.5-5.1c0.1-0.7,0.1-1.4,0.2-2
	C687.9,150.2,687.5,148.9,686.7,147.7z"/>
<path class="st2" d="M798.6,178c-10.3,0-9.4,16,0.8,16C809.7,194,808.9,178,798.6,178z"/>
<path class="st1" d="M464.6,202c-10.3,0-9.4,16,0.8,16C475.7,218,474.9,202,464.6,202z"/>
<path class="st1" d="M645.6,166c-10.3,0-9.4,16,0.8,16C656.7,182,655.9,166,645.6,166z"/>
<path class="st1" d="M389.6,274c-10.3,0-9.4,16,0.8,16C400.7,290,399.9,274,389.6,274z"/>
<path class="st3" d="M282.6,156c-10.3,0-9.4,16,0.8,16C293.7,172,292.9,156,282.6,156z"/>
<path class="st3" d="M7.6,154c-0.5,0-0.9,0-1.4,0.1c-0.7,4.9-1.3,9.8-2,14.7c1.2,0.7,2.6,1.1,4.3,1.1C18.7,170,17.9,154,7.6,154z"/>
<path class="st3" d="M294.6,92c-10.3,0-9.4,16,0.8,16C305.7,108,304.9,92,294.6,92z"/>
<path class="st3" d="M230.6,130c-10.3,0-9.4,16,0.8,16C241.7,146,240.9,130,230.6,130z"/>
<path class="st3" d="M513.6,173c-10.3,0-9.4,16,0.8,16C524.7,189,523.9,173,513.6,173z"/>
<path class="st4" d="M591.6,150c-10.3,0-9.4,16,0.8,16C602.7,166,601.9,150,591.6,150z"/>
<path class="st4" d="M274.6,147c-10.3,0-9.4,16,0.8,16C285.7,163,284.9,147,274.6,147z"/>
<path class="st4" d="M407.6,89c-10.3,0-9.4,16,0.8,16C418.7,105,417.9,89,407.6,89z"/>
<path class="st4" d="M271.6,179c-10.3,0-9.4,16,0.8,16C282.7,195,281.9,179,271.6,179z"/>
<path class="st4" d="M554.6,207c-10.3,0-9.4,16,0.8,16C565.7,223,564.9,207,554.6,207z"/>
<path class="st4" d="M300.6,264c-10.3,0-9.4,16,0.8,16C311.7,280,310.9,264,300.6,264z"/>
<path class="st4" d="M93.6,270c-10.3,0-9.4,16,0.8,16C104.7,286,103.9,270,93.6,270z"/>
<path class="st4" d="M107.6,130c-1.1,0-2.1,0.2-3,0.5c-0.9-0.3-1.9-0.5-3-0.5c-10.3,0-9.4,16,0.8,16c1.1,0,2.1-0.2,3-0.5
	c0.9,0.3,1.9,0.5,3,0.5C118.7,146,117.9,130,107.6,130z"/>
<path class="st4" d="M424.6,91c-10.3,0-9.4,16,0.8,16C435.7,107,434.9,91,424.6,91z"/>
<path class="st4" d="M55.7,144.7c-1.3-1.7-2.6-3.4-4-5c-1.4-1.7-2.9-3.1-5.1-3.5c-1.9-0.4-4.3,0-5.9,1.1c-1.7,1.2-3.2,3-3.5,5.1
	c-0.3,1.9-0.2,4.3,1.1,5.9c1.3,1.7,2.6,3.4,4,5c1.4,1.7,2.9,3.1,5.1,3.5c1.9,0.4,4.3,0,5.9-1.1c1.7-1.2,3.2-3,3.5-5.1
	C57.1,148.7,56.9,146.4,55.7,144.7z"/>
<path class="st4" d="M739.6,97c-10.3,0-9.4,16,0.8,16C750.7,113,749.9,97,739.6,97z"/>
<path class="st4" d="M466.6,112c-10.3,0-9.4,16,0.8,16C477.7,128,476.9,112,466.6,112z"/>
<path class="st4" d="M317.6,129c-10.3,0-9.4,16,0.8,16C328.7,145,327.9,129,317.6,129z"/>
<path class="st4" d="M238,146.6c-0.2-2.1-1-4.2-2.6-5.5c-0.6-0.4-1.2-0.8-1.8-1.2c-1.3-0.6-2.6-0.8-4-0.8h-2c-1.1,0-2,0.3-3,0.8
	c-1,0.4-1.9,1-2.6,1.8c-0.8,0.8-1.3,1.7-1.6,2.8c-0.4,1-0.6,2-0.5,3c0.2,2.1,1,4.2,2.6,5.5c0.6,0.4,1.2,0.8,1.8,1.2
	c1.3,0.6,2.6,0.8,4,0.8h2c1.1,0,2-0.3,3-0.8c1-0.4,1.9-1,2.6-1.8c0.8-0.8,1.3-1.7,1.6-2.8C237.9,148.6,238.1,147.6,238,146.6z"/>
<path class="st4" d="M59.6,215c-10.3,0-9.4,16,0.8,16C70.7,231,69.9,215,59.6,215z"/>
<path class="st4" d="M271.6,217c-10.3,0-9.4,16,0.8,16C282.7,233,281.9,217,271.6,217z"/>
<path class="st4" d="M479,220.6c-0.4-4.5-3.9-7.6-8.4-7.6h-5c-4.2,0-8,4.3-7.6,8.4c0.4,4.5,3.9,7.6,8.4,7.6h5
	C475.6,229,479.4,224.7,479,220.6z"/>
<path class="st4" d="M726,200.6c-0.2-2.1-1-4.2-2.6-5.5c-0.6-0.4-1.2-0.8-1.8-1.2c-1.3-0.6-2.6-0.8-4-0.8h-1c-1.1,0-2,0.3-3,0.8
	c-1,0.4-1.9,1-2.6,1.8c-0.8,0.8-1.3,1.7-1.6,2.8c-0.4,1-0.6,2-0.5,3c0.2,2.1,1,4.2,2.6,5.5c0.6,0.4,1.2,0.8,1.8,1.2
	c1.3,0.6,2.6,0.8,4,0.8h1c1.1,0,2-0.3,3-0.8c1-0.4,1.9-1,2.6-1.8c0.8-0.8,1.3-1.7,1.6-2.8C725.9,202.6,726.1,201.6,726,200.6z"/>
<path class="st4" d="M513.6,241c-4.5,0.4-7.6,3.9-7.6,8.4v5c0,4.2,4.3,8,8.4,7.6c4.5-0.4,7.6-3.9,7.6-8.4v-5
	C522,244.4,517.7,240.6,513.6,241z"/>
<path class="st4" d="M571,282.5c-0.1-2-1.1-4.3-2.6-5.5c-1.6-1.3-3.6-2.2-5.8-2c-2.1,0.2-4.1,1-5.5,2.6c-2.9,3.3-3.7,7.6-2.6,11.8
	c0.5,2,2.3,3.8,4,4.7c1.7,0.9,4.2,1.1,6,0.5c3.5-1.3,5.6-4.4,5.5-7.9C570.7,285.4,571,284,571,282.5z"/>
<path class="st4" d="M392.6,278c-10.3,0-9.4,16,0.8,16C403.7,294,402.9,278,392.6,278z"/>
<path class="st4" d="M708,283.8c-1.1-1.7-3.1-3.2-5.1-3.5c-2-0.3-4.2-0.1-5.9,1.1c-0.5,0.5-1.1,0.9-1.6,1.4c-1,1.1-1.6,2.3-1.9,3.7
	c-0.7,2-1.4,4-2,6c-0.6,1.8,0.1,4.4,1.1,5.9c1.1,1.7,3.1,3.2,5.1,3.5c2,0.3,4.2,0.1,5.9-1.1c0.5-0.5,1.1-0.9,1.6-1.4
	c1-1.1,1.6-2.3,1.9-3.7c0.7-2,1.4-4,2-6C709.7,287.9,708.9,285.3,708,283.8z"/>
<path class="st0" d="M183.6,158c-10.3,0-9.4,16,0.8,16C194.7,174,193.9,158,183.6,158z"/>
<path class="st0" d="M327.6,158c-10.3,0-9.4,16,0.8,16C338.7,174,337.9,158,327.6,158z"/>
<path class="st0" d="M552.6,136c-10.3,0-9.4,16,0.8,16C563.7,152,562.9,136,552.6,136z"/>
<path class="st0" d="M767.2,196.3c-1.3-1.9-3.3-3.4-5.6-3.8c-2-0.3-4.2,0-5.9,1.1c-1,0.6-1.7,1.3-2.2,2.3c-0.7,0.8-1.1,1.8-1.3,2.8
	c-0.2,1-0.2,2,0,3c-0.1,1,0,1.9,0.3,2.9c0.7,2,2.1,3.8,4,4.7c0.7,0.2,1.3,0.5,2,0.7c1.4,0.3,2.7,0.2,4.1-0.2
	c0.4-0.1,0.8-0.3,1.1-0.5c0.4-0.2,0.7-0.3,1.1-0.5c0.4-0.3,1.3-1.1,1.7-1.4c0.5-0.5,0.9-1.2,1.3-1.9c0-0.1,0.1-0.1,0.1-0.2
	c0.2-0.4,0.6-1.6,0.7-2c0-0.1,0-0.1,0-0.2c0.1-0.6,0.2-1.6,0.2-2.2C768.6,199.4,768,197.5,767.2,196.3z"/>
<path class="st0" d="M414.6,172c-10.3,0-9.4,16,0.8,16C425.7,188,424.9,172,414.6,172z"/>
<path class="st0" d="M528.6,194c-10.3,0-9.4,16,0.8,16C539.7,210,538.9,194,528.6,194z"/>
<path class="st1" d="M292.6,108c-10.3,0-9.4,16,0.8,16C303.7,124,302.9,108,292.6,108z"/>
<path class="st1" d="M204.6,122c-10.3,0-9.4,16,0.8,16C215.7,138,214.9,122,204.6,122z"/>
<path class="st1" d="M55.6,175c-10.3,0-9.4,16,0.8,16C66.7,191,65.9,175,55.6,175z"/>
<path class="st1" d="M16.6,119c-3.8,0-6.1,2.2-6.9,5c0,1.5-0.1,3-0.2,4.4c0.7,3.5,3.4,6.6,8,6.6C27.7,135,26.9,119,16.6,119z"/>
<path class="st1" d="M20.6,139c-10.3,0-9.4,16,0.8,16C31.7,155,30.9,139,20.6,139z"/>
<path class="st1" d="M217.6,145c-10.3,0-9.4,16,0.8,16C228.7,161,227.9,145,217.6,145z"/>
<path class="st1" d="M493.6,182c-10.3,0-9.4,16,0.8,16C504.7,198,503.9,182,493.6,182z"/>
<path class="st1" d="M552.6,123c-10.3,0-9.4,16,0.8,16C563.7,139,562.9,123,552.6,123z"/>
<path class="st1" d="M648.6,148c-10.3,0-9.4,16,0.8,16C659.7,164,658.9,148,648.6,148z"/>
<path class="st1" d="M435.6,182c-10.3,0-9.4,16,0.8,16C446.7,198,445.9,182,435.6,182z"/>
<path class="st1" d="M358.6,184c-10.3,0-9.4,16,0.8,16C369.7,200,368.9,184,358.6,184z"/>
<path class="st1" d="M415.6,149c-10.3,0-9.4,16,0.8,16C426.7,165,425.9,149,415.6,149z"/>
<path class="st1" d="M140.6,95c-10.3,0-9.4,16,0.8,16C151.7,111,150.9,95,140.6,95z"/>
<path class="st2" d="M601.6,102c-10.3,0-9.4,16,0.8,16C612.7,118,611.9,102,601.6,102z"/>
<path class="st2" d="M412.6,98c-10.3,0-9.4,16,0.8,16C423.7,114,422.9,98,412.6,98z"/>
<path class="st2" d="M614.6,115c-10.3,0-9.4,16,0.8,16C625.7,131,624.9,115,614.6,115z"/>
<path class="st2" d="M165.6,165c-10.3,0-9.4,16,0.8,16C176.7,181,175.9,165,165.6,165z"/>
<path class="st2" d="M530.6,194c-10.3,0-9.4,16,0.8,16C541.7,210,540.9,194,530.6,194z"/>
<path class="st2" d="M299.6,196c-10.3,0-9.4,16,0.8,16C310.7,212,309.9,196,299.6,196z"/>
<path class="st2" d="M175.6,190c-10.3,0-9.4,16,0.8,16C186.7,206,185.9,190,175.6,190z"/>
<path class="st1" d="M399.6,141c-10.3,0-9.4,16,0.8,16C410.7,157,409.9,141,399.6,141z"/>
<path class="st4" d="M310.6,131c-10.3,0-9.4,16,0.8,16C321.7,147,320.9,131,310.6,131z"/>
<path class="st4" d="M527.6,189c-10.3,0-9.4,16,0.8,16C538.7,205,537.9,189,527.6,189z"/>
<path class="st4" d="M103.6,137c-10.3,0-9.4,16,0.8,16C114.7,153,113.9,137,103.6,137z"/>
<path class="st4" d="M15.6,184c-10.3,0-9.4,16,0.8,16C26.7,200,25.9,184,15.6,184z"/>
<path class="st4" d="M523.6,108c-4.5,0.4-7.6,3.9-7.6,8.4v5c0,4.2,4.3,8,8.4,7.6c4.5-0.4,7.6-3.9,7.6-8.4v-5
	C532,111.4,527.7,107.6,523.6,108z"/>
<path class="st4" d="M581,149.5c-0.1-2-1.1-4.3-2.6-5.5c-1.6-1.3-3.6-2.2-5.8-2c-2.1,0.2-4.1,1-5.5,2.6c-2.9,3.3-3.7,7.6-2.6,11.8
	c0.5,2,2.3,3.8,4,4.7c1.7,0.9,4.2,1.1,6,0.5c3.5-1.3,5.6-4.4,5.5-7.9C580.7,152.4,581,151,581,149.5z"/>
<path class="st4" d="M402.6,145c-10.3,0-9.4,16,0.8,16C413.7,161,412.9,145,402.6,145z"/>
<path class="st4" d="M318.7,189.6c-0.3-1-0.8-1.9-1.6-2.7c-0.6-0.9-1.5-1.6-2.5-2c-1.9-0.8-4-1.2-6-0.5c-2,0.7-3.7,2.1-4.7,4
	c-0.3,0.7-0.7,1.3-1,2c-0.9,1.8-1.1,4.1-0.5,6c0.3,1,0.8,1.9,1.6,2.7c0.6,0.9,1.5,1.6,2.5,2c1.9,0.8,4,1.2,6,0.5
	c2-0.7,3.7-2.1,4.7-4c0.3-0.7,0.7-1.3,1-2C319.2,193.9,319.3,191.5,318.7,189.6z"/>
<path class="st4" d="M718,150.8c-1.1-1.7-3.1-3.2-5.1-3.5c-2-0.3-4.2-0.1-5.9,1.1c-0.5,0.5-1.1,0.9-1.6,1.4c-1,1.1-1.6,2.3-1.9,3.7
	c-0.7,2-1.4,4-2,6c-0.6,1.8,0.1,4.4,1.1,5.9c1.1,1.7,3.1,3.2,5.1,3.5c2,0.3,4.2,0.1,5.9-1.1c0.5-0.5,1.1-0.9,1.6-1.4
	c1-1.1,1.6-2.3,1.9-3.7c0.7-2,1.4-4,2-6C719.7,154.9,718.9,152.3,718,150.8z"/>
<path class="st4" d="M263.7,11.9c-0.9-2.6-2.7-4.8-5.2-6c-1.8-0.9-4.1-1.1-6-0.5c-1,0.3-1.9,0.8-2.7,1.6c-0.9,0.6-1.6,1.5-2,2.5
	c-0.8,1.9-1.2,4-0.5,6c0.2,0.6,0.5,1.2,0.8,1.7c0.1,0.4,0.1,0.8,0.3,1.2c0.3,1,0.8,1.9,1.6,2.7c0.6,0.9,1.5,1.6,2.5,2
	c1.9,0.8,4,1.2,6,0.5c1.9-0.7,4-2.1,4.7-4c0.7-1.7,1-2.9,1-4.7C264.2,13.9,264,12.9,263.7,11.9z"/>
<path class="st1" d="M305.6,23c-10.3,0-9.4,16,0.8,16C316.7,39,315.9,23,305.6,23z"/>
<path class="st1" d="M6.6,13c-10.3,0-9.4,16,0.8,16C17.7,29,16.9,13,6.6,13z"/>
<path class="st1" d="M153.6,10c-10.3,0-9.4,16,0.8,16C164.7,26,163.9,10,153.6,10z"/>
<path class="st2" d="M614.6,17c-10.3,0-9.4,16,0.8,16C625.7,33,624.9,17,614.6,17z"/>
<path class="st2" d="M425.6,13c-10.3,0-9.4,16,0.8,16C436.7,29,435.9,13,425.6,13z"/>
<path class="st4" d="M536.6,23c-4.5,0.4-7.6,3.9-7.6,8.4v5c0,4.2,4.3,8,8.4,7.6c4.5-0.4,7.6-3.9,7.6-8.4v-5
	C545,26.4,540.7,22.6,536.6,23z"/>
</svg>
