<?xml version="1.0" encoding="utf-8"?>
<!-- Generator: Adobe Illustrator 19.2.0, SVG Export Plug-In . SVG Version: 6.00 Build 0)  -->
<!DOCTYPE svg PUBLIC "-//W3C//DTD SVG 1.1//EN" "http://www.w3.org/Graphics/SVG/1.1/DTD/svg11.dtd">
<svg version="1.1" xmlns="http://www.w3.org/2000/svg" xmlns:xlink="http://www.w3.org/1999/xlink" x="0px" y="0px" width="473.9px"
	 height="483.3px" viewBox="0 0 473.9 483.3" style="enable-background:new 0 0 473.9 483.3;" xml:space="preserve">
<style type="text/css">
	.st0{fill:#FF8671;}
</style>
<g id="Background">
</g>
<g id="Layer_1">
	<g>
		<path class="st0" d="M195.5,400c22.1-2.5,62.6-5.5,62.3-31.2c-0.4-38.8-0.2-77.6,0-116.3c0.1-17.1,1.8-18.8,18.6-19
			c23.7-0.3,27.5,2.7,29.6-25.7c0.8-10.3,1.4-10.6-0.8-18.4c-3.1-3.9-7.5-3.6-11.8-3.7c-8.2-0.2-16.4,0.2-24.6-0.5
			c-5.5-0.4-9.7-2.5-10.4-8.5c-1.1-10.8-1.8-21.7,0.5-32.4c2.4-11.2,8.4-15.8,21-17.2c5.9-0.6,11.8-0.2,17.7-0.5
			c7.1-0.3,10.9-4,11.1-11.2c0.3-8.5,0.4-17.1-0.1-25.6c-0.4-6.1-3.5-10.1-9.8-10.3c-21.4-0.8-42.7-0.5-63.4,6
			c-17.6,5.5-27.6,18.3-31.8,35.8c-2.2,8.9-3.6,18-3.6,27.3c0,8.5,0.2,17.1-0.3,25.6c-0.4,7.1-4.1,10.4-11.2,11.1
			c-22,2.5-22,2.6-22,24.5c0,0.7,0,1.3,0,2c0,20.2,0,20.2,19.8,21.7c10.7,0.8,13.3,3,13.5,14c0.5,47,0.4,94,0.1,141
			C200.1,393,199.2,397.1,195.5,400"/>
		<g>
			<g>
				<g>
					<g>
						<path class="st0" d="M433.5,239.7c0,0,0.1,1.2,0.2,3.5c0.1,1.2,0.1,2.6,0.2,4.3c0,0.9,0.1,1.8,0.1,2.8c0,1,0,2.1,0,3.2
							c0,9-0.5,22.5-4,39.3c-0.5,2.1-1,4.2-1.5,6.4c-0.6,2.2-1.2,4.4-1.9,6.7c-0.6,2.3-1.4,4.6-2.2,7c-0.8,2.4-1.5,4.8-2.5,7.2
							c-3.6,9.8-8.3,20.1-14.4,30.6c-6.1,10.5-13.6,21.1-22.7,31.4c-9.1,10.3-19.8,20.2-32.2,29c-12.4,8.7-26.3,16.6-41.5,22.9
							c-1.9,0.9-3.8,1.5-5.8,2.3c-2,0.7-3.9,1.5-5.9,2.2c-2,0.6-4,1.3-6,1.9c-1,0.3-2,0.6-3,1c-1,0.3-2.1,0.6-3.1,0.8
							c-2.1,0.6-4.1,1.1-6.2,1.7c-2.1,0.5-4.2,0.9-6.3,1.4c-1.1,0.2-2.1,0.5-3.2,0.7l-1.6,0.3l-1.6,0.3c-2.2,0.3-4.3,0.7-6.5,1
							c-2.2,0.4-4.4,0.6-6.6,0.8c-2.2,0.2-4.4,0.5-6.7,0.7c-2.2,0.1-4.5,0.3-6.7,0.4c-1.1,0.1-2.3,0.1-3.4,0.2c-1.1,0-2.3,0-3.4,0
							c-2.3,0-4.6,0-6.8,0c-2.3,0-4.6-0.2-6.9-0.3c-4.6-0.1-9.2-0.7-13.9-1.2c-9.3-1.2-18.6-2.8-27.8-5.4c-4.7-1.1-9.2-2.7-13.8-4.2
							c-2.3-0.8-4.5-1.7-6.8-2.6l-3.4-1.3l-3.3-1.5c-17.9-7.7-35-18.1-50.6-30.9c-1.9-1.6-3.8-3.3-5.8-4.9c-1.9-1.7-3.7-3.4-5.6-5.1
							c-0.9-0.9-1.9-1.7-2.8-2.6l-2.7-2.7l-2.7-2.7c-0.9-0.9-1.8-1.8-2.6-2.8c-1.7-1.9-3.4-3.8-5.1-5.7c-1.7-1.9-3.2-4-4.8-5.9
							l-2.4-3l-2.3-3.1l-2.3-3.1c-0.8-1-1.5-2.1-2.2-3.2c-1.4-2.2-2.8-4.3-4.2-6.5c-1.4-2.2-2.6-4.4-4-6.7c-0.6-1.1-1.3-2.2-2-3.4
							l-1.8-3.4l-1.8-3.4c-0.6-1.1-1.2-2.3-1.7-3.5c-1.1-2.4-2.2-4.7-3.3-7.1c-1.1-2.4-2-4.8-3-7.2c-0.5-1.2-1-2.4-1.4-3.6l-1.3-3.7
							l-1.3-3.7c-0.4-1.2-0.9-2.5-1.2-3.7l-2.2-7.5c-0.7-2.5-1.3-5.1-1.9-7.6l-0.9-3.8l-0.7-3.9c-0.5-2.6-1-5.1-1.4-7.7
							c-1.6-10.4-2.4-20.9-2.6-31.4c0.2-10.5,1-21,2.6-31.4c0.4-2.6,0.9-5.2,1.4-7.7l0.7-3.9l0.9-3.8c0.6-2.5,1.2-5.1,1.9-7.6
							l2.2-7.5c0.3-1.3,0.8-2.5,1.2-3.7l1.3-3.7l1.3-3.7c0.5-1.2,1-2.4,1.4-3.6c1-2.4,1.9-4.8,3-7.2c1.1-2.4,2.2-4.7,3.3-7.1
							c0.5-1.2,1.1-2.3,1.7-3.5l1.8-3.4l1.8-3.4c0.6-1.1,1.3-2.2,2-3.4c1.3-2.2,2.6-4.5,4-6.7c1.4-2.2,2.8-4.3,4.2-6.5
							c0.7-1.1,1.4-2.1,2.2-3.2l2.3-3.1l2.3-3.1l2.4-3c1.6-2,3.2-4,4.8-5.9c1.7-1.9,3.4-3.8,5.1-5.7c0.8-1,1.7-1.9,2.6-2.8l2.7-2.7
							l2.7-2.7c0.9-0.9,1.8-1.7,2.8-2.6c1.9-1.7,3.7-3.5,5.6-5.1c1.9-1.6,3.8-3.3,5.8-4.9C117,64.1,134.1,53.7,152.1,46l3.3-1.5
							l3.4-1.3c2.3-0.9,4.5-1.8,6.8-2.6c4.6-1.5,9.1-3.1,13.8-4.2c9.2-2.6,18.6-4.2,27.8-5.4c4.7-0.5,9.3-1,13.9-1.2
							c2.3-0.1,4.6-0.3,6.9-0.3c2.3,0,4.6,0,6.8,0c1.1,0,2.3,0,3.4,0c1.1,0.1,2.3,0.1,3.4,0.2c2.3,0.1,4.5,0.3,6.7,0.4
							c2.2,0.2,4.5,0.5,6.7,0.7c2.2,0.2,4.4,0.4,6.6,0.8c2.2,0.4,4.4,0.7,6.5,1l1.6,0.3l1.6,0.3c1.1,0.2,2.1,0.5,3.2,0.7
							c2.1,0.5,4.3,0.9,6.3,1.4c2.1,0.6,4.2,1.1,6.2,1.7c1,0.3,2.1,0.5,3.1,0.8c1,0.3,2,0.6,3,1c2,0.6,4,1.3,6,1.9
							c2,0.7,3.9,1.5,5.9,2.2c1.9,0.8,3.9,1.4,5.8,2.3c15.2,6.4,29.1,14.2,41.5,23c12.4,8.8,23.1,18.7,32.2,29
							c9.1,10.3,16.6,20.9,22.7,31.4c6.1,10.5,10.8,20.8,14.4,30.6c1,2.4,1.7,4.9,2.5,7.2c0.8,2.4,1.6,4.7,2.2,7
							c0.6,2.3,1.3,4.5,1.9,6.7c0.5,2.2,1,4.3,1.5,6.4c3.5,16.8,4,30.2,4,39.3c0,1.1,0,2.2,0,3.2c0,1-0.1,1.9-0.1,2.8
							c-0.1,1.7-0.1,3.2-0.2,4.3C433.5,238.5,433.5,239.7,433.5,239.7s-0.1-1.2-0.3-3.5c-0.1-1.2-0.2-2.6-0.4-4.3
							c-0.1-0.9-0.1-1.8-0.3-2.8c-0.1-1-0.3-2-0.5-3.1c-1.2-8.9-3.6-21.9-9.1-37.5c-0.7-2-1.3-4-2-6c-0.8-2-1.6-4.1-2.5-6.2
							c-0.8-2.1-1.8-4.2-2.8-6.4c-1-2.1-2-4.4-3.2-6.5c-4.4-8.8-10-17.9-16.8-27c-13.5-18.1-31.8-36.1-54.9-50.6
							c-11.6-7.2-24.4-13.4-38.2-18c-1.7-0.6-3.5-1.1-5.2-1.6c-1.8-0.5-3.5-1.1-5.3-1.5c-1.8-0.4-3.6-0.9-5.4-1.3
							c-0.9-0.2-1.8-0.4-2.7-0.7c-0.9-0.2-1.8-0.4-2.8-0.5c-1.8-0.3-3.7-0.7-5.5-1.1c-1.9-0.3-3.7-0.5-5.6-0.8
							c-0.9-0.1-1.9-0.3-2.8-0.4l-1.4-0.2l-1.4-0.1c-1.9-0.2-3.8-0.3-5.7-0.5c-1.9-0.2-3.8-0.2-5.8-0.3c-1.9-0.1-3.9-0.2-5.8-0.2
							c-1.9,0-3.9,0-5.8,0.1l-2.9,0c-1,0-2,0.1-2.9,0.2c-2,0.1-3.9,0.2-5.9,0.3c-2,0.1-3.9,0.4-5.9,0.6c-3.9,0.3-7.9,1.1-11.8,1.6
							c-7.8,1.5-15.7,3.2-23.5,5.7c-3.9,1.1-7.7,2.6-11.6,3.9c-1.9,0.7-3.8,1.6-5.7,2.3l-2.9,1.2l-2.8,1.3c-15,6.8-29.2,16-42.1,27
							c-1.6,1.4-3.2,2.8-4.8,4.2c-1.6,1.4-3,3-4.6,4.4c-0.8,0.7-1.5,1.5-2.3,2.2l-2.2,2.3l-2.2,2.3c-0.7,0.8-1.5,1.6-2.1,2.4
							c-1.4,1.6-2.8,3.3-4.1,4.9c-1.4,1.6-2.6,3.4-3.9,5.1l-2,2.6l-1.8,2.6l-1.8,2.6c-0.6,0.9-1.2,1.8-1.8,2.7
							c-1.1,1.8-2.3,3.6-3.4,5.5c-1.1,1.8-2.1,3.8-3.2,5.6c-0.5,0.9-1.1,1.9-1.6,2.8l-1.4,2.9l-1.4,2.9c-0.5,1-1,1.9-1.4,2.9
							l-2.6,5.9c-0.8,2-1.6,4-2.3,6.1c-0.4,1-0.8,2-1.1,3l-1,3.1l-1,3.1c-0.3,1-0.7,2.1-0.9,3.1l-1.7,6.3c-0.5,2.1-0.9,4.2-1.4,6.3
							l-0.7,3.2l-0.5,3.2c-0.3,2.1-0.8,4.3-1,6.4c-1.2,8.6-1.6,17.3-1.6,26c0,8.7,0.4,17.4,1.6,26c0.3,2.2,0.7,4.3,1,6.4l0.5,3.2
							l0.7,3.2c0.5,2.1,0.9,4.3,1.4,6.3l1.7,6.3c0.3,1.1,0.6,2.1,0.9,3.1l1,3.1l1,3.1c0.4,1,0.8,2,1.1,3c0.8,2,1.5,4.1,2.3,6.1
							l2.6,5.9c0.4,1,0.9,2,1.4,2.9l1.4,2.9l1.4,2.9c0.5,1,1,1.9,1.6,2.8c1.1,1.9,2.1,3.8,3.2,5.6c1.1,1.8,2.3,3.7,3.4,5.5
							c0.5,0.9,1.2,1.8,1.8,2.7l1.8,2.6l1.8,2.7l2,2.6c1.3,1.7,2.6,3.4,3.9,5.1c1.4,1.6,2.8,3.3,4.1,4.9c0.7,0.8,1.4,1.6,2.1,2.4
							l2.2,2.3l2.2,2.3c0.7,0.8,1.5,1.5,2.3,2.2c1.5,1.5,3,3,4.6,4.4c1.6,1.4,3.2,2.8,4.8,4.2c12.9,11,27.1,20.1,42.1,27l2.8,1.3
							l2.9,1.2c1.9,0.8,3.8,1.6,5.7,2.3c3.9,1.3,7.7,2.9,11.6,3.9c7.7,2.5,15.6,4.2,23.5,5.7c3.9,0.6,7.9,1.3,11.8,1.7
							c2,0.2,3.9,0.5,5.9,0.6c2,0.1,3.9,0.2,5.9,0.3c1,0.1,2,0.1,2.9,0.2l2.9,0c2,0,3.9,0,5.8,0.1c1.9,0,3.9-0.2,5.8-0.2
							c1.9-0.1,3.9-0.1,5.8-0.3c1.9-0.2,3.8-0.3,5.7-0.5l1.4-0.1l1.4-0.2c0.9-0.1,1.9-0.3,2.8-0.4c1.9-0.3,3.8-0.5,5.6-0.8
							c1.9-0.4,3.7-0.7,5.5-1.1c0.9-0.2,1.8-0.3,2.8-0.5c0.9-0.2,1.8-0.4,2.7-0.7c1.8-0.4,3.6-0.9,5.4-1.3c1.8-0.5,3.5-1,5.3-1.5
							c1.8-0.5,3.5-1,5.2-1.6c13.8-4.6,26.7-10.8,38.2-18c23.1-14.5,41.5-32.5,54.9-50.6c6.7-9.1,12.4-18.2,16.8-27
							c1.2-2.2,2.1-4.4,3.2-6.5c1-2.2,2-4.3,2.8-6.4c0.8-2.1,1.7-4.2,2.5-6.2c0.7-2,1.4-4.1,2-6c5.5-15.6,7.9-28.6,9.1-37.5
							c0.2-1.1,0.3-2.2,0.5-3.1c0.1-1,0.2-1.9,0.3-2.8c0.2-1.7,0.3-3.1,0.4-4.3C433.4,240.9,433.5,239.7,433.5,239.7z"/>
					</g>
				</g>
			</g>
		</g>
	</g>
</g>
</svg>
