<?xml version="1.0" encoding="utf-8"?>
<!-- Generator: Adobe Illustrator 19.2.0, SVG Export Plug-In . SVG Version: 6.00 Build 0)  -->
<!DOCTYPE svg PUBLIC "-//W3C//DTD SVG 1.1//EN" "http://www.w3.org/Graphics/SVG/1.1/DTD/svg11.dtd">
<svg version="1.1" xmlns="http://www.w3.org/2000/svg" xmlns:xlink="http://www.w3.org/1999/xlink" x="0px" y="0px" width="473.9px"
	 height="483.3px" viewBox="0 0 473.9 483.3" style="enable-background:new 0 0 473.9 483.3;" xml:space="preserve">
<style type="text/css">
	.st0{fill:#FF8671;}
</style>
<g id="Background">
</g>
<g id="Layer_1">
	<g>
		<path class="st0" d="M328.3,124.4c-56.5,0-113.1,0-169.6,0c-14.6,0-25.1,10.4-25.1,24.9c0,56.7,0,113.4,0,170.1
			c0,14.7,10.2,24.7,24.9,24.7c28.3,0,56.5,0,84.8,0c28.4,0,56.8,0,85.3,0c14.7,0,24.7-9.8,24.7-24.4c0-56.8,0-113.7,0-170.5
			C353.3,134.5,343,124.4,328.3,124.4z M300.5,142.3c6.6-0.2,13.2-0.2,19.8,0c5.9,0.2,9.2,3.6,9.3,9.5c0.1,3.3,0,6.6,0,9.9
			c0,3.3,0.1,6.6,0,9.9c-0.2,5.8-3.4,9.1-9.1,9.2c-6.6,0.1-13.2,0.1-19.8,0c-6.2-0.1-9.5-3.4-9.7-9.7c-0.2-6.4-0.2-12.9,0-19.3
			C291.2,146.1,294.7,142.5,300.5,142.3z M243.4,190c24.5-0.1,44.5,19.5,44.6,44c0.1,24.7-19.7,44.8-44.3,44.9
			c-24.7,0.1-44.5-19.7-44.5-44.6C199.2,209.7,218.7,190.1,243.4,190z M329.6,298.2c0,3.6,0,7.2,0,10.8c0,8.5-2.9,11.4-11.2,11.4
			c-25,0-49.9,0-74.9,0c-25,0-49.9,0-74.9,0c-8,0-11.2-3-11.2-11.1c-0.1-30.6,0-61.2-0.1-91.8c0-2.8,0.7-4,3.7-3.8
			c4.2,0.2,8.5,0.3,12.7,0c3.7-0.2,4.5,0.7,3.6,4.5c-4.4,17.9-1.9,34.9,7.4,50.8c14.6,25.1,43.4,38,72.4,32.5
			c27.4-5.2,49.2-27.8,53.7-55.7c1.5-9.2,1.5-18.5-1.1-27.5c-1.2-4,0.1-4.8,3.8-4.5c3.9,0.3,7.9,0.3,11.8,0c3.6-0.3,4.4,1.1,4.4,4.5
			C329.5,244.8,329.6,271.5,329.6,298.2z"/>
		<g>
			<g>
				<g>
					<g>
						<path class="st0" d="M431.8,234.2c0,0,0.1,1.2,0.2,3.4c0,1.1,0.1,2.5,0.2,4.2c0,0.8,0.1,1.7,0.1,2.7c0,1,0,2,0,3.1
							c0,8.8-0.5,21.9-3.9,38.3c-0.5,2-1,4.1-1.5,6.3c-0.6,2.1-1.2,4.3-1.8,6.5c-0.6,2.2-1.4,4.5-2.1,6.8c-0.8,2.3-1.5,4.7-2.5,7
							c-3.5,9.5-8.1,19.6-14.1,29.8c-5.9,10.2-13.3,20.6-22.1,30.6c-8.9,10-19.3,19.7-31.4,28.2c-12.1,8.5-25.6,16.2-40.5,22.4
							c-1.8,0.8-3.7,1.5-5.6,2.2c-1.9,0.7-3.8,1.5-5.7,2.1c-1.9,0.6-3.9,1.3-5.9,1.9c-1,0.3-2,0.6-3,0.9c-1,0.3-2,0.5-3,0.8
							c-2,0.5-4,1.1-6.1,1.6c-2,0.5-4.1,0.9-6.2,1.4c-1,0.2-2.1,0.4-3.1,0.7l-1.6,0.3l-1.6,0.3c-2.1,0.3-4.2,0.7-6.3,1
							c-2.1,0.4-4.3,0.6-6.4,0.8c-2.2,0.2-4.3,0.5-6.5,0.7c-2.2,0.1-4.4,0.2-6.6,0.4c-1.1,0.1-2.2,0.1-3.3,0.2c-1.1,0-2.2,0-3.3,0
							c-2.2,0-4.4,0-6.7,0c-2.2,0-4.5-0.2-6.7-0.3c-4.5-0.1-9-0.7-13.5-1.1c-9-1.2-18.1-2.8-27.1-5.3c-4.5-1.1-9-2.7-13.4-4.1
							c-2.2-0.8-4.4-1.7-6.6-2.5l-3.3-1.3l-3.3-1.4c-17.5-7.5-34.1-17.7-49.3-30.1c-1.9-1.6-3.7-3.2-5.6-4.8c-1.9-1.6-3.6-3.3-5.4-5
							c-0.9-0.8-1.8-1.7-2.7-2.5l-2.6-2.7l-2.6-2.7c-0.9-0.9-1.7-1.8-2.5-2.7c-1.6-1.9-3.3-3.7-4.9-5.6c-1.6-1.9-3.1-3.9-4.7-5.8
							l-2.3-2.9l-2.2-3l-2.2-3c-0.7-1-1.5-2-2.1-3.1c-1.4-2.1-2.8-4.2-4.1-6.3c-1.4-2.1-2.6-4.3-3.9-6.5c-0.6-1.1-1.3-2.2-1.9-3.3
							l-1.8-3.3l-1.8-3.4c-0.6-1.1-1.2-2.2-1.7-3.4L50,316c-1-2.3-1.9-4.7-2.9-7c-0.5-1.2-1-2.3-1.4-3.5l-1.3-3.6l-1.3-3.6
							c-0.4-1.2-0.8-2.4-1.2-3.6l-2.2-7.3c-0.7-2.5-1.2-5-1.8-7.4l-0.9-3.7l-0.7-3.8c-0.5-2.5-1-5-1.4-7.5
							c-1.6-10.1-2.3-20.3-2.6-30.6c0.2-10.2,1-20.5,2.6-30.6c0.4-2.5,0.9-5,1.4-7.5l0.7-3.8l0.9-3.7c0.6-2.5,1.2-5,1.8-7.4l2.2-7.3
							c0.3-1.2,0.8-2.4,1.2-3.6l1.3-3.6l1.3-3.6c0.4-1.2,0.9-2.4,1.4-3.5c1-2.3,1.9-4.7,2.9-7l3.2-6.9c0.5-1.2,1.1-2.3,1.7-3.4
							l1.8-3.4l1.8-3.4c0.6-1.1,1.3-2.2,1.9-3.3c1.3-2.2,2.5-4.4,3.9-6.5c1.4-2.1,2.8-4.2,4.1-6.3c0.7-1.1,1.4-2.1,2.1-3.1l2.2-3
							l2.2-3l2.3-2.9c1.6-1.9,3.1-3.9,4.7-5.8c1.6-1.9,3.3-3.7,4.9-5.6c0.8-0.9,1.7-1.8,2.5-2.7l2.6-2.7l2.6-2.7
							c0.9-0.9,1.8-1.7,2.7-2.5c1.8-1.7,3.6-3.4,5.4-5c1.9-1.6,3.7-3.2,5.6-4.8c15.2-12.4,31.8-22.6,49.3-30.1l3.3-1.4l3.3-1.3
							c2.2-0.8,4.4-1.7,6.6-2.5c4.5-1.4,8.9-3,13.4-4.1c9-2.5,18.1-4.1,27.1-5.3c4.5-0.5,9-1,13.5-1.1c2.2-0.1,4.5-0.3,6.7-0.3
							c2.2,0,4.5,0,6.7,0c1.1,0,2.2,0,3.3,0c1.1,0.1,2.2,0.1,3.3,0.2c2.2,0.1,4.4,0.2,6.6,0.4c2.2,0.2,4.3,0.5,6.5,0.7
							c2.2,0.2,4.3,0.4,6.4,0.8c2.1,0.3,4.2,0.7,6.4,1l1.6,0.3l1.6,0.3c1,0.2,2.1,0.4,3.1,0.7c2.1,0.5,4.1,0.8,6.2,1.4
							c2,0.5,4.1,1.1,6.1,1.6c1,0.3,2,0.5,3,0.8c1,0.3,2,0.6,3,0.9c2,0.6,3.9,1.3,5.9,1.9c1.9,0.7,3.8,1.4,5.7,2.1
							c1.9,0.7,3.8,1.4,5.6,2.2c14.8,6.2,28.4,13.9,40.5,22.4c12.1,8.5,22.5,18.2,31.4,28.2c8.9,10,16.2,20.4,22.1,30.6
							c5.9,10.2,10.6,20.3,14,29.8c1,2.3,1.7,4.7,2.5,7c0.8,2.3,1.5,4.5,2.1,6.8c0.6,2.2,1.2,4.4,1.8,6.5c0.5,2.1,1,4.2,1.5,6.3
							c3.4,16.4,3.9,29.5,3.9,38.3c0,1.1,0,2.1,0,3.1c0,1-0.1,1.9-0.1,2.7c-0.1,1.7-0.1,3.1-0.2,4.2
							C431.9,233.1,431.8,234.2,431.8,234.2s-0.1-1.2-0.3-3.4c-0.1-1.1-0.2-2.5-0.4-4.2c-0.1-0.8-0.1-1.7-0.3-2.7
							c-0.1-1-0.3-2-0.4-3.1c-1.2-8.6-3.5-21.3-8.9-36.5c-0.6-1.9-1.3-3.9-2-5.9c-0.8-2-1.6-4-2.4-6c-0.8-2.1-1.8-4.1-2.7-6.2
							c-1-2.1-1.9-4.3-3.1-6.4c-4.3-8.6-9.8-17.4-16.4-26.3c-13.1-17.6-31-35.2-53.5-49.3c-11.3-7-23.8-13-37.2-17.5
							c-1.7-0.6-3.4-1.1-5.1-1.6c-1.7-0.5-3.4-1-5.2-1.5c-1.7-0.4-3.5-0.8-5.3-1.3c-0.9-0.2-1.8-0.4-2.6-0.6
							c-0.9-0.2-1.8-0.3-2.7-0.5c-1.8-0.3-3.6-0.7-5.4-1c-1.8-0.3-3.6-0.5-5.5-0.8l-2.7-0.4l-1.4-0.2l-1.4-0.1
							c-1.9-0.2-3.7-0.3-5.6-0.5c-1.9-0.2-3.7-0.2-5.6-0.3c-1.9-0.1-3.8-0.1-5.7-0.2c-1.9,0-3.8,0-5.7,0.1l-2.9,0
							c-1,0-1.9,0.1-2.9,0.2c-1.9,0.1-3.8,0.2-5.7,0.3c-1.9,0.1-3.8,0.4-5.7,0.6c-3.8,0.3-7.7,1-11.5,1.6
							c-7.6,1.4-15.3,3.1-22.9,5.5c-3.8,1.1-7.5,2.5-11.3,3.8c-1.9,0.7-3.7,1.5-5.5,2.3l-2.8,1.1l-2.7,1.3
							c-14.6,6.7-28.5,15.6-41,26.3c-1.5,1.4-3.1,2.7-4.6,4.1c-1.5,1.4-3,2.9-4.5,4.3c-0.7,0.7-1.5,1.4-2.2,2.2l-2.1,2.3l-2.1,2.3
							c-0.7,0.8-1.4,1.5-2.1,2.3c-1.3,1.6-2.7,3.2-4,4.8c-1.3,1.6-2.6,3.3-3.8,4.9l-1.9,2.5l-1.8,2.6l-1.8,2.6
							c-0.6,0.9-1.2,1.7-1.7,2.6c-1.1,1.8-2.2,3.6-3.3,5.3c-1.1,1.8-2.1,3.7-3.1,5.5c-0.5,0.9-1,1.8-1.5,2.8l-1.4,2.8l-1.4,2.8
							c-0.5,0.9-0.9,1.9-1.3,2.9l-2.5,5.8c-0.8,1.9-1.5,3.9-2.3,5.9c-0.4,1-0.8,2-1.1,3l-1,3l-1,3c-0.3,1-0.7,2-0.9,3l-1.7,6.1
							c-0.5,2-0.9,4.1-1.4,6.2l-0.7,3.1l-0.5,3.1c-0.3,2.1-0.7,4.2-1,6.3c-1.1,8.4-1.5,16.9-1.6,25.3c0,8.5,0.4,16.9,1.6,25.3
							c0.2,2.1,0.7,4.2,1,6.3l0.5,3.1l0.7,3.1c0.5,2.1,0.9,4.1,1.4,6.2l1.7,6.1c0.3,1,0.6,2,0.9,3l1,3l1,3c0.3,1,0.7,2,1.1,3
							c0.8,2,1.5,4,2.3,5.9l2.5,5.8c0.4,1,0.9,1.9,1.3,2.9l1.4,2.8l1.4,2.8c0.5,0.9,1,1.8,1.5,2.8c1,1.8,2,3.7,3.1,5.5
							c1.1,1.8,2.2,3.6,3.3,5.3c0.5,0.9,1.1,1.8,1.7,2.6l1.8,2.6l1.8,2.6l1.9,2.5c1.3,1.6,2.5,3.3,3.8,4.9c1.3,1.6,2.7,3.2,4,4.8
							c0.7,0.8,1.4,1.6,2.1,2.3l2.1,2.3l2.1,2.3c0.7,0.7,1.5,1.5,2.2,2.2c1.5,1.4,2.9,2.9,4.5,4.3c1.5,1.4,3.1,2.7,4.6,4.1
							c12.5,10.7,26.4,19.6,41,26.3l2.7,1.3l2.8,1.1c1.9,0.7,3.7,1.5,5.5,2.3c3.8,1.3,7.5,2.8,11.3,3.8c7.5,2.4,15.2,4.1,22.9,5.5
							c3.8,0.6,7.7,1.3,11.5,1.6c1.9,0.2,3.8,0.5,5.7,0.6c1.9,0.1,3.8,0.2,5.7,0.3c1,0.1,1.9,0.1,2.9,0.2l2.9,0c1.9,0,3.8,0,5.7,0.1
							c1.9-0.1,3.8-0.1,5.7-0.2c1.9-0.1,3.8-0.1,5.6-0.3c1.9-0.2,3.7-0.3,5.6-0.5l1.4-0.1l1.4-0.2l2.7-0.4c1.8-0.3,3.7-0.5,5.5-0.8
							c1.8-0.3,3.6-0.7,5.4-1c0.9-0.2,1.8-0.3,2.7-0.5c0.9-0.2,1.8-0.4,2.6-0.6c1.8-0.4,3.5-0.9,5.3-1.3c1.7-0.5,3.4-1,5.2-1.5
							c1.7-0.5,3.4-1,5.1-1.6c13.5-4.5,26-10.5,37.2-17.6c22.6-14.1,40.4-31.6,53.5-49.3c6.6-8.8,12-17.7,16.4-26.3
							c1.2-2.1,2.1-4.3,3.1-6.4c1-2.1,2-4.1,2.7-6.2c0.8-2.1,1.6-4.1,2.4-6c0.7-2,1.3-4,2-5.9c5.4-15.2,7.7-27.9,8.9-36.5
							c0.2-1.1,0.3-2.1,0.4-3.1c0.1-1,0.2-1.9,0.3-2.7c0.2-1.7,0.3-3.1,0.4-4.2C431.7,235.4,431.8,234.2,431.8,234.2z"/>
					</g>
				</g>
			</g>
		</g>
	</g>
</g>
</svg>
