<?xml version="1.0" encoding="utf-8"?>
<!-- Generator: Adobe Illustrator 19.2.0, SVG Export Plug-In . SVG Version: 6.00 Build 0)  -->
<!DOCTYPE svg PUBLIC "-//W3C//DTD SVG 1.1//EN" "http://www.w3.org/Graphics/SVG/1.1/DTD/svg11.dtd">
<svg version="1.1" xmlns="http://www.w3.org/2000/svg" xmlns:xlink="http://www.w3.org/1999/xlink" x="0px" y="0px"
	 width="1388.2px" height="667.5px" viewBox="0 0 1388.2 667.5" style="enable-background:new 0 0 1388.2 667.5;"
	 xml:space="preserve">
<style type="text/css">
	.st0{fill:#FF8671;}
	.st1{fill:#FFFFFF;}
	.st2{font-family:'Satisfy';}
	.st3{font-size:234.6024px;}
</style>
<g id="Background">
</g>
<g id="Layer_1">
	<path class="st0" d="M383.6,148.9c-9.3-40.6-48.2-69.3-92.2-63c-23.9,3.4-42.6,15.5-56.5,35.3c-1.1,1.6-1.1,1.6-2.2,0
		c-20.4-28.1-47.9-40-82.2-34.9c-21.7,3.2-39.2,14.5-52.4,32.1c-14,18.7-18.3,40-15.6,62.9c2.2,19.2,9,36.5,20,52.3
		c9.4,13.6,21,25.3,33.1,36.5c13.4,12.4,27.5,24.2,41,36.5c21.1,19.2,40.5,40,56.3,63.9c0.3,0.4,0.6,0.8,1,1.3
		c0.4-0.6,0.8-1.2,1.1-1.7c9.7-15.2,20.8-29.4,33.2-42.6c14-15,29.4-28.6,44.8-42.3c13.3-11.8,26.6-23.6,38.6-36.8
		c10.1-11.2,19-23.3,25.1-37.3C385.4,191.2,388.6,170.4,383.6,148.9z M343,218.4c-4.6,10.7-11.4,19.9-19.2,28.5
		c-9.1,10.1-19.3,19.1-29.5,28.1c-11.7,10.4-23.5,20.8-34.2,32.3c-9.4,10.1-17.9,20.9-25.4,32.6c-0.3,0.4-0.5,0.8-0.9,1.3
		c-0.3-0.4-0.5-0.7-0.8-1C221,322,206.2,306.1,190,291.4c-10.4-9.4-21.1-18.4-31.4-27.9c-9.2-8.5-18.1-17.5-25.3-27.9
		c-8.4-12.1-13.6-25.3-15.3-40c-2-17.5,1.2-33.8,11.9-48.1c10-13.5,23.4-22.1,40-24.5c26.2-3.9,47.2,5.3,62.8,26.7
		c0.9,1.2,0.8,1.2,1.7,0c10.6-15.1,24.9-24.4,43.2-27c33.6-4.8,63.3,17.1,70.4,48.1C352,187.2,349.6,203.1,343,218.4z"/>
	<path class="st0" d="M552,308.4c2.5-41.6-26.9-80-70.8-86.3c-23.9-3.4-45.3,2.9-64.1,18c-1.5,1.2-1.5,1.2-2.1-0.6
		c-11.7-32.7-34.7-51.9-69-56.6c-21.8-3-41.7,2.9-59.3,16.1c-18.7,14-28.7,33.2-32.6,56c-3.3,19-1.6,37.6,4.5,55.8
		c5.2,15.7,13,30.2,21.5,44.3c9.4,15.7,19.6,30.9,29.1,46.5c14.9,24.4,27.6,49.8,36.1,77.1c0.2,0.5,0.4,1,0.6,1.6
		c0.6-0.5,1.1-0.9,1.6-1.3c13.6-11.9,28.3-22.4,43.8-31.6c17.7-10.5,36.3-19.2,54.8-28c16.1-7.6,32.2-15.1,47.3-24.5
		c12.9-7.9,24.8-17,34.5-28.8C541.8,349.5,550.6,330.4,552,308.4z M493.4,363.8c-7.4,9-16.5,15.9-26.4,22
		c-11.6,7.1-23.9,12.9-36.2,18.7c-14.2,6.7-28.4,13.4-41.9,21.4c-11.9,7-23.1,15.1-33.5,24.1c-0.4,0.3-0.7,0.6-1.2,1
		c-0.2-0.4-0.3-0.8-0.4-1.2c-6.5-20.9-16.2-40.3-27.6-59c-7.3-11.9-15.1-23.6-22.3-35.6c-6.5-10.8-12.4-21.8-16.4-33.8
		c-4.6-13.9-5.9-28.1-3.4-42.7c3-17.4,10.7-32.1,25-42.8c13.4-10.1,28.7-14.6,45.3-12.3c26.2,3.6,43.8,18.3,52.8,43.3
		c0.5,1.4,0.5,1.4,1.6,0.5c14.4-11.5,30.8-16.4,49-13.8c33.6,4.8,56,34.2,54.1,66C510.8,336.3,504,350.9,493.4,363.8z"/>
	<path class="st1" d="M164.7,85.5c-1.4,4.8-3,8.2-4.9,10.3c-1.8,2.1-4.7,3-8.7,2.7c-5.6-0.6-12.7-0.8-21.1-0.6
		c-8.4,0.1-17.2,0.4-26.2,0.6l-0.4,0.4c-1.7,8.4-3.2,16.3-4.6,23.6c-1.4,6.2-2.7,12-3.8,17.5c-1.1,5.5-1.8,9.1-2.1,10.8
		c-0.8,1.7-2.2,3-4,4c-1.8,1-3.7,1.8-5.7,2.3c-2.3,0.8-4.5,1.4-6.8,1.7c-2.3,0.3-4.5,0.4-6.8,0.4c-4.5,0-8.2-1-11-3l13.5-57
		c-6.5,0.3-13.1,0.8-19.8,1.7c-5.6,0.6-11.8,1.5-18.6,2.7c-6.8,1.3-13.1,2.6-19,4c-0.6-2-0.8-4.1-0.6-6.3c0.1-2.2,0.5-4.4,1.1-6.3
		c0.6-2.2,1.1-4.5,1.7-6.8c0.8-2.2,2.2-4.9,4.2-8c2-3.1,3.9-5.1,5.9-5.9c2-1.1,8-2.2,18.2-3.2c10.1-1,21.4-1.8,33.8-2.3l11.4-47.3
		c2.2-2.2,4.6-3.9,7.2-5.1c2.5-1.1,4.9-2,7.2-2.5c2.8-0.6,5.5-0.8,8-0.8s4.8,0.3,6.8,0.8c1.4,0.6,2.7,1.2,3.8,1.9
		c1.1,0.7,1.4,1.6,0.8,2.7c-1.7,5.3-3.3,10.9-4.9,16.7c-1.6,5.8-3,11.2-4.4,16.3c-1.4,5.9-3,11.7-4.6,17.3
		c9.8,0.3,18.6,0.6,26.2,0.8c7.6,0.3,14.9,1,22,2.1c3.9,0.3,6.3,1.4,7.2,3.4C166.4,77.3,166.1,80.7,164.7,85.5z"/>
	<text transform="matrix(1 0 0 1 397.3456 503.6476)" class="st1 st2 st3">One + One</text>
</g>
</svg>
