<?xml version="1.0" encoding="utf-8"?>
<!-- Generator: Adobe Illustrator 19.2.0, SVG Export Plug-In . SVG Version: 6.00 Build 0)  -->
<!DOCTYPE svg PUBLIC "-//W3C//DTD SVG 1.1//EN" "http://www.w3.org/Graphics/SVG/1.1/DTD/svg11.dtd">
<svg version="1.1" xmlns="http://www.w3.org/2000/svg" xmlns:xlink="http://www.w3.org/1999/xlink" x="0px" y="0px"
	 width="1388.2px" height="667.5px" viewBox="0 0 1388.2 667.5" style="enable-background:new 0 0 1388.2 667.5;"
	 xml:space="preserve">
<style type="text/css">
	.st0{fill:#FF8671;}
	.st1{fill:#FFFFFF;}
</style>
<g id="Background">
</g>
<g id="Layer_1">
	<path class="st0" d="M383.6,148.9c-9.3-40.6-48.2-69.3-92.2-63c-23.9,3.4-42.6,15.5-56.5,35.3c-1.1,1.6-1.1,1.6-2.2,0
		c-20.4-28.1-47.9-40-82.2-34.9c-21.7,3.2-39.2,14.5-52.4,32.1c-14,18.7-18.3,40-15.6,62.9c2.2,19.2,9,36.5,20,52.3
		c9.4,13.6,21,25.3,33.1,36.5c13.4,12.4,27.5,24.2,41,36.5c21.1,19.2,40.5,40,56.3,63.9c0.3,0.4,0.6,0.8,1,1.3
		c0.4-0.6,0.8-1.2,1.1-1.7c9.7-15.2,20.8-29.4,33.2-42.6c14-15,29.4-28.6,44.8-42.3c13.3-11.8,26.6-23.6,38.6-36.8
		c10.1-11.2,19-23.3,25.1-37.3C385.4,191.2,388.6,170.4,383.6,148.9z M343,218.4c-4.6,10.7-11.4,19.9-19.2,28.5
		c-9.1,10.1-19.3,19.1-29.5,28.1c-11.7,10.4-23.5,20.8-34.2,32.3c-9.4,10.1-17.9,20.9-25.4,32.6c-0.3,0.4-0.5,0.8-0.9,1.3
		c-0.3-0.4-0.5-0.7-0.8-1C221,322,206.2,306.1,190,291.4c-10.4-9.4-21.1-18.4-31.4-27.9c-9.2-8.5-18.1-17.5-25.3-27.9
		c-8.4-12.1-13.6-25.3-15.3-40c-2-17.5,1.2-33.8,11.9-48.1c10-13.5,23.4-22.1,40-24.5c26.2-3.9,47.2,5.3,62.8,26.7
		c0.9,1.2,0.8,1.2,1.7,0c10.6-15.1,24.9-24.4,43.2-27c33.6-4.8,63.3,17.1,70.4,48.1C352,187.2,349.6,203.1,343,218.4z"/>
	<path class="st0" d="M552,308.4c2.5-41.6-26.9-80-70.8-86.3c-23.9-3.4-45.3,2.9-64.1,18c-1.5,1.2-1.5,1.2-2.1-0.6
		c-11.7-32.7-34.7-51.9-69-56.6c-21.8-3-41.7,2.9-59.3,16.1c-18.7,14-28.7,33.2-32.6,56c-3.3,19-1.6,37.6,4.5,55.8
		c5.2,15.7,13,30.2,21.5,44.3c9.4,15.7,19.6,30.9,29.1,46.5c14.9,24.4,27.6,49.8,36.1,77.1c0.2,0.5,0.4,1,0.6,1.6
		c0.6-0.5,1.1-0.9,1.6-1.3c13.6-11.9,28.3-22.4,43.8-31.6c17.7-10.5,36.3-19.2,54.8-28c16.1-7.6,32.2-15.1,47.3-24.5
		c12.9-7.9,24.8-17,34.5-28.8C541.8,349.5,550.6,330.4,552,308.4z M493.4,363.8c-7.4,9-16.5,15.9-26.4,22
		c-11.6,7.1-23.9,12.9-36.2,18.7c-14.2,6.7-28.4,13.4-41.9,21.4c-11.9,7-23.1,15.1-33.5,24.1c-0.4,0.3-0.7,0.6-1.2,1
		c-0.2-0.4-0.3-0.8-0.4-1.2c-6.5-20.9-16.2-40.3-27.6-59c-7.3-11.9-15.1-23.6-22.3-35.6c-6.5-10.8-12.4-21.8-16.4-33.8
		c-4.6-13.9-5.9-28.1-3.4-42.7c3-17.4,10.7-32.1,25-42.8c13.4-10.1,28.7-14.6,45.3-12.3c26.2,3.6,43.8,18.3,52.8,43.3
		c0.5,1.4,0.5,1.4,1.6,0.5c14.4-11.5,30.8-16.4,49-13.8c33.6,4.8,56,34.2,54.1,66C510.8,336.3,504,350.9,493.4,363.8z"/>
	<path class="st1" d="M164.7,85.5c-1.4,4.8-3,8.2-4.9,10.3c-1.8,2.1-4.7,3-8.7,2.7c-5.6-0.6-12.7-0.8-21.1-0.6
		c-8.4,0.1-17.2,0.4-26.2,0.6l-0.4,0.4c-1.7,8.4-3.2,16.3-4.6,23.6c-1.4,6.2-2.7,12-3.8,17.5c-1.1,5.5-1.8,9.1-2.1,10.8
		c-0.8,1.7-2.2,3-4,4c-1.8,1-3.7,1.8-5.7,2.3c-2.3,0.8-4.5,1.4-6.8,1.7c-2.3,0.3-4.5,0.4-6.8,0.4c-4.5,0-8.2-1-11-3l13.5-57
		c-6.5,0.3-13.1,0.8-19.8,1.7c-5.6,0.6-11.8,1.5-18.6,2.7c-6.8,1.3-13.1,2.6-19,4c-0.6-2-0.8-4.1-0.6-6.3c0.1-2.2,0.5-4.4,1.1-6.3
		c0.6-2.2,1.1-4.5,1.7-6.8c0.8-2.2,2.2-4.9,4.2-8c2-3.1,3.9-5.1,5.9-5.9c2-1.1,8-2.2,18.2-3.2c10.1-1,21.4-1.8,33.8-2.3l11.4-47.3
		c2.2-2.2,4.6-3.9,7.2-5.1c2.5-1.1,4.9-2,7.2-2.5c2.8-0.6,5.5-0.8,8-0.8s4.8,0.3,6.8,0.8c1.4,0.6,2.7,1.2,3.8,1.9
		c1.1,0.7,1.4,1.6,0.8,2.7c-1.7,5.3-3.3,10.9-4.9,16.7c-1.6,5.8-3,11.2-4.4,16.3c-1.4,5.9-3,11.7-4.6,17.3
		c9.8,0.3,18.6,0.6,26.2,0.8c7.6,0.3,14.9,1,22,2.1c3.9,0.3,6.3,1.4,7.2,3.4C166.4,77.3,166.1,80.7,164.7,85.5z"/>
	<path class="st1" d="M517.4,426.7c-0.8,9.6-2.3,19.3-4.6,29c-2.3,9.7-5.2,19.1-8.6,28.1c-3.4,9-7.4,17.5-12,25.3
		c-4.6,7.9-9.7,14.7-15.2,20.5c-5.6,5.8-11.5,10.4-17.9,13.7c-6.3,3.4-12.9,5-19.8,5c-1.4,0-3.5-0.3-6.3-0.8c-2.8-0.5-5.8-1.8-9-3.7
		c-3.2-1.9-6.5-4.7-9.7-8.4c-3.3-3.7-6.1-8.6-8.6-14.8c-2.4-6.2-4.2-13.9-5.3-23c-1.1-9.2-1.1-20.2,0-33.2
		c1.8-20.5,5.6-39.1,11.3-55.8s12.3-31,19.7-43c7.4-11.9,15.1-21.1,23-27.6c7.9-6.5,15-9.7,21.1-9.7c2.4,0,4.5,0.5,6.1,1.5
		c1.6,1,2.9,2.3,3.8,3.8c1.1-0.3,2.3-0.5,3.7-0.7c1.4-0.2,2.9-0.2,4.6-0.2c4.4,0,8.4,2.3,11.8,6.9c3.4,4.6,6.3,11,8.5,19.2
		c2.2,8.2,3.7,18.1,4.4,29.7C518.9,400.1,518.6,412.8,517.4,426.7z M440,535c6,0,12.1-3.1,18.3-9.2c6.3-6.1,12.1-14.4,17.4-24.9
		c5.3-10.5,9.9-22.6,13.7-36.5c3.8-13.9,6.4-28.6,7.8-44.2c0.3-4.1,0.5-8.9,0.7-14.2c0.2-5.3,0.2-10.8,0-16.3
		c-0.2-5.5-0.5-11-1-16.4c-0.5-5.4-1.3-10.2-2.2-14.3s-2.1-7.5-3.4-10.1c-1.4-2.6-3-3.9-4.8-3.9c-2,0.2-4,0.8-6,1.8
		c-1.7,0.9-3.6,2.4-5.8,4.5c-2.2,2.1-4.4,4.9-6.5,8.6c-0.5-0.3-0.8-0.8-1-1.4c-0.2-0.6-0.5-1.2-0.8-1.8c-0.3-0.6-0.5-1.3-0.7-2.1
		c-0.3-0.5-0.5-1-0.5-1.7s-0.1-1.5-0.2-2.4c-3.1,3.4-6.7,8.1-10.9,14.3c-4.2,6.2-8.4,13.9-12.6,23c-4.2,9.2-8,20-11.5,32.4
		c-3.4,12.5-5.8,26.6-7.2,42.5c-1.2,14.1-1.5,25.7-0.9,35.1c0.6,9.3,1.8,16.7,3.6,22.2c1.8,5.5,3.9,9.4,6.5,11.6
		C434.5,533.9,437.2,535,440,535z"/>
	<path class="st1" d="M591.7,509.4c-3.5,0-6.5-0.7-9-1.9c-2.5-1.3-4.5-3-6.1-5.2c-1.5-2.1-2.5-4.6-3-7.4c-0.5-2.8-0.3-5.8,0.5-9
		c0.5-2.1,1.2-5,2.3-8.6c1.1-3.6,2.2-7.5,3.3-11.7c1.1-4.2,2.2-8.4,3.2-12.6c1-4.2,1.6-8,1.9-11.5c0.3-3.4,0.2-6.3-0.5-8.5
		c-0.6-2.2-1.9-3.3-3.9-3.3c-2.4,0-5,0.8-7.6,2.4c-2.6,1.6-5.2,3.8-7.9,6.5c-2.7,2.7-5.3,5.9-8,9.5c-2.7,3.6-5.3,7.3-7.9,11.1
		c-1.4,5.2-2.5,9.7-3.4,13.6c-0.9,3.9-1.7,7.4-2.4,10.5c-0.7,3.1-1.3,5.9-1.9,8.2c-0.6,2.4-1.1,4.6-1.6,6.8c-0.5,1.5-1.8,3-4.1,4.5
		c-2.3,1.4-4.7,2.6-7.3,3.6c-2.6,0.9-4.8,1.4-6.8,1.4c-1.9,0-2.7-0.7-2.4-2.1c0.2-0.9,0.7-3,1.5-6.2c0.8-3.2,1.8-7,3-11.3
		c1.1-4.4,2.3-9,3.6-13.9c1.2-4.9,2.4-9.5,3.4-14c0.8-3.5,1.6-7.4,2.5-11.7c0.8-3.7,1.7-7.9,2.9-12.8c1.1-4.9,2.5-10.2,4-16
		c1.1-0.9,2.2-1.6,3.3-2.2c1.1-0.5,2.3-1,3.6-1.3c1.2-0.5,2.5-0.8,3.9-0.9c1.2,0,2.4,0.1,3.7,0.2c1.1,0.2,2.2,0.4,3.3,0.8
		c1.1,0.4,2.2,1,3.1,1.7c-0.5,1.1-1,2.6-1.6,4.5c-0.6,1.9-1.2,3.9-1.8,6.1c-0.6,2.4-1.4,5-2.3,7.6c2-2.7,4.2-5.5,6.8-8.4
		c2.5-2.8,5.3-5.4,8.2-7.7s6.1-4.2,9.5-5.6c3.4-1.5,6.8-2.2,10.3-2.2c2.9,0,5.5,0.8,7.8,2.5c2.3,1.7,4.1,4,5.4,7
		c1.3,3,2.1,6.5,2.3,10.7c0.2,4.1-0.3,8.6-1.7,13.5l-2.5,10.1c-0.8,3.2-1.7,7-2.9,11.3c-1.1,4.4-2.6,9.1-4.2,14.3
		c-0.9,3.4-1.3,6.3-1,8.7c0.2,2.4,1.7,3.7,4.5,3.7s6.2-1.7,10.4-5c4.2-3.4,8.4-7.4,12.7-12.1c4.3-4.7,8.3-9.6,12.1-14.5
		c3.8-5,6.7-9,8.7-12c1.4-2,2.7-3.3,3.9-3.9c1.2-0.6,2.2-0.7,2.9-0.2c0.7,0.5,1,1.5,1,3.1c0,1.6-0.6,3.6-1.8,6.1
		c-1.1,2.1-2.7,5-4.9,8.5c-2.2,3.5-4.9,7.3-7.9,11.2c-3.1,4-6.3,8-9.9,12c-3.5,4-7.2,7.7-11,11c-3.8,3.3-7.6,6-11.3,8
		C598.7,508.3,595.1,509.4,591.7,509.4z"/>
	<path class="st1" d="M737.1,456c-4.6,6.7-9.8,13.3-15.6,19.6c-5.8,6.3-12,12-18.4,17c-6.5,5-13.1,9-19.9,12
		c-6.8,3.1-13.4,4.6-19.8,4.6c-3.4,0-7-0.8-10.9-2.4c-3.9-1.6-7.4-4.1-10.7-7.4c-3.2-3.4-5.8-7.7-7.7-13.1
		c-1.9-5.3-2.5-11.8-1.7-19.5c0.6-6.3,2.6-12.9,5.8-19.8c3.3-6.9,7.3-13.3,12.1-19.1c4.8-5.8,10.2-10.6,16.3-14.4
		c6-3.8,12.1-5.7,18.2-5.7c5.8,0,10,1.5,12.6,4.4c2.6,2.9,3.7,6.5,3.4,10.8c-0.5,4.7-1.8,9.1-4,13.1c-2.2,4-4.9,7.6-7.9,10.8
		c-3.1,3.2-6.3,6.1-9.7,8.7c-3.4,2.6-6.7,5-9.7,7.1c-3.4,2.3-6.6,4.5-9.6,6.5c-3.1,2.1-5.7,3.9-8,5.6c0.2,3.8,0.8,7,2.1,9.6
		c1.2,2.6,2.7,4.7,4.6,6.3c1.8,1.6,3.9,2.8,6.3,3.4c2.4,0.7,4.8,1,7.2,1c5.2,0,10.6-1.6,16.3-4.9c5.6-3.3,11.2-7.3,16.6-11.9
		c5.4-4.7,10.5-9.5,15.1-14.5c4.7-5,8.5-9.4,11.6-13.1c1.1-1.2,2.2-1.9,3.3-2.2c1.1-0.2,2.1-0.1,2.7,0.5c0.7,0.5,1,1.5,1,2.7
		C738.7,452.8,738.1,454.3,737.1,456z M678.4,420.7c-1.8,0-4,0.9-6.5,2.7c-2.5,1.8-5,4.5-7.4,7.9c-2.4,3.4-4.7,7.6-6.9,12.6
		c-2.1,5-3.7,10.7-4.8,17.1c1.8-1.4,3.8-2.8,6-4.2c2.1-1.5,4.3-3,6.4-4.7c6.6-5,11.1-9.5,13.7-13.3c2.6-3.8,4-7.1,4.4-9.9
		c0.3-2.9,0-5-0.9-6.3C681.4,421.4,680.1,420.7,678.4,420.7z"/>
	<path class="st1" d="M866.7,418.4c-0.8,2.6-1.6,4.5-2.6,5.6c-1,1.1-2.6,1.6-4.7,1.5c-3.1-0.3-6.9-0.4-11.5-0.3
		c-4.6,0.1-9.3,0.2-14.2,0.3l-0.2,0.2c-0.9,4.6-1.8,8.9-2.5,12.8c-0.8,3.4-1.5,6.5-2.1,9.5c-0.6,3-1,4.9-1.1,5.8
		c-0.5,0.9-1.2,1.6-2.2,2.2c-1,0.5-2,1-3.1,1.3c-1.2,0.5-2.4,0.8-3.7,0.9c-1.2,0.2-2.4,0.2-3.7,0.2c-2.4,0-4.4-0.5-6-1.6l7.3-30.9
		c-3.5,0.2-7.1,0.5-10.8,0.9c-3.1,0.3-6.4,0.8-10.1,1.5c-3.7,0.7-7.1,1.4-10.3,2.2c-0.3-1.1-0.4-2.2-0.3-3.4
		c0.1-1.2,0.3-2.4,0.6-3.4c0.3-1.2,0.6-2.4,0.9-3.7c0.5-1.2,1.2-2.7,2.3-4.4c1.1-1.7,2.1-2.8,3.2-3.2c1.1-0.6,4.4-1.2,9.9-1.7
		c5.5-0.5,11.6-1,18.3-1.3l6.2-25.7c1.2-1.2,2.5-2.1,3.9-2.7c1.4-0.6,2.7-1.1,3.9-1.4c1.5-0.3,3-0.5,4.4-0.5c1.4,0,2.6,0.2,3.7,0.5
		c0.8,0.3,1.5,0.7,2.1,1c0.6,0.4,0.8,0.9,0.5,1.5c-0.9,2.9-1.8,5.9-2.6,9c-0.8,3.1-1.6,6.1-2.4,8.8c-0.8,3.2-1.6,6.3-2.5,9.4
		c5.3,0.2,10.1,0.3,14.2,0.5c4.1,0.2,8.1,0.5,11.9,1.1c2.1,0.2,3.4,0.8,3.9,1.8C867.7,414,867.5,415.8,866.7,418.4z"/>
	<path class="st1" d="M1054.4,426.7c-0.8,9.6-2.3,19.3-4.6,29c-2.3,9.7-5.2,19.1-8.6,28.1c-3.4,9-7.4,17.5-12,25.3
		c-4.6,7.9-9.7,14.7-15.2,20.5c-5.6,5.8-11.5,10.4-17.9,13.7c-6.3,3.4-12.9,5-19.8,5c-1.4,0-3.5-0.3-6.3-0.8c-2.8-0.5-5.8-1.8-9-3.7
		c-3.2-1.9-6.5-4.7-9.7-8.4c-3.3-3.7-6.1-8.6-8.6-14.8c-2.4-6.2-4.2-13.9-5.3-23c-1.1-9.2-1.1-20.2,0-33.2
		c1.8-20.5,5.6-39.1,11.3-55.8s12.3-31,19.7-43c7.4-11.9,15.1-21.1,23-27.6c7.9-6.5,15-9.7,21.1-9.7c2.4,0,4.5,0.5,6.1,1.5
		c1.6,1,2.9,2.3,3.8,3.8c1.1-0.3,2.3-0.5,3.7-0.7c1.4-0.2,2.9-0.2,4.6-0.2c4.4,0,8.4,2.3,11.8,6.9c3.4,4.6,6.3,11,8.5,19.2
		c2.2,8.2,3.7,18.1,4.4,29.7C1055.9,400.1,1055.6,412.8,1054.4,426.7z M976.9,535c6,0,12.1-3.1,18.3-9.2
		c6.3-6.1,12.1-14.4,17.4-24.9c5.3-10.5,9.9-22.6,13.7-36.5c3.8-13.9,6.4-28.6,7.8-44.2c0.3-4.1,0.5-8.9,0.7-14.2
		c0.2-5.3,0.2-10.8,0-16.3c-0.2-5.5-0.5-11-1-16.4c-0.5-5.4-1.3-10.2-2.2-14.3s-2.1-7.5-3.4-10.1c-1.4-2.6-3-3.9-4.8-3.9
		c-2,0.2-4,0.8-6,1.8c-1.7,0.9-3.6,2.4-5.8,4.5c-2.2,2.1-4.4,4.9-6.5,8.6c-0.5-0.3-0.8-0.8-1-1.4c-0.2-0.6-0.5-1.2-0.8-1.8
		c-0.3-0.6-0.5-1.3-0.7-2.1c-0.3-0.5-0.5-1-0.5-1.7s-0.1-1.5-0.2-2.4c-3.1,3.4-6.7,8.1-10.9,14.3c-4.2,6.2-8.4,13.9-12.6,23
		c-4.2,9.2-8,20-11.5,32.4c-3.4,12.5-5.8,26.6-7.2,42.5c-1.2,14.1-1.5,25.7-0.9,35.1c0.6,9.3,1.8,16.7,3.6,22.2
		c1.8,5.5,3.9,9.4,6.5,11.6C971.5,533.9,974.2,535,976.9,535z"/>
	<path class="st1" d="M1128.7,509.4c-3.5,0-6.5-0.7-9-1.9c-2.5-1.3-4.5-3-6.1-5.2c-1.5-2.1-2.5-4.6-3-7.4c-0.5-2.8-0.3-5.8,0.5-9
		c0.5-2.1,1.2-5,2.3-8.6c1.1-3.6,2.2-7.5,3.3-11.7c1.1-4.2,2.2-8.4,3.2-12.6c1-4.2,1.6-8,1.9-11.5c0.3-3.4,0.2-6.3-0.5-8.5
		c-0.6-2.2-1.9-3.3-3.9-3.3c-2.4,0-5,0.8-7.6,2.4c-2.6,1.6-5.2,3.8-7.9,6.5c-2.7,2.7-5.3,5.9-8,9.5c-2.7,3.6-5.3,7.3-7.9,11.1
		c-1.4,5.2-2.5,9.7-3.4,13.6c-0.9,3.9-1.7,7.4-2.4,10.5c-0.7,3.1-1.3,5.9-1.9,8.2c-0.6,2.4-1.1,4.6-1.6,6.8c-0.5,1.5-1.8,3-4.1,4.5
		c-2.3,1.4-4.7,2.6-7.3,3.6c-2.6,0.9-4.8,1.4-6.8,1.4c-1.9,0-2.7-0.7-2.4-2.1c0.2-0.9,0.7-3,1.5-6.2c0.8-3.2,1.8-7,3-11.3
		c1.1-4.4,2.3-9,3.6-13.9c1.2-4.9,2.4-9.5,3.4-14c0.8-3.5,1.6-7.4,2.5-11.7c0.8-3.7,1.7-7.9,2.9-12.8c1.1-4.9,2.5-10.2,4-16
		c1.1-0.9,2.2-1.6,3.3-2.2c1.1-0.5,2.3-1,3.6-1.3c1.2-0.5,2.5-0.8,3.9-0.9c1.2,0,2.4,0.1,3.7,0.2c1.1,0.2,2.2,0.4,3.3,0.8
		c1.1,0.4,2.2,1,3.1,1.7c-0.5,1.1-1,2.6-1.6,4.5c-0.6,1.9-1.2,3.9-1.8,6.1c-0.6,2.4-1.4,5-2.3,7.6c2-2.7,4.2-5.5,6.8-8.4
		c2.5-2.8,5.3-5.4,8.2-7.7s6.1-4.2,9.5-5.6c3.4-1.5,6.8-2.2,10.3-2.2c2.9,0,5.5,0.8,7.8,2.5c2.3,1.7,4.1,4,5.4,7
		c1.3,3,2.1,6.5,2.3,10.7c0.2,4.1-0.3,8.6-1.7,13.5l-2.5,10.1c-0.8,3.2-1.7,7-2.9,11.3c-1.1,4.4-2.6,9.1-4.2,14.3
		c-0.9,3.4-1.3,6.3-1,8.7c0.2,2.4,1.7,3.7,4.5,3.7s6.2-1.7,10.4-5c4.2-3.4,8.4-7.4,12.7-12.1c4.3-4.7,8.3-9.6,12.1-14.5
		c3.8-5,6.7-9,8.7-12c1.4-2,2.7-3.3,3.9-3.9c1.2-0.6,2.2-0.7,2.9-0.2c0.7,0.5,1,1.5,1,3.1c0,1.6-0.6,3.6-1.8,6.1
		c-1.1,2.1-2.7,5-4.9,8.5c-2.2,3.5-4.9,7.3-7.9,11.2c-3.1,4-6.3,8-9.9,12c-3.5,4-7.2,7.7-11,11c-3.8,3.3-7.6,6-11.3,8
		C1135.6,508.3,1132.1,509.4,1128.7,509.4z"/>
	<path class="st1" d="M1274,456c-4.6,6.7-9.8,13.3-15.6,19.6c-5.8,6.3-12,12-18.4,17c-6.5,5-13.1,9-19.9,12
		c-6.8,3.1-13.4,4.6-19.8,4.6c-3.4,0-7-0.8-10.9-2.4c-3.9-1.6-7.4-4.1-10.7-7.4c-3.2-3.4-5.8-7.7-7.7-13.1
		c-1.9-5.3-2.5-11.8-1.7-19.5c0.6-6.3,2.6-12.9,5.8-19.8c3.3-6.9,7.3-13.3,12.1-19.1c4.8-5.8,10.2-10.6,16.3-14.4
		c6-3.8,12.1-5.7,18.2-5.7c5.8,0,10,1.5,12.6,4.4c2.6,2.9,3.7,6.5,3.4,10.8c-0.5,4.7-1.8,9.1-4,13.1c-2.2,4-4.9,7.6-7.9,10.8
		c-3.1,3.2-6.3,6.1-9.7,8.7c-3.4,2.6-6.7,5-9.7,7.1c-3.4,2.3-6.6,4.5-9.6,6.5c-3.1,2.1-5.7,3.9-8,5.6c0.2,3.8,0.8,7,2.1,9.6
		c1.2,2.6,2.7,4.7,4.6,6.3c1.8,1.6,3.9,2.8,6.3,3.4c2.4,0.7,4.8,1,7.2,1c5.2,0,10.6-1.6,16.3-4.9c5.6-3.3,11.2-7.3,16.6-11.9
		c5.4-4.7,10.5-9.5,15.1-14.5c4.7-5,8.5-9.4,11.6-13.1c1.1-1.2,2.2-1.9,3.3-2.2c1.1-0.2,2.1-0.1,2.7,0.5c0.7,0.5,1,1.5,1,2.7
		C1275.7,452.8,1275.1,454.3,1274,456z M1215.4,420.7c-1.8,0-4,0.9-6.5,2.7c-2.5,1.8-5,4.5-7.4,7.9c-2.4,3.4-4.7,7.6-6.9,12.6
		c-2.1,5-3.7,10.7-4.8,17.1c1.8-1.4,3.8-2.8,6-4.2c2.1-1.5,4.3-3,6.4-4.7c6.6-5,11.1-9.5,13.7-13.3c2.6-3.8,4-7.1,4.4-9.9
		c0.3-2.9,0-5-0.9-6.3C1218.4,421.4,1217.1,420.7,1215.4,420.7z"/>
</g>
</svg>
