<?xml version="1.0" encoding="utf-8"?>
<!-- Generator: Adobe Illustrator 19.2.0, SVG Export Plug-In . SVG Version: 6.00 Build 0)  -->
<!DOCTYPE svg PUBLIC "-//W3C//DTD SVG 1.1//EN" "http://www.w3.org/Graphics/SVG/1.1/DTD/svg11.dtd">
<svg version="1.1" id="Layer_1" xmlns="http://www.w3.org/2000/svg" xmlns:xlink="http://www.w3.org/1999/xlink" x="0px" y="0px"
	 width="242.2px" height="365.1px" viewBox="0 0 242.2 365.1" style="enable-background:new 0 0 242.2 365.1;" xml:space="preserve"
	>
<style type="text/css">
	.st0{fill:#FF8671;}
	.st1{fill:none;stroke:#FF8671;stroke-width:13.6949;stroke-linecap:round;stroke-linejoin:round;stroke-miterlimit:10;}
</style>
<g>
	<g>
		<path class="st0" d="M207.9,146.8h-16.4c-3.1-11.2-7.3-28.6-22-45c-9.4-10.1-27.5-25.1-49.8-25.1c-24.4,0-41.1,17.1-41.1,33.8
			c0,23.7,22,31,55.8,42.2c34.1,11.2,50.5,16.7,64.8,31c11.8,11.5,20.2,27.9,20.2,46c0,30-25.1,78.1-91.6,78.1
			c-14.3,0-29.6-1.7-56.8-14.6c-5.9-3.1-8.7-3.8-11.2-3.8c-5.9,0-9.4,5.6-10.5,7.3l-4.9,7.3H29.2v-89.6h15.3
			c7,27.9,20.2,44.6,28.2,54c11.2,12.2,25.4,22.3,50.5,22.3c42.9,0,46-31,46-36.9c0-23.7-23-31.4-62.4-44.3
			c-33.1-11.2-75.6-25.4-75.6-72.8c0-48.1,41.5-76.3,85.4-76.3c19.9,0,34.8,5.6,48.8,13.2c9.4,5.2,10.5,5.9,12.2,5.9
			c3.8,0,7-4.5,8.7-7.3l5.2-7.7h14.3L207.9,146.8z M37.9,291.8c3.8-5.6,8.7-13.2,16.7-13.2c4.9,0,11.2,3.5,15.7,5.9
			c-21.6-18.1-27.2-31-32.4-51.2V291.8z M60.2,88.6C47.6,102.2,41,118.9,41,136c0,12.9,3.5,27.5,18.5,40.8
			c11.2,9.8,20.6,14.3,51.2,24.7c43.9,14.6,68.3,23.3,68.3,52.6c0,19.9-12.2,29.6-19.5,35.5c7.7-4.2,28.2-15.3,28.2-42.5
			c0-32.4-25.4-40.8-72.8-56.8c-35.5-11.8-64.1-21.6-64.1-61.7c0-35.5,28.6-51.9,39.7-58.2C77.6,75,69.9,78.2,60.2,88.6z
			 M191.6,78.9c-2.4,3.8-6.3,11.2-11.5,11.2c-2.4,0-3.5-0.7-12.2-6.3c-5.2-3.1-8.7-4.5-14.6-7.3c23.7,16.4,32.1,28.9,40.1,49.8
			L191.6,78.9z"/>
	</g>
	<line class="st1" x1="111.4" y1="17.2" x2="111.4" y2="350.7"/>
	<line class="st1" x1="131.1" y1="17.6" x2="131.1" y2="351.1"/>
</g>
</svg>
