<?xml version="1.0" encoding="utf-8"?>
<!-- Generator: Adobe Illustrator 19.2.0, SVG Export Plug-In . SVG Version: 6.00 Build 0)  -->
<!DOCTYPE svg PUBLIC "-//W3C//DTD SVG 1.1//EN" "http://www.w3.org/Graphics/SVG/1.1/DTD/svg11.dtd">
<svg version="1.1" id="Layer_1" xmlns="http://www.w3.org/2000/svg" xmlns:xlink="http://www.w3.org/1999/xlink" x="0px" y="0px"
	 width="501.2px" height="365.1px" viewBox="0 0 501.2 365.1" style="enable-background:new 0 0 501.2 365.1;" xml:space="preserve"
	>
<style type="text/css">
	.st0{fill:#FF8671;}
	.st1{fill:#FFB4AA;}
</style>
<g>
	<path class="st0" d="M326.8,112.4c-9.2-39.9-47.5-68.1-90.7-61.9c-23.5,3.4-41.9,15.3-55.5,34.7c-1.1,1.6-1,1.5-2.2,0
		c-20.1-27.6-47.1-39.4-80.8-34.4c-21.4,3.2-38.6,14.3-51.5,31.6c-13.8,18.4-18,39.3-15.3,61.9c2.2,18.8,8.9,35.9,19.6,51.5
		c9.3,13.4,20.6,24.9,32.5,35.9c13.2,12.2,27,23.8,40.3,35.9c20.8,18.9,39.8,39.4,55.4,62.8c0.3,0.4,0.6,0.8,1,1.3
		c0.4-0.6,0.8-1.1,1.1-1.7c9.6-15,20.5-28.9,32.6-41.9c13.8-14.8,28.9-28.2,44-41.6c13.1-11.6,26.2-23.2,37.9-36.2
		c10-11.1,18.7-22.9,24.7-36.7C328.6,154,331.7,133.6,326.8,112.4z M149.5,265.1l0.1,0.2c-0.1-0.1-0.2-0.2-0.3-0.3L149.5,265.1z"/>
	<path class="st1" d="M463.3,107.3c-9.2-39.9-47.5-68.1-90.7-61.9c-23.5,3.4-41.9,15.3-55.5,34.7c-1.1,1.6-1,1.5-2.2,0
		c-20.1-27.6-47.1-39.4-80.8-34.4C212.7,49,195.5,60,182.6,77.4c-13.8,18.4-18,39.3-15.3,61.9c2.2,18.8,8.9,35.9,19.6,51.5
		c9.3,13.4,20.6,24.9,32.5,35.9c13.2,12.2,27,23.8,40.3,35.9c20.8,18.9,39.8,39.4,55.4,62.8c0.3,0.4,0.6,0.8,1,1.3
		c0.4-0.6,0.8-1.1,1.1-1.7c9.6-15,20.5-28.9,32.6-41.9c13.8-14.8,28.9-28.2,44-41.6c13.1-11.6,26.2-23.2,37.9-36.2
		c10-11.1,18.7-22.9,24.7-36.7C465.1,148.9,468.1,128.4,463.3,107.3z M423.3,175.7c-4.5,10.5-11.2,19.6-18.9,28
		c-9,9.9-19,18.8-29,27.7c-11.5,10.3-23.1,20.5-33.7,31.8c-9.3,9.9-17.6,20.6-25,32.1c-0.3,0.4-0.5,0.8-0.9,1.3
		c-0.3-0.4-0.5-0.7-0.7-1c-11.9-17.9-26.5-33.6-42.4-48c-10.2-9.3-20.7-18.1-30.8-27.4c-9.1-8.4-17.8-17.2-24.9-27.4
		c-8.2-11.9-13.3-24.9-15-39.3c-2-17.3,1.2-33.2,11.7-47.3c9.9-13.2,23-21.7,39.4-24.1C279,78,299.7,87,315,108.1
		c0.9,1.2,0.8,1.2,1.7,0c10.4-14.9,24.5-24,42.5-26.6c33-4.7,62.3,16.8,69.3,47.3C432.1,145,429.8,160.6,423.3,175.7z"/>
</g>
</svg>
