<?xml version="1.0" encoding="utf-8"?>
<!-- Generator: Adobe Illustrator 19.2.0, SVG Export Plug-In . SVG Version: 6.00 Build 0)  -->
<!DOCTYPE svg PUBLIC "-//W3C//DTD SVG 1.1//EN" "http://www.w3.org/Graphics/SVG/1.1/DTD/svg11.dtd">
<svg version="1.1" id="Layer_1" xmlns="http://www.w3.org/2000/svg" xmlns:xlink="http://www.w3.org/1999/xlink" x="0px" y="0px"
	 width="558.5px" height="553.3px" viewBox="0 0 558.5 553.3" style="enable-background:new 0 0 558.5 553.3;" xml:space="preserve"
	>
<style type="text/css">
	.st0{fill:#FF8671;}
	.st1{fill:#FFB4AA;}
</style>
<g>
	<path class="st0" d="M432.8,247.8c-10.3-44.9-53.4-76.6-102-69.7c-26.4,3.8-47.2,17.2-62.5,39.1c-1.2,1.8-1.2,1.7-2.4,0
		c-22.6-31-53-44.3-90.9-38.7c-24,3.6-43.4,16.1-57.9,35.5c-15.5,20.7-20.2,44.2-17.3,69.6c2.5,21.2,10,40.4,22.1,57.9
		c10.4,15,23.2,28,36.6,40.3c14.9,13.7,30.4,26.8,45.4,40.4c23.4,21.3,44.8,44.3,62.3,70.7c0.3,0.5,0.7,0.9,1.1,1.5
		c0.5-0.7,0.9-1.3,1.3-1.9c10.8-16.9,23.1-32.5,36.7-47.2c15.5-16.6,32.6-31.7,49.5-46.8c14.7-13.1,29.4-26.1,42.7-40.7
		c11.2-12.4,21.1-25.8,27.7-41.3C434.8,294.6,438.3,271.6,432.8,247.8z M233.3,419.6l0.1,0.2c-0.1-0.1-0.2-0.2-0.3-0.3L233.3,419.6z
		"/>
	<path class="st0" d="M487,130.5c-2.5-4.9-8.5-7.3-13.9-5c-2.9,1.2-5,3.4-6.1,6.4c-0.1,0.2-0.1,0.2-0.3,0.1
		c-3.6-2.9-7.5-3.5-11.7-1.8c-2.7,1.1-4.5,3.2-5.7,5.9c-1.2,2.9-1,5.7,0.1,8.6c0.9,2.4,2.4,4.4,4.3,6c1.7,1.4,3.5,2.5,5.5,3.6
		c2.1,1.1,4.3,2.2,6.5,3.3c3.3,1.8,6.5,3.8,9.3,6.3c0.1,0,0.1,0.1,0.2,0.1c0-0.1,0.1-0.2,0.1-0.3c0.7-2.3,1.7-4.5,2.8-6.6
		c1.3-2.4,2.8-4.7,4.3-6.9c1.3-2,2.6-3.9,3.7-6c0.9-1.8,1.7-3.6,2-5.6C488.7,135.9,488.4,133.1,487,130.5z M469,156.4L469,156.4
		C469.1,156.4,469,156.4,469,156.4L469,156.4z"/>
	<path class="st0" d="M437.8,124.4c-1.6-7.6-8.8-12.9-17-11.9c-4.4,0.6-7.9,2.8-10.5,6.4c-0.2,0.3-0.2,0.3-0.4,0
		c-3.7-5.2-8.8-7.5-15.2-6.6c-4,0.6-7.3,2.6-9.8,5.9c-2.6,3.4-3.5,7.4-3,11.6c0.4,3.6,1.6,6.8,3.6,9.7c1.7,2.5,3.8,4.7,6.1,6.8
		c2.5,2.3,5.1,4.5,7.5,6.9c3.9,3.6,7.4,7.5,10.3,12c0.1,0.1,0.1,0.2,0.2,0.3c0.1-0.1,0.1-0.2,0.2-0.3c1.8-2.8,3.9-5.4,6.2-7.8
		c2.6-2.8,5.5-5.3,8.4-7.8c2.5-2.2,5-4.3,7.2-6.7c1.9-2.1,3.6-4.3,4.7-6.9C438,132.3,438.7,128.4,437.8,124.4z M404,152.9L404,152.9
		C404,152.9,404,152.9,404,152.9L404,152.9z"/>
	<path class="st0" d="M469.3,69.9c-3-4.6-9.2-6.4-14.4-3.5c-2.8,1.5-4.6,3.9-5.4,7c-0.1,0.2-0.1,0.2-0.3,0.1
		c-3.8-2.5-7.8-2.7-11.8-0.5c-2.5,1.4-4.2,3.6-5,6.4c-0.9,3-0.4,5.8,1,8.5c1.2,2.3,2.8,4.1,4.9,5.6c1.8,1.2,3.8,2.2,5.8,3
		c2.2,0.9,4.5,1.7,6.8,2.6c3.5,1.4,6.9,3.1,10,5.3c0.1,0,0.1,0.1,0.2,0.1c0-0.1,0-0.2,0.1-0.3c0.5-2.3,1.2-4.6,2.1-6.8
		c1-2.5,2.3-4.9,3.6-7.3c1.1-2.1,2.2-4.2,3.1-6.4c0.7-1.9,1.3-3.8,1.4-5.8C471.5,75.1,470.9,72.4,469.3,69.9z M454.1,97.6
		L454.1,97.6C454.1,97.6,454.1,97.6,454.1,97.6L454.1,97.6z"/>
	<path class="st1" d="M487.5,283.4c-2.6-8.1-10.6-14-23.6-17.7c-12.1-3.4-28.2-4.7-47.8-4c-40.1,1.6-90.7,11.8-142.6,28.8
		c-51.8,17-98.7,38.7-132,61.1c-16.3,11-28.5,21.6-36.2,31.4c-8.3,10.6-11.2,20.1-8.5,28.2c2.6,8.1,10.6,14,23.6,17.7
		c9.9,2.8,22.4,4.2,37.3,4.2c3.4,0,6.9-0.1,10.5-0.2c12.9-0.5,27-1.9,41.8-4.2c-1.1-1.1-2.2-2.3-3.1-3.6c-13.7,2-26.7,3.3-38.8,3.8
		c-38.4,1.5-62.9-5.4-67.4-18.9c-4.4-13.5,11.3-33.6,43.2-55.1c33-22.2,79.5-43.7,131-60.6c51.5-16.8,101.7-27,141.5-28.6
		c3.5-0.1,6.9-0.2,10.1-0.2c32.6,0,53.2,6.8,57.2,19.1v0c4.4,13.5-11.3,33.6-43.2,55.1c-15.6,10.5-34.1,20.8-54.8,30.5
		c-0.4,0.6-1,1.3-1.6,2c-1.2,1.3-2.6,2.3-4.1,3.4c0,0,0,0-0.1,0c-1,1-1.9,2.1-3,3c25.1-11.2,47.5-23.3,65.8-35.7
		c16.3-11,28.5-21.6,36.2-31.5C487.2,301,490.1,291.5,487.5,283.4z"/>
	<path class="st1" d="M508.2,234.7c-3.3-10-13-17.3-29.1-21.9c-14.9-4.2-34.8-5.9-59-4.9c-49.5,2-112,14.6-175.9,35.5
		c-64,20.9-121.8,47.7-162.9,75.4c-20.1,13.5-35.1,26.6-44.7,38.8c-10.2,13.1-13.8,24.8-10.5,34.8c3.3,10,13,17.3,29.1,21.9
		c12.2,3.4,27.6,5.2,46,5.2c4.2,0,8.5-0.1,12.9-0.3c22.9-0.9,48.6-4.1,76-9.4c-0.7-0.6-1.4-1.3-2.1-1.9c-0.6-0.5-1.3-1-1.8-1.6
		c-0.2-0.2-0.4-0.4-0.6-0.7c-25.8,4.8-50,7.7-71.6,8.6c-47.4,1.9-77.7-6.6-83.2-23.4c-5.5-16.7,13.9-41.5,53.3-68
		c40.7-27.4,98.1-54,161.7-74.8c63.5-20.8,125.6-33.3,174.6-35.3c4.3-0.2,8.5-0.3,12.5-0.3c40.2,0,65.7,8.4,70.6,23.6
		c5.5,16.7-13.9,41.5-53.3,68c-8.4,5.6-17.4,11.2-27.1,16.8c-0.8,2.7-2.1,5.3-3.7,7.7c12.1-6.7,23.4-13.5,33.6-20.4
		c20.1-13.5,35.1-26.6,44.7-38.8C508,256.3,511.5,244.6,508.2,234.7z"/>
</g>
</svg>
