<?xml version="1.0" encoding="utf-8"?>
<!-- Generator: Adobe Illustrator 19.2.0, SVG Export Plug-In . SVG Version: 6.00 Build 0)  -->
<!DOCTYPE svg PUBLIC "-//W3C//DTD SVG 1.1//EN" "http://www.w3.org/Graphics/SVG/1.1/DTD/svg11.dtd">
<svg version="1.1" xmlns="http://www.w3.org/2000/svg" xmlns:xlink="http://www.w3.org/1999/xlink" x="0px" y="0px" width="473.9px"
	 height="483.3px" viewBox="0 0 473.9 483.3" style="enable-background:new 0 0 473.9 483.3;" xml:space="preserve">
<style type="text/css">
	.st0{fill:#FF8671;}
</style>
<g id="Background">
</g>
<g id="Layer_1">
	<g>
		<path class="st0" d="M350.5,190.6c7.3-0.7,14.1-3.7,22.2-5.8c-5.3,8-10.9,14.3-17.6,19.4c-4.4,3.3-5.8,6.9-6,12.4
			c-2.1,53.4-24.7,95.7-71.8,121.7c-45.2,24.9-91.7,23.4-137.3-1.1c-1.3-0.7-2.6-1.6-5.3-3.2c13.9,1.1,26.2,0.1,38.2-3.3
			c12-3.4,23-8.8,33.7-17.3c-10.8-1.2-20.2-3.9-28.2-10c-7.9-6.1-13.9-13.7-17.4-24.1c7.2,1.1,13.8,1,21.9-1.1
			c-12.3-3.4-21.5-8.8-28.5-17.6c-7-8.9-10.9-18.8-10.8-30.7c7,2.7,13.5,5.6,21.1,5.2c-21.9-22.2-27.1-46.8-14-64.9
			c17,20.2,37.8,34.8,62.7,43.5c11.2,3.9,22.8,6.2,34.7,7.2c3,0.3,3.9-0.1,3.5-3.7c-2.9-21.6,7.3-41.4,26-51.2
			c18.5-9.7,40.1-6.6,56.3,8.1c1.8,1.6,3.3,1.8,5.5,1.3c9.4-2.3,18.3-5.7,27.7-10.9c-3.7,10.9-10.1,18.7-18.6,24.9
			C348,191.8,349.5,190.8,350.5,190.6z"/>
		<g>
			<g>
				<g>
					<g>
						<path class="st0" d="M428.1,245.4c0,0,0.1,1.2,0.1,3.4c0,1.1,0.1,2.5,0.2,4.2c0,0.8,0.1,1.7,0.1,2.7c0,1,0,2,0,3.1
							c0,8.7-0.5,21.7-3.9,37.9c-0.5,2-1,4.1-1.5,6.2c-0.6,2.1-1.2,4.3-1.8,6.5c-0.6,2.2-1.4,4.4-2.1,6.7c-0.8,2.3-1.5,4.6-2.4,7
							c-3.4,9.4-8,19.4-13.9,29.5c-5.9,10.1-13.1,20.4-21.9,30.3c-8.8,9.9-19.1,19.5-31.1,28c-12,8.4-25.4,16-40.1,22.2
							c-1.8,0.8-3.7,1.5-5.6,2.2c-1.9,0.7-3.8,1.4-5.7,2.1c-1.9,0.6-3.9,1.2-5.8,1.9c-1,0.3-2,0.6-2.9,0.9c-1,0.3-2,0.5-3,0.8
							c-2,0.5-4,1.1-6,1.6c-2,0.5-4.1,0.9-6.1,1.4c-1,0.2-2.1,0.4-3.1,0.7l-1.5,0.3l-1.6,0.3c-2.1,0.3-4.2,0.7-6.3,1
							c-2.1,0.4-4.2,0.6-6.4,0.8c-2.1,0.2-4.3,0.5-6.4,0.7c-2.2,0.1-4.3,0.2-6.5,0.4c-1.1,0.1-2.2,0.1-3.3,0.2c-1.1,0-2.2,0-3.3,0
							c-2.2,0-4.4,0-6.6,0c-2.2,0-4.4-0.2-6.6-0.3c-4.5-0.1-8.9-0.7-13.4-1.1c-8.9-1.2-18-2.7-26.9-5.2c-4.5-1.1-8.9-2.6-13.3-4.1
							c-2.2-0.8-4.4-1.6-6.6-2.5l-3.3-1.3l-3.2-1.4c-17.3-7.4-33.8-17.5-48.9-29.8c-1.9-1.6-3.7-3.1-5.6-4.7c-1.8-1.6-3.6-3.3-5.4-5
							c-0.9-0.8-1.8-1.7-2.7-2.5l-2.6-2.6l-2.6-2.6c-0.9-0.9-1.7-1.8-2.5-2.7c-1.6-1.8-3.3-3.7-4.9-5.5c-1.6-1.9-3.1-3.8-4.7-5.7
							l-2.3-2.9l-2.2-3l-2.2-3c-0.7-1-1.5-2-2.1-3.1c-1.4-2.1-2.7-4.2-4.1-6.2c-1.3-2.1-2.6-4.3-3.8-6.4c-0.6-1.1-1.3-2.1-1.9-3.2
							l-1.7-3.3l-1.7-3.3c-0.6-1.1-1.2-2.2-1.7-3.4l-3.2-6.8c-1-2.3-1.9-4.6-2.9-7c-0.5-1.2-1-2.3-1.4-3.5l-1.3-3.6l-1.2-3.6
							c-0.4-1.2-0.8-2.4-1.2-3.6l-2.1-7.3c-0.7-2.4-1.2-4.9-1.8-7.4l-0.9-3.7l-0.7-3.7c-0.4-2.5-1-5-1.4-7.5
							c-1.6-10-2.3-20.2-2.5-30.3c0.2-10.1,1-20.3,2.5-30.3c0.4-2.5,0.9-5,1.4-7.5l0.7-3.7l0.9-3.7c0.6-2.5,1.1-4.9,1.8-7.4l2.1-7.3
							c0.3-1.2,0.8-2.4,1.2-3.6l1.2-3.6l1.3-3.6c0.4-1.2,0.9-2.3,1.4-3.5c1-2.3,1.9-4.7,2.9-7l3.2-6.8c0.5-1.1,1.1-2.3,1.7-3.4
							l1.7-3.3l1.7-3.3c0.6-1.1,1.3-2.2,1.9-3.2c1.3-2.1,2.5-4.3,3.8-6.4c1.4-2.1,2.7-4.2,4.1-6.2c0.7-1.1,1.4-2.1,2.1-3.1l2.2-3
							l2.2-3l2.3-2.9c1.6-1.9,3.1-3.9,4.7-5.7c1.6-1.8,3.3-3.7,4.9-5.5c0.8-0.9,1.7-1.8,2.5-2.7l2.6-2.6l2.6-2.6
							c0.9-0.9,1.8-1.7,2.7-2.5c1.8-1.7,3.5-3.4,5.4-5c1.9-1.6,3.7-3.2,5.6-4.7c15-12.3,31.6-22.4,48.9-29.8l3.2-1.4l3.3-1.3
							c2.2-0.8,4.4-1.7,6.6-2.5c4.4-1.4,8.8-3,13.3-4.1c8.9-2.5,17.9-4.1,26.9-5.3c4.5-0.4,8.9-1,13.4-1.1c2.2-0.1,4.4-0.3,6.6-0.3
							c2.2,0,4.4,0,6.6,0c1.1,0,2.2,0,3.3,0c1.1,0.1,2.2,0.1,3.3,0.2c2.2,0.1,4.3,0.2,6.5,0.4c2.2,0.2,4.3,0.4,6.4,0.7
							c2.1,0.2,4.3,0.4,6.4,0.8c2.1,0.3,4.2,0.7,6.3,1l1.6,0.3l1.5,0.3c1,0.2,2.1,0.4,3.1,0.7c2,0.5,4.1,0.8,6.1,1.4
							c2,0.5,4,1.1,6,1.6c1,0.3,2,0.5,3,0.8c1,0.3,2,0.6,2.9,0.9c1.9,0.6,3.9,1.3,5.8,1.9c1.9,0.7,3.8,1.4,5.7,2.1
							c1.9,0.7,3.8,1.4,5.6,2.2c14.7,6.1,28.1,13.7,40.1,22.2c12,8.5,22.3,18.1,31.1,28c8.8,9.9,16.1,20.2,21.9,30.4
							c5.9,10.1,10.5,20.1,13.9,29.5c1,2.3,1.7,4.7,2.4,7c0.8,2.3,1.5,4.5,2.1,6.7c0.6,2.2,1.2,4.4,1.8,6.5c0.5,2.1,1,4.2,1.5,6.2
							c3.3,16.2,3.9,29.2,3.8,37.9c0,1.1,0,2.1,0,3.1c0,1-0.1,1.9-0.1,2.7c-0.1,1.7-0.1,3.1-0.2,4.2
							C428.1,244.2,428.1,245.4,428.1,245.4s-0.1-1.2-0.3-3.4c-0.1-1.1-0.2-2.5-0.4-4.2c-0.1-0.8-0.1-1.7-0.3-2.7
							c-0.1-0.9-0.3-2-0.4-3c-1.2-8.6-3.4-21.1-8.8-36.2c-0.6-1.9-1.3-3.8-2-5.8c-0.8-1.9-1.6-3.9-2.4-6c-0.8-2.1-1.7-4.1-2.7-6.2
							c-1-2.1-1.9-4.2-3.1-6.3c-4.3-8.5-9.7-17.3-16.2-26c-13-17.5-30.7-34.8-53-48.8c-11.2-7-23.6-12.9-36.9-17.4
							c-1.6-0.6-3.4-1-5.1-1.6c-1.7-0.5-3.4-1-5.1-1.5c-1.7-0.4-3.5-0.8-5.2-1.3c-0.9-0.2-1.7-0.4-2.6-0.6c-0.9-0.2-1.8-0.3-2.7-0.5
							c-1.8-0.3-3.6-0.7-5.3-1c-1.8-0.3-3.6-0.5-5.4-0.8l-2.7-0.4l-1.4-0.2l-1.4-0.1c-1.8-0.2-3.7-0.3-5.5-0.5
							c-1.8-0.2-3.7-0.2-5.6-0.3c-1.9-0.1-3.7-0.1-5.6-0.2c-1.9,0-3.8,0-5.6,0.1l-2.8,0c-0.9,0-1.9,0.1-2.8,0.2
							c-1.9,0.1-3.8,0.2-5.7,0.3c-1.9,0.1-3.8,0.4-5.7,0.6c-3.8,0.3-7.6,1-11.4,1.6c-7.6,1.4-15.2,3.1-22.6,5.5
							c-3.8,1.1-7.4,2.5-11.2,3.8c-1.8,0.7-3.7,1.5-5.5,2.2l-2.8,1.1l-2.7,1.3c-14.5,6.6-28.2,15.4-40.7,26
							c-1.5,1.4-3.1,2.7-4.6,4.1c-1.5,1.4-2.9,2.9-4.4,4.3c-0.7,0.7-1.5,1.4-2.2,2.2l-2.1,2.3l-2.1,2.3c-0.7,0.8-1.4,1.5-2.1,2.3
							c-1.3,1.6-2.7,3.2-4,4.7c-1.3,1.6-2.5,3.3-3.8,4.9l-1.9,2.5l-1.8,2.6l-1.8,2.6c-0.6,0.8-1.2,1.7-1.7,2.6
							c-1.1,1.8-2.2,3.5-3.3,5.3c-1.1,1.8-2,3.6-3.1,5.4c-0.5,0.9-1,1.8-1.5,2.7l-1.4,2.8l-1.4,2.8c-0.5,0.9-0.9,1.9-1.3,2.8
							l-2.5,5.7c-0.8,1.9-1.5,3.9-2.3,5.8c-0.4,1-0.8,1.9-1.1,2.9l-1,3l-1,3c-0.3,1-0.7,2-0.9,3l-1.6,6.1c-0.5,2-0.9,4.1-1.4,6.1
							l-0.7,3.1l-0.5,3.1c-0.3,2.1-0.7,4.1-1,6.2c-1.1,8.3-1.5,16.7-1.5,25.1c0,8.4,0.4,16.8,1.5,25.1c0.2,2.1,0.7,4.1,1,6.2
							l0.5,3.1l0.7,3.1c0.5,2,0.8,4.1,1.4,6.1l1.6,6.1c0.3,1,0.6,2,0.9,3l1,3l1,3c0.3,1,0.7,2,1.1,2.9c0.8,1.9,1.4,3.9,2.3,5.8
							l2.5,5.7c0.4,1,0.9,1.9,1.3,2.8l1.4,2.8l1.4,2.8c0.5,0.9,1,1.8,1.5,2.7c1,1.8,2,3.7,3.1,5.4c1.1,1.8,2.2,3.5,3.3,5.3
							c0.5,0.9,1.1,1.7,1.7,2.6l1.8,2.6l1.8,2.6l1.9,2.5c1.3,1.6,2.5,3.3,3.8,4.9c1.3,1.6,2.7,3.2,4,4.7c0.6,0.8,1.4,1.6,2.1,2.3
							l2.1,2.3l2.1,2.3c0.7,0.7,1.5,1.4,2.2,2.2c1.5,1.4,2.9,2.9,4.4,4.3c1.5,1.4,3.1,2.7,4.6,4.1c12.4,10.6,26.2,19.5,40.7,26.1
							l2.7,1.3l2.8,1.1c1.8,0.7,3.7,1.5,5.5,2.2c3.7,1.3,7.4,2.8,11.2,3.8c7.5,2.4,15.1,4.1,22.7,5.5c3.8,0.6,7.6,1.3,11.4,1.6
							c1.9,0.2,3.8,0.5,5.7,0.6c1.9,0.1,3.8,0.2,5.7,0.3c0.9,0.1,1.9,0.1,2.8,0.2l2.8,0c1.9,0,3.8,0,5.6,0.1
							c1.9-0.1,3.7-0.1,5.6-0.2c1.9-0.1,3.7-0.1,5.6-0.3c1.8-0.2,3.7-0.3,5.5-0.5l1.4-0.1l1.4-0.2l2.7-0.4c1.8-0.3,3.6-0.5,5.4-0.8
							c1.8-0.3,3.6-0.7,5.3-1c0.9-0.2,1.8-0.3,2.7-0.5c0.9-0.2,1.7-0.4,2.6-0.6c1.7-0.4,3.5-0.8,5.2-1.3c1.7-0.5,3.4-1,5.1-1.5
							c1.7-0.5,3.4-0.9,5.1-1.6c13.3-4.5,25.8-10.4,36.9-17.4c22.3-14,40-31.3,53-48.8c6.5-8.8,11.9-17.5,16.2-26.1
							c1.2-2.1,2.1-4.2,3.1-6.3c1-2.1,1.9-4.1,2.7-6.2c0.8-2,1.6-4,2.4-6c0.7-2,1.3-3.9,2-5.8c5.4-15.1,7.6-27.6,8.8-36.2
							c0.2-1.1,0.3-2.1,0.4-3c0.1-0.9,0.2-1.8,0.3-2.7c0.2-1.6,0.3-3,0.4-4.2C428,246.5,428.1,245.4,428.1,245.4z"/>
					</g>
				</g>
			</g>
		</g>
	</g>
</g>
</svg>
